<svg width="28" height="20" viewBox="0 0 28 20" fill="none" xmlns="http://www.w3.org/2000/svg">
<path d="M27.41 3.26001C27.2507 2.66805 26.9387 2.12832 26.5052 1.69485C26.0717 1.26137 25.532 0.949349 24.94 0.790012C22.76 0.200012 14 0.200012 14 0.200012C14 0.200012 5.24002 0.200012 3.06002 0.790012C2.46806 0.949349 1.92833 1.26137 1.49485 1.69485C1.06138 2.12832 0.749357 2.66805 0.59002 3.26001C0.182966 5.48328 -0.0145669 7.73984 2.00137e-05 10C-0.0145669 12.2602 0.182966 14.5167 0.59002 16.74C0.749357 17.332 1.06138 17.8717 1.49485 18.3052C1.92833 18.7387 2.46806 19.0507 3.06002 19.21C5.24002 19.8 14 19.8 14 19.8C14 19.8 22.76 19.8 24.94 19.21C25.532 19.0507 26.0717 18.7387 26.5052 18.3052C26.9387 17.8717 27.2507 17.332 27.41 16.74C27.8171 14.5167 28.0146 12.2602 28 10C28.0146 7.73984 27.8171 5.48328 27.41 3.26001ZM11.2 14.2V5.80001L18.47 10L11.2 14.2Z" fill="#646D84"/>
</svg>
