<svg width="352" height="253" viewBox="0 0 352 253" fill="none" xmlns="http://www.w3.org/2000/svg">
<g clip-path="url(#clip0)">
<path d="M38.7397 137.983H26.5283V150.13H38.7397V137.983Z" fill="#084388"/>
<path d="M17.2454 159.378H48.0418V128.734H17.2454V159.378ZM20.9777 132.434H44.3286V155.698H20.9777V132.434Z" fill="#084388"/>
<path d="M38.7397 26.7539H26.5283V38.9008H38.7397V26.7539Z" fill="#084388"/>
<path d="M48.0418 17.5054H17.2454V48.1491H48.0418V17.5054ZM44.3095 44.4498H20.9585V21.2047H44.3095V44.4498Z" fill="#084388"/>
<path d="M150.461 26.7539H138.249V38.9008H150.461V26.7539Z" fill="#084388"/>
<path d="M128.966 17.5054V48.1491H159.744V17.5054H128.966ZM156.03 44.4498H132.679V21.2047H156.03V44.4498Z" fill="#084388"/>
<path d="M27.3322 123.452V118.437H22.2984H17.2454V123.452H22.2984H27.3322Z" fill="#084388"/>
<path d="M58.1096 113.422V108.407H53.0758V113.422H48.0419V108.407V103.373H42.9889H37.9551H32.9021V108.407H37.9551H42.9889V113.422V118.437H37.9551V113.422H32.9021V118.437V123.452H37.9551H42.9889H48.0419V118.437H53.0758H58.1096V113.422Z" fill="#084388"/>
<path d="M22.2984 113.422H27.3322V108.407V103.373H22.2984H17.2454V108.407H22.2984V113.422Z" fill="#084388"/>
<path d="M63.1626 103.373H58.1096V108.388H63.1626V103.373Z" fill="#084388"/>
<path d="M27.849 78.2781H22.8152V83.2932H27.849V78.2781Z" fill="#084388"/>
<path d="M48.0419 63.2136H42.9889V58.1985V53.1833H37.9551V58.1985V63.2136V68.2287H42.9889V73.2629H48.0419V68.2287V63.2136Z" fill="#084388"/>
<path d="M27.3322 68.2287V73.2629H32.3852V68.2287V63.2136H27.3322V58.1985V53.1833H22.2984V58.1985V63.2136H17.2454V68.2287H22.2984H27.3322Z" fill="#084388"/>
<path d="M58.3776 149.348V144.333H63.4306V139.318H58.3776H53.3438V144.333V149.348V154.363V159.378H58.3776V154.363H63.4306H68.4645V149.348H63.4306H58.3776Z" fill="#084388"/>
<path d="M68.4643 134.283H73.4981V129.268H68.4643V124.253H63.4304V129.268H58.3774V134.283H63.4304V139.318H68.4643V134.283Z" fill="#084388"/>
<path d="M73.4982 144.333H68.4644V149.348H73.4982V154.363H78.5512V159.378H83.585V154.363V149.348H78.5512V144.333V139.318H73.4982V144.333Z" fill="#084388"/>
<path d="M88.6381 109.189H83.5851V114.204H88.6381H93.672V119.238V124.253H88.6381V119.238H83.5851V124.253V129.268H78.5513V134.283V139.318H83.5851V134.283H88.6381V139.318H93.672V134.283V129.268H98.7058V124.253H103.759H108.793V119.238V114.204H103.759V119.238H98.7058V114.204V109.189H93.672H88.6381Z" fill="#084388"/>
<path d="M88.6188 144.333H83.585V149.348H88.6188V144.333Z" fill="#084388"/>
<path d="M73.4982 119.238H78.5512V114.204H73.4982V109.189H68.4644V114.204V119.238V124.253H73.4982V119.238Z" fill="#084388"/>
<path d="M58.3776 124.253H53.3438V129.287H58.3776V124.253Z" fill="#084388"/>
<path d="M78.5322 104.174H73.4983V109.189H78.5322V104.174Z" fill="#084388"/>
<path d="M68.1965 98.3577H63.1626V103.373H68.1965V98.3577Z" fill="#084388"/>
<path d="M48.0419 83.2932H53.0758V88.3083V93.3425H58.1096V88.3083V83.2932V78.2781H53.0758V73.2629H48.0419V78.2781H42.9889H37.9551V83.2932H42.9889H48.0419Z" fill="#084388"/>
<path d="M58.1096 103.373V98.3577H53.0757V93.3425H48.0419V88.3083H42.9889V93.3425H37.955H32.902V88.3083H37.955V83.2932H32.902H27.8682V88.3083V93.3425H22.8152V98.3577H27.8682H32.902H37.955H42.9889H48.0419V103.373H53.0757H58.1096Z" fill="#084388"/>
<path d="M78.2833 83.2932H73.2495V78.2781V73.2629H68.1965V78.2781V83.2932H63.1626V88.3083H68.1965V93.3425H73.2495V88.3083H78.2833H83.3172V83.2932V78.2781H78.2833V83.2932Z" fill="#084388"/>
<path d="M88.3701 73.2629H83.3171V78.2781H88.3701V73.2629Z" fill="#084388"/>
<path d="M88.6381 99.1394H83.5851V94.1243H78.5513V99.1394V104.174H83.5851H88.6381H93.672H98.7058V109.189H103.759V104.174V99.1394H98.7058H93.672V94.1243H88.6381V99.1394Z" fill="#084388"/>
<path d="M139.053 83.2932V79.079V78.2781H134V79.079V83.2932V84.0941H139.053V83.2932Z" fill="#084388"/>
<path d="M93.6719 84.094V89.1091V94.1242H98.7057V89.1091H103.759V84.094H98.7057V79.0789H93.6719V84.094Z" fill="#084388"/>
<path d="M103.74 74.0447H98.7058V79.0598H103.74V74.0447Z" fill="#084388"/>
<path d="M93.404 68.2288H88.3701V73.2439H93.404V68.2288Z" fill="#084388"/>
<path d="M73.2493 58.1985H68.1963V63.2136V68.2287H73.2493V73.2629H78.2831H83.317V68.2287H78.2831V63.2136H73.2493V58.1985Z" fill="#084388"/>
<path d="M63.1625 73.263V68.2288V63.2137V58.1986H58.1095V53.1834H63.1625H68.1964H73.2494H78.2832V58.1986V63.2137H83.2979H83.3171H88.3509H93.3848H98.4186V58.1986H93.3848H88.3509V53.1834H83.3171V48.1492H78.2832H73.2494V43.1341H68.1964V38.119H73.2494V33.1039H68.1964H63.1625H58.1095V29.9384V28.0697V27.8218V22.7876H63.1625H65.2871H68.1964H73.2494V17.7725H68.1964H63.1625H61.5356H53.0757V23.0546V28.0697V33.1039V38.119H58.1095H63.1625V43.1341V48.1492H58.1095H53.0757V53.1834V58.1986V63.2137H58.1095V68.2288H53.0757V73.263H58.1095H63.1625Z" fill="#084388"/>
<path d="M113.559 38.1189H108.506H103.472V43.134H108.506H113.559V38.1189Z" fill="#084388"/>
<path d="M103.472 48.1492V53.1834V58.1985H108.506H113.559V53.1834H108.506V48.1492H103.472Z" fill="#084388"/>
<path d="M108.506 33.1038H113.559H118.592V28.2603H123.645V23.2261H118.592H113.559V28.0696H108.506V23.0544H103.472V28.0696H98.4187V33.1038H103.472H108.506Z" fill="#084388"/>
<path d="M98.4186 33.1038H93.3848V38.1189H98.4186V33.1038Z" fill="#084388"/>
<path d="M78.2831 43.134H83.317H88.3508V48.1491V53.1833H93.3847V48.1491H98.4185V43.134H93.3847V38.1189H88.37H88.3508H83.317V33.1038H88.3508H93.3847V28.0696H88.3508H83.2978V33.1038H78.2831V38.1189H73.2493V43.134H78.2831Z" fill="#084388"/>
<path d="M78.2831 22.7874H73.2493V27.8025H78.2831V22.7874Z" fill="#084388"/>
<path d="M88.37 22.7876H93.4039H98.4569V17.7725H93.4039H88.37H83.3171H78.2832V22.7876H83.3171H88.37Z" fill="#084388"/>
<path d="M139.321 114.204H134.268V119.238H139.321H144.355V124.253H139.321V129.268V134.283H144.355V129.268V124.253H149.389V119.238V114.204H144.355H139.321Z" fill="#084388"/>
<path d="M159.476 119.238H154.442V124.253H159.476V119.238Z" fill="#084388"/>
<path d="M139.321 104.174H134.268V109.189H139.321H144.355H149.389V114.204H154.442V109.189H159.476V104.174V99.1394H154.174V104.174H149.389H144.355V99.1394H139.321V104.174Z" fill="#084388"/>
<path d="M144.087 73.2629H139.053V78.2781H144.087V73.2629Z" fill="#084388"/>
<path d="M118.879 144.333H123.932V139.318V134.283H118.879V139.318V144.333Z" fill="#084388"/>
<path d="M128.966 119.238H123.932V114.204V109.189H118.88V114.204H113.846V119.238H118.88V124.253H113.846V129.268H108.793V134.283H103.759V139.318H108.793H113.846V134.283H118.88V129.268H123.932V124.253H128.966V119.238Z" fill="#084388"/>
<path d="M134.287 109.189H129.234V114.204H134.287V109.189Z" fill="#084388"/>
<path d="M128.966 104.174H123.932V109.189H128.966V104.174Z" fill="#084388"/>
<path d="M139.053 64.0144H134V69.0295H139.053V64.0144Z" fill="#084388"/>
<path d="M149.14 53.9651H144.087H139.053V58.9802V64.0144H144.087V69.0295H149.14V64.0144V58.9802H154.174H159.476V53.9651H154.174H149.14Z" fill="#084388"/>
<path d="M128.966 58.9802H123.932V53.965V48.9499V43.9348V38.9197H118.879V43.9348V48.9499V53.965V58.9802V64.0144V69.0295H113.846H113.559V64.0144H108.506V69.0295H103.759V74.0446H108.793H113.846H118.879H123.932V79.0788H128.966V74.0446V69.0295H123.932V64.0144H128.966H134V58.9802H128.966Z" fill="#084388"/>
<path d="M154.442 84.094H159.476V79.0788V74.0447V69.0295V64.0144H154.174V69.0295V74.0447V79.0788H149.389V84.094H154.174H154.442Z" fill="#084388"/>
<path d="M22.8152 83.2932H17.5134V88.3083V93.3425H22.8152V88.3083V83.2932Z" fill="#084388"/>
<path d="M113.846 149.348H108.793V144.333H103.759V149.348H98.7057V144.333H93.6719V149.348V154.363V159.378H98.7057V154.363H103.759H108.793H113.846H118.879H123.932V149.348H118.879V144.333H113.846V149.348Z" fill="#084388"/>
<path d="M103.74 139.318H98.7058V144.333H103.74V139.318Z" fill="#084388"/>
<path d="M113.846 79.0789H108.793V84.094H113.846H118.88V89.1091V94.1242H116.966H113.846H113.559V99.1394H113.846H118.88H123.933V94.1242H128.966V99.1394H134V94.1242H144.355V99.1394H149.389V94.1242H154.442V89.1091H149.389V84.094H144.355V89.1091H134V84.094H128.966V89.1091H123.933V84.094V79.0789H118.88H113.846Z" fill="#084388"/>
<path d="M114.362 102.839H109.329V107.854H114.362V102.839Z" fill="#084388"/>
<path d="M154.308 144.333H149.255V139.318V134.283H144.221V139.318V144.333H139.187H134.268V139.318H139.321V134.283H134.268H129.234V139.318V144.333V149.348V154.363H124.181V159.397H129.234H134.268V154.363V149.348H139.187H139.321H144.221V154.363H149.255V149.348H154.308H159.342V144.333V139.318H154.308V144.333Z" fill="#084388"/>
<path d="M3.15812 37.9853H0V0H38.1463V3.14637H3.15812V37.9853Z" fill="#084388"/>
<path d="M176.989 37.9853H173.831V3.14637H138.843V0H176.989V37.9853Z" fill="#084388"/>
<path d="M176.989 176.903H138.843V173.737H173.831V138.917H176.989V176.903Z" fill="#084388"/>
<path d="M38.1463 176.903H0V138.917H3.15812V173.737H38.1463V176.903Z" fill="#084388"/>
<path d="M175.419 61.4592H1.58862V66.5125H175.419V61.4592Z" fill="#FF4868"/>
</g>
<g clip-path="url(#clip1)">
<path d="M339.794 252.684L125.162 253C118.396 253.016 112.924 247.531 112.908 240.75L112.719 109.449C112.703 102.684 118.176 97.1835 124.941 97.1677L339.557 96.8516C346.307 96.8358 351.795 102.321 351.811 109.101L352 240.403C352.016 247.168 346.543 252.668 339.794 252.684Z" fill="#FF4868"/>
<g opacity="0.3">
<g opacity="0.3">
<path opacity="0.3" d="M339.794 252.684L125.162 253C118.396 253.016 112.924 247.531 112.908 240.75L112.719 109.449C112.703 102.684 118.176 97.1835 124.941 97.1677L339.557 96.8516C346.307 96.8358 351.795 102.321 351.811 109.101L352 240.403C352.016 247.168 346.543 252.668 339.794 252.684Z" fill="#383F47"/>
</g>
</g>
<path d="M316.627 133.142C316.643 142.278 309.263 149.691 300.148 149.707C291.032 149.723 283.636 142.326 283.62 133.19C283.605 124.054 290.985 116.641 300.1 116.625C309.215 116.609 316.612 124.006 316.627 133.142Z" fill="white"/>
<path d="M324.907 149.786C323.345 150.245 321.705 150.482 320.034 150.482C315.413 150.482 311.06 148.696 307.78 145.424C304.5 142.152 302.702 137.789 302.687 133.158C302.687 128.527 304.469 124.165 307.733 120.877C310.997 117.589 315.35 115.787 319.971 115.772C329.512 115.756 337.302 123.532 337.302 133.095C337.302 137.726 335.52 142.089 332.256 145.376C330.19 147.479 327.651 148.98 324.907 149.786ZM315.571 118.032C313.079 118.759 310.792 120.118 308.9 122.015C305.935 124.986 304.311 128.938 304.327 133.142C304.327 137.347 305.967 141.283 308.932 144.254C311.896 147.226 315.839 148.854 320.034 148.838C324.229 148.838 328.171 147.194 331.12 144.222C334.085 141.251 335.709 137.299 335.694 133.095C335.678 124.417 328.628 117.384 319.986 117.4C318.472 117.4 316.99 117.621 315.571 118.032Z" fill="white"/>
<path d="M134.024 196.794L134.04 210.103H132.668V198.011H129.546V196.794H134.024Z" fill="white"/>
<path d="M147.697 208.854V210.071L138.393 210.087V209.122L143.896 203.701C145.395 202.215 145.679 201.314 145.679 200.413C145.679 198.88 144.59 197.932 142.572 197.932C141.011 197.932 139.828 198.406 138.945 199.417L137.983 198.58C139.008 197.363 140.648 196.683 142.682 196.667C145.379 196.667 147.082 198.027 147.082 200.255C147.082 201.536 146.688 202.674 144.906 204.412L140.395 208.87L147.697 208.854Z" fill="white"/>
<path d="M161.669 206.562H159.02V210.055H157.648V206.562L150.157 206.578V205.582L157.175 196.746H158.689L151.908 205.345L157.68 205.329V202.247H159.004V205.329H161.654L161.669 206.562Z" fill="white"/>
<path d="M182.013 206.53H179.364V210.024H177.992V206.53L170.501 206.546V205.55L177.518 196.715H179.032L172.251 205.313H178.007V202.231H179.332V205.313H181.981L182.013 206.53Z" fill="white"/>
<path d="M193.604 206.088C193.604 208.348 192.043 210.118 188.794 210.118C186.886 210.118 185.057 209.454 184.032 208.411L184.694 207.321C185.546 208.206 187.06 208.854 188.779 208.854C191.034 208.854 192.232 207.747 192.232 206.135C192.232 204.428 191.16 203.369 187.785 203.369H184.962L185.64 196.699L192.91 196.683V197.9L186.839 197.916L186.381 202.152H188.085C192.09 202.152 193.604 203.733 193.604 206.088Z" fill="white"/>
<path d="M206.725 206.009C206.725 208.49 204.785 210.103 202.199 210.103C198.666 210.103 196.758 207.653 196.742 203.464C196.742 198.943 199.203 196.573 202.798 196.573C203.997 196.573 205.116 196.778 205.952 197.284L205.4 198.39C204.722 197.932 203.807 197.758 202.814 197.774C199.944 197.774 198.114 199.623 198.114 203.243C198.114 203.543 198.13 203.922 198.178 204.317C198.84 202.848 200.385 202.041 202.23 202.026C204.88 202.026 206.725 203.575 206.725 206.009ZM205.384 206.056C205.384 204.302 204.091 203.195 202.041 203.195C200.007 203.195 198.635 204.46 198.635 206.104C198.635 207.574 199.849 208.949 202.152 208.949C204.06 208.949 205.384 207.826 205.384 206.056Z" fill="white"/>
<path d="M224.892 206.135C224.892 208.364 223.284 210.071 220.082 210.071C218.158 210.071 216.329 209.407 215.304 208.364L215.966 207.273C216.818 208.158 218.363 208.806 220.082 208.806C222.274 208.806 223.489 207.779 223.489 206.119C223.489 204.523 222.369 203.48 219.909 203.48H218.963V202.468L222.637 197.853L215.856 197.869V196.652L224.388 196.636V197.6L220.634 202.342C223.457 202.516 224.876 204.017 224.892 206.135Z" fill="white"/>
<path d="M238.186 205.961C238.186 208.443 236.247 210.055 233.66 210.055C230.128 210.055 228.22 207.605 228.204 203.416C228.204 198.896 230.664 196.525 234.26 196.525C235.458 196.525 236.578 196.73 237.414 197.236L236.862 198.343C236.184 197.884 235.269 197.726 234.275 197.726C231.405 197.726 229.576 199.575 229.576 203.195C229.576 203.495 229.592 203.875 229.639 204.27C230.301 202.8 231.847 201.994 233.692 201.978C236.341 201.978 238.186 203.543 238.186 205.961ZM236.846 206.009C236.846 204.254 235.553 203.148 233.503 203.148C231.468 203.148 230.096 204.412 230.096 206.056C230.096 207.526 231.311 208.901 233.613 208.901C235.521 208.901 236.846 207.779 236.846 206.009Z" fill="white"/>
<path d="M250.393 196.62V197.584L244.857 209.929H243.375L248.816 197.837L241.987 197.853V200.334H240.631V196.636L250.393 196.62Z" fill="white"/>
<path d="M269.364 196.588V197.553L263.829 209.897H262.346L267.787 197.805L260.959 197.821V200.319H259.618V196.604L269.364 196.588Z" fill="white"/>
<path d="M282.437 206.167C282.437 208.522 280.45 209.992 277.281 209.992C274.095 209.992 272.155 208.538 272.155 206.182C272.155 204.586 273.054 203.464 274.71 202.911C273.37 202.373 272.628 201.377 272.613 199.986C272.613 197.821 274.442 196.462 277.249 196.462C280.056 196.462 281.933 197.805 281.933 199.971C281.933 201.362 281.176 202.357 279.82 202.895C281.507 203.448 282.437 204.586 282.437 206.167ZM281.034 206.151C281.034 204.523 279.63 203.495 277.281 203.495C274.931 203.495 273.543 204.523 273.543 206.167C273.543 207.826 274.931 208.854 277.281 208.838C279.63 208.838 281.034 207.81 281.034 206.151ZM277.281 202.405C279.346 202.405 280.577 201.472 280.577 200.018C280.577 198.516 279.268 197.6 277.265 197.616C275.246 197.616 273.985 198.532 273.985 200.018C273.985 201.488 275.199 202.421 277.281 202.405Z" fill="white"/>
<path d="M295.322 203.085C295.322 207.605 292.862 209.976 289.266 209.976C288.067 209.976 286.948 209.771 286.112 209.265L286.664 208.158C287.342 208.617 288.257 208.791 289.25 208.775C292.12 208.775 293.95 206.925 293.95 203.306C293.95 203.006 293.934 202.626 293.887 202.215C293.224 203.685 291.679 204.491 289.834 204.507C287.2 204.507 285.355 202.958 285.355 200.524C285.355 198.042 287.295 196.43 289.881 196.43C293.398 196.43 295.322 198.88 295.322 203.085ZM293.445 200.445C293.445 198.975 292.231 197.6 289.928 197.6C288.02 197.6 286.695 198.722 286.695 200.492C286.695 202.247 287.989 203.369 290.039 203.353C292.057 203.353 293.445 202.105 293.445 200.445Z" fill="white"/>
<path d="M308.774 196.525L308.79 209.834H307.418L307.402 197.742H304.279V196.525H308.774Z" fill="white"/>
<path d="M322.446 208.601V209.818L313.142 209.834V208.87L318.646 203.448C320.144 201.962 320.428 201.061 320.428 200.16C320.428 198.627 319.34 197.663 317.321 197.679C315.76 197.679 314.577 198.153 313.694 199.165L312.732 198.327C313.757 197.11 315.397 196.43 317.431 196.414C320.128 196.414 321.831 197.774 321.831 200.002C321.831 201.283 321.437 202.421 319.655 204.175L315.145 208.632L322.446 208.601Z" fill="white"/>
<path d="M334.337 205.977C334.337 208.206 332.729 209.913 329.527 209.913C327.619 209.913 325.774 209.249 324.749 208.206L325.411 207.115C326.263 208 327.808 208.648 329.527 208.648C331.719 208.648 332.934 207.621 332.934 205.961C332.934 204.365 331.814 203.322 329.338 203.322H328.392V202.31L332.066 197.695L325.269 197.71V196.493L333.801 196.478V197.442L330.048 202.184C332.918 202.342 334.337 203.843 334.337 205.977Z" fill="white"/>
<path d="M338.733 219.692L232.426 219.859L232.435 225.629L338.742 225.461L338.733 219.692Z" fill="white"/>
<path d="M338.764 231.223L284.231 231.308L284.24 237.093L338.773 237.009L338.764 231.223Z" fill="white"/>
<path d="M162.695 185.35L133.741 185.397C129.42 185.397 125.903 181.904 125.903 177.558L125.871 159.855C125.871 155.524 129.372 151.999 133.693 151.999L162.647 151.952C166.968 151.952 170.485 155.445 170.485 159.791L170.517 177.494C170.517 181.825 167.016 185.334 162.695 185.35Z" fill="#263238"/>
<path d="M125.903 176.151V174.001L148.864 173.97C151.514 173.97 153.674 171.804 153.658 169.149C153.658 166.493 151.466 164.312 148.849 164.344L125.887 164.375V162.226L148.849 162.194C152.681 162.194 155.803 165.308 155.803 169.149C155.803 172.99 152.697 176.119 148.864 176.119L125.903 176.151Z" fill="white"/>
<path d="M170.501 168.074H154.731V170.223H170.501V168.074Z" fill="white"/>
<path d="M245.812 124.351L131.084 124.516L131.098 134.379L245.826 134.214L245.812 124.351Z" fill="white"/>
</g>
<defs>
<clipPath id="clip0">
<rect width="176.989" height="176.902" fill="white"/>
</clipPath>
<clipPath id="clip1">
<rect width="239.281" height="156.148" fill="white" transform="translate(112.719 96.8516)"/>
</clipPath>
</defs>
</svg>
