<svg width="342" height="436" viewBox="0 0 342 436" fill="none" xmlns="http://www.w3.org/2000/svg">
<path d="M295 436C457.924 436 590 303.924 590 141C590 -21.924 457.924 -154 295 -154C132.076 -154 0 -21.924 0 141C0 303.924 132.076 436 295 436Z" fill="white" fill-opacity="0.2"/>
<path opacity="0.1" d="M147.202 357.609C168.374 366.451 178.843 359.421 194.757 350.243C210.671 341.064 212.474 332.013 200.236 326.285C177.157 315.491 164.011 326.39 148.098 335.568C132.184 344.747 134.743 352.415 147.202 357.609Z" fill="black"/>
<path opacity="0.1" d="M236.775 416.864C259.982 425.705 270.452 418.967 286.354 409.788C302.268 400.609 309.201 392.72 291.833 385.83C274.861 379.103 257.912 386.191 241.998 395.369C226.096 404.548 224.153 412.065 236.775 416.864Z" fill="black"/>
<path d="M239.322 304.384C239.043 307.904 237.717 311.204 236.775 313.168C235.705 315.387 235.344 317.943 234.157 317.525C232.971 317.106 234.495 306.777 234.495 306.777L239.322 304.384Z" fill="url(#paint0_radial)"/>
<path d="M294.194 395.625C294.194 395.625 295.358 400.098 294.462 401.969C293.566 403.851 289.448 405.361 286.144 403.758C282.829 402.155 281.398 398.75 280.154 397.856C278.897 396.961 271.836 396.159 266.555 391.686C261.274 387.213 261.995 382.298 267.276 382.217C272.557 382.124 282.131 384.541 285.528 386.772C288.913 389.014 294.194 395.625 294.194 395.625Z" fill="#10054D"/>
<path d="M291.693 400.458C287.913 401.248 283.108 397.96 280.863 396.078C278.63 394.196 274.686 395.183 269.591 391.163C264.496 387.143 262.704 384.366 265.031 383.03C267.357 381.694 275.826 382.078 282.445 385.645C289.064 389.223 293.485 391.791 293.485 391.791C293.485 391.791 295.09 396.705 294.287 397.774C293.473 398.843 293.834 400.005 291.693 400.458Z" fill="url(#paint1_linear)"/>
<path d="M291.728 287.7C291.728 287.7 294.543 299.76 292.67 315.05C290.786 330.328 293.741 361.036 294.415 371.9C295.09 382.763 298.871 396.101 293.345 398.855C290.169 400.435 284.481 399.529 280.049 394.428C275.617 389.339 274.674 384.378 275.221 383.437C275.756 382.496 276.559 378.348 274.814 369.355C273.069 360.374 269.579 338.519 269.847 331.409C270.114 324.298 272.662 290.918 272.662 290.918L291.728 287.7Z" fill="url(#paint2_linear)"/>
<path d="M269.847 331.409C269.579 338.519 273.069 360.374 274.814 369.355C276.559 378.336 275.756 382.496 275.221 383.437C274.686 384.378 275.628 389.339 280.049 394.428C281.782 396.427 283.713 397.774 285.609 398.588C283.702 394.986 280.851 387.562 280.851 375.257C280.851 356.761 277.001 333.163 276.466 320.301C276.152 312.761 277.92 298.517 277.92 289.373L272.662 290.941C272.674 290.918 270.114 324.298 269.847 331.409Z" fill="#383F47" fill-opacity="0.1"/>
<path d="M238.031 208.809C238.031 208.809 226.526 207.624 221.943 209.855C217.36 212.086 209.926 219.243 209.915 221.555C209.903 223.611 216.126 226.307 219.849 225.261C223.572 224.215 224.002 223.646 227.015 223.019C230.039 222.391 236.065 220.428 238.264 219.266C240.474 218.092 238.031 208.809 238.031 208.809Z" fill="url(#paint3_radial)"/>
<path d="M172.003 319.895L170.479 328.562C170.479 328.562 174.772 331.06 176.738 331.688C178.704 332.315 181.926 331.06 183.543 333.117C185.148 335.173 191.756 340.425 197.235 341.517C203.133 342.691 207.262 340.797 207.344 339.1C207.437 337.404 205.913 334.627 200.538 331.142C195.164 327.656 190.604 319.163 190.604 319.163L172.003 319.895Z" fill="#10054D"/>
<path d="M171.561 325.437C172.364 326.424 182.228 328.748 183.845 330.793C185.683 333.117 194.897 338.798 199.55 339.6C203.784 340.332 207.03 338.217 206.622 336.602C206.041 334.279 202.155 332.141 198.759 329.55C195.362 326.959 191.686 320.975 191.686 320.975L171.456 319.546L171.561 325.437Z" fill="url(#paint4_linear)"/>
<path d="M143.014 335.719L142.84 343.759L146.504 347.419L147.667 346.978C147.667 346.978 150.075 352.88 157.09 357.411C163.151 361.327 170.491 360.374 172.271 358.945C174.062 357.516 174.062 356.18 169.584 350.185C165.105 344.201 158.66 335.522 158.66 335.522L143.014 335.719Z" fill="#10054D"/>
<path d="M143.479 340.425C143.479 340.425 150.005 346.432 152.251 349.964C155.647 355.285 164.605 359.375 170.503 357.411C176.412 355.448 168.444 349.278 166.838 346.594C165.233 343.91 160.661 337.207 160.661 337.207L143.212 337.032L143.479 340.425Z" fill="url(#paint5_linear)"/>
<path d="M192.186 220.707C192.186 220.707 194.024 259.211 193.757 268.459C193.489 277.708 188.15 301.77 189.08 306.057C190.022 310.344 192.035 314.12 192.57 316.804C193.105 319.488 193.885 323.16 193.885 323.16C193.885 323.16 188.115 328.655 181.531 327.854C174.958 327.052 171.538 325.855 170.921 324.229C170.305 322.602 171.864 280.647 171.864 280.647L170.968 226.33L192.186 220.707Z" fill="url(#paint6_linear)"/>
<path d="M176.284 316.072C175.319 305.372 178.448 292.045 181.81 277.568C184.636 265.38 183.124 235.764 182.566 226.69L171.201 229.711L171.875 280.659C171.875 280.659 170.328 322.614 170.933 324.229C171.515 325.774 174.656 326.936 180.658 327.737C178.727 324.054 176.587 319.372 176.284 316.072Z" fill="#383F47" fill-opacity="0.1"/>
<path d="M173.957 223.228C173.957 223.228 171.328 253.831 170.665 267.379C169.991 280.926 166.64 299.969 164.896 307.079C163.151 314.19 161.138 324.24 161.673 329.201C162.208 334.162 164.488 338.055 161.534 340.193C158.579 342.342 148.644 343.55 146.225 342.342C143.805 341.134 141.793 341.401 141.793 336.579C141.793 331.757 142.467 304.535 144.34 293.672C146.225 282.808 143.189 244.78 143.13 239.912C142.991 228.514 147.423 222.217 147.423 222.217L173.957 223.228Z" fill="url(#paint7_linear)"/>
<path d="M167.443 128.885C162.616 130.221 156.566 129.826 161.801 142.293C167.036 154.759 185.974 197.26 185.974 197.26C185.974 197.26 192.419 181.842 191.477 168.434C190.534 155.027 182.484 132.103 182.484 132.103L167.443 128.885Z" fill="url(#paint8_linear)"/>
<path d="M176.936 144.163L178.995 143.269L180.332 144.698L179.797 147.649C179.797 147.649 185.521 158.826 187.673 165.611C189.825 172.408 190.267 181.61 189.464 185.897C188.661 190.185 184.718 196.447 184.718 196.447C184.718 196.447 181.856 175.894 180.961 170.967C180.065 166.053 177.296 148.532 177.296 148.532L175.237 147.277L176.936 144.163Z" fill="url(#paint9_linear)"/>
<path d="M177.645 129.419C177.645 129.419 183.648 128.676 188.208 132.789C191.488 135.751 193.291 139.574 194.315 147.114C195.222 153.795 194.024 168.562 194.292 172.315C194.559 176.068 195.769 199.805 196.444 207.171C197.118 214.549 199.399 222.995 195.234 227.143C191.069 231.303 186.637 233.441 185.567 231.036C184.497 228.619 181.275 207.032 183.02 200.595C184.764 194.158 189.592 181.017 189.325 173.105C189.057 165.193 185.567 144.012 183.287 139.853C181.007 135.716 177.645 129.419 177.645 129.419Z" fill="url(#paint10_linear)"/>
<path d="M192.431 159.662C191.895 152.331 191.709 146.615 191.709 146.615L188.859 145.069L190.744 141.723C190.744 141.723 187.324 139.736 186.16 137.146C185.148 134.88 182.531 132.068 180.472 129.326H180.46C178.82 129.21 177.634 129.419 177.634 129.419C177.634 129.419 180.984 135.716 183.275 139.876C185.555 144.035 189.045 165.216 189.313 173.128C189.476 178.02 187.696 184.886 185.904 190.951C186.765 189.046 188.312 185.026 188.65 183.934C190.534 177.741 192.966 166.994 192.431 159.662Z" fill="#D1D3D4"/>
<path d="M191.791 158.919C191.256 151.587 191.069 145.871 191.069 145.871L187.754 144.976L190.092 140.712C190.092 140.712 187.475 139.771 186.381 137.297C185.381 135.031 183.403 131.418 180.472 129.338H180.46C178.82 129.222 177.634 129.431 177.634 129.431C177.634 129.431 180.984 135.728 183.275 139.888C185.555 144.047 189.045 165.228 189.313 173.14C189.476 178.031 187.696 184.898 185.904 190.963C186.765 189.058 188.312 185.037 188.65 183.945C190.534 177.741 192.326 166.25 191.791 158.919Z" fill="url(#paint11_linear)"/>
<path d="M147.446 222.205C147.446 222.205 143.014 228.503 143.154 239.901C143.212 244.769 146.237 282.808 144.364 293.66C142.479 304.523 141.816 331.734 141.816 336.568C141.816 341.401 143.829 341.122 146.248 342.33C147.19 342.795 149.284 342.9 151.657 342.725C149.75 339.461 147.772 334.418 147.214 327.017C146.05 311.529 151.669 294.287 150.901 280.159C150.215 267.646 149.831 239.54 151.902 222.763L147.446 222.205Z" fill="#383F47" fill-opacity="0.1"/>
<path d="M179.46 131.452L167.443 128.885C163.721 129.919 159.277 129.919 159.835 135.577C162.383 139.957 165.628 145.186 167.711 147.207C171.561 150.96 174.341 154.388 174.341 154.388L177.82 142.025L183.741 150.1C183.741 150.1 184.09 143.013 183.543 140.689C183.275 139.504 181.321 135.298 179.46 131.452Z" fill="#D1D3D4"/>
<path d="M179.46 131.452L167.443 128.885C163.721 129.919 159.277 129.919 159.835 135.577C162.383 139.957 165.628 145.186 167.711 147.207C171.561 150.96 174.155 152.575 174.155 152.575L177.82 142.025L183.543 148.288C183.543 148.288 184.078 143.013 183.543 140.689C183.275 139.504 181.321 135.298 179.46 131.452Z" fill="url(#paint12_linear)"/>
<path d="M163.244 129.245C163.244 129.245 159.486 130.407 161.545 135.775C163.604 141.142 171.747 150.17 177.029 162.497C182.31 174.836 185.893 187.884 185.532 202.814C185.172 217.744 184.09 231.175 180.705 234.719C176.877 238.715 165.221 243.212 152.867 241.062C140.513 238.913 136.942 234.184 138.28 231.233C139.617 228.282 146.865 197.539 147.411 192.973C147.946 188.419 143.654 176.254 142.316 171.432C140.978 166.61 138.629 156.862 140.327 151.495C142.025 146.127 145.073 145.511 148.202 142.293C150.238 140.201 153.321 137.146 156.95 134.032C158.905 132.347 160.789 129.965 163.244 129.245Z" fill="url(#paint13_linear)"/>
<path d="M177.017 162.486C171.736 150.147 163.593 141.119 161.534 135.763C159.777 131.185 162.255 129.675 163.011 129.326V129.315C160.789 130.012 158.788 131.278 156.985 132.777C156.566 136.367 156.264 137.215 157.776 143.617C159.382 150.414 158.986 153.179 158.986 153.179L163.546 154.167V158.64C163.546 158.64 165.512 156.99 171.561 166.692C177.668 176.498 181.984 181.494 185.195 193.205C184.218 182.168 181.135 172.118 177.017 162.486Z" fill="#D1D3D4"/>
<path d="M177.017 162.486C171.736 150.147 163.593 141.119 161.534 135.763C159.777 131.185 162.255 129.675 163.011 129.326V129.315C160.789 130.012 158.788 131.278 156.985 132.777C156.566 136.367 156.264 137.215 157.776 143.617C159.382 150.414 159.835 151.924 159.835 151.924L164.395 152.912V157.385C164.395 157.385 167.513 156.99 173.085 166.982C178.285 176.289 181.984 181.494 185.195 193.205C184.218 182.168 181.135 172.118 177.017 162.486Z" fill="url(#paint14_linear)"/>
<path d="M173.527 166.75C167.955 156.758 164.802 156.804 164.802 156.804V152.331L160.242 151.343C160.242 151.343 159.8 149.821 158.183 143.036C156.718 136.855 157.067 135.716 157.462 132.428C157.311 132.556 157.148 132.661 156.997 132.789C156.578 136.379 156.276 137.227 157.788 143.629C159.393 150.426 159.847 151.936 159.847 151.936L164.407 152.924V157.397C164.407 157.397 167.525 157.002 173.097 166.994C178.297 176.3 181.996 181.505 185.206 193.217C185.09 191.881 184.857 191.033 184.683 189.731C181.682 180.216 178.203 175.15 173.527 166.75Z" fill="url(#paint15_radial)"/>
<path d="M148.924 207.81C148.924 207.81 152.681 209.332 156.625 210.494C160.557 211.656 165.303 212.911 165.303 212.911C165.303 212.911 165.256 218.697 162.93 218.79C160.603 218.883 148.703 215.745 147.981 214.316C147.272 212.887 148.924 207.81 148.924 207.81Z" fill="#D1D3D4"/>
<path d="M148.924 207.81C148.924 207.81 152.681 209.332 156.625 210.494C160.556 211.656 165.303 212.911 165.303 212.911C165.303 212.911 164.942 217.651 162.615 217.732C160.289 217.825 148.389 214.688 147.667 213.259C146.946 211.83 148.924 207.81 148.924 207.81Z" fill="url(#paint16_linear)"/>
<path d="M205.122 203.255C205.122 203.255 205.482 207.543 203.33 211.481C201.178 215.409 197.339 218.627 197.339 218.627C197.339 218.627 196.711 210.494 198.863 207.45C201.015 204.406 205.122 203.255 205.122 203.255Z" fill="url(#paint17_linear)"/>
<path d="M202.551 203.616C202.551 203.616 205.227 205.707 207.286 205.905C209.333 206.09 216.208 205.835 218.453 206.613C220.593 207.357 227.282 209.355 227.468 211.156C227.655 212.957 225.2 211.76 223.246 211.493C221.291 211.226 218.069 210.982 218.069 210.982C218.069 210.982 222.024 215.095 224.467 216.454C226.91 217.825 230.842 218.522 231.493 219.893C232.145 221.264 231.296 222.577 229.306 223.96C226.305 226.04 223.827 225.366 221.257 225.459C216.79 225.633 211.613 223.82 209.554 222.112C207.483 220.405 201.632 215.78 200.317 215.002C199.015 214.223 194.245 212.434 194.245 212.434L202.202 203.418L202.551 203.616Z" fill="url(#paint18_radial)"/>
<path d="M229.318 223.948C231.307 222.566 232.157 221.253 231.505 219.882C231.4 219.649 231.179 219.44 230.912 219.243C229.272 221.322 223.99 222.403 220.698 221.671C217.208 220.893 208.181 214.862 205.564 212.341C204.226 211.052 199.841 209.413 195.874 208.112L194.257 212.423C194.257 212.423 199.026 214.212 200.329 214.99C201.632 215.769 207.495 220.381 209.566 222.101C211.636 223.809 216.801 225.621 221.268 225.447C223.839 225.354 226.305 226.028 229.318 223.948Z" fill="url(#paint19_radial)"/>
<path d="M156.217 225.447C156.357 215.571 162.755 203.081 165.815 195.68C168.874 188.279 164.942 165.913 160.289 156.177C156.508 148.265 145.527 151.007 139.897 153.481C139.14 159.012 141.095 167.156 142.293 171.432C143.631 176.254 147.935 188.418 147.388 192.973C146.853 197.527 139.606 228.282 138.256 231.233C136.919 234.184 140.49 238.925 152.844 241.062C154.961 241.434 157.055 241.597 159.102 241.609C157.846 237.902 156.124 231.709 156.217 225.447Z" fill="#383F47" fill-opacity="0.1"/>
<path d="M143.421 146.882C138.21 148.543 137.919 158.57 141.188 165.913C143.328 170.7 148.377 181.54 150.168 186.188C151.96 190.835 154.822 200.397 159.835 203.081C164.849 205.765 178.006 210.145 183.194 212.376C188.382 214.607 197.328 218.639 197.328 218.639C197.328 218.639 198.852 212.469 201.085 208.623C203.319 204.778 205.11 203.255 205.11 203.255C205.11 203.255 187.405 194.937 181.321 191.544C175.237 188.151 172.108 186.269 170.758 183.144C169.409 180.007 165.07 166.471 163.639 163.148C160.056 154.829 155.775 142.943 143.421 146.882Z" fill="url(#paint20_linear)"/>
<path d="M266.09 411.542C266.09 411.542 268.056 417.352 265.648 418.607C263.228 419.861 259.47 420.57 256.434 419.234C253.387 417.898 252.142 416.55 248.92 416.55C245.697 416.55 233.169 410.381 230.749 407.348C228.329 404.304 230.749 400.818 236.74 401.272C242.731 401.713 251.327 402.433 252.851 402.968C254.375 403.491 266.09 411.542 266.09 411.542Z" fill="#10054D"/>
<path d="M263.414 415.83C257.784 416.492 255.992 414.935 250.792 413.866C245.604 412.797 230.842 406.814 231.11 403.514C231.377 400.203 234.774 400.911 237.636 401.179C240.497 401.446 249.629 402.073 250.339 402.073C251.06 402.073 265.915 408.777 265.915 408.777C265.915 408.777 266.985 413.599 266.008 414.319C265.019 415.028 264.926 415.655 263.414 415.83Z" fill="url(#paint21_linear)"/>
<path d="M274.279 291.72C274.279 291.72 277.629 298.958 274.419 311.425C271.196 323.892 267.439 338.636 267.299 354.46C267.16 370.285 269.044 411.171 266.625 413.459C264.205 415.737 255.713 416.515 252.258 413.994C246.663 409.893 243.673 404.072 244.208 402.062C244.743 400.052 249.036 392.813 247.558 386.376C246.081 379.94 241.114 357.679 242.056 342.539C242.998 327.389 245.546 287.839 245.546 287.839L274.279 291.72Z" fill="url(#paint22_linear)"/>
<path d="M260.541 166.622C256.981 168.365 253.375 171.269 253.2 180.204C253.026 189.139 252.933 193.438 254.724 194.6C256.516 195.761 257.853 194.6 258.214 197.098C258.575 199.596 257.853 203.709 257.853 203.709L277.362 199.328C277.362 199.328 276.024 196.203 277.269 192.985C278.525 189.766 284.155 183.515 279.863 174.302C275.582 165.112 264.752 164.565 260.541 166.622Z" fill="url(#paint23_radial)"/>
<path d="M253.026 174.221C252.968 175.928 254.015 178.694 256.423 178.868C258.842 179.042 260.006 181.912 259.47 183.248C258.935 184.584 259.296 184.945 259.296 184.945C259.296 184.945 261.087 184.224 261.89 185.665C262.693 187.094 261.623 190.138 261.087 191.3C260.552 192.462 264.577 196.04 267.893 196.308C271.208 196.575 275.675 196.215 277.106 194.518C278.537 192.822 283.818 187.094 281.933 177.985C280.049 168.864 271.638 163.415 263.856 164.937C256.074 166.448 253.119 171.815 253.026 174.221Z" fill="#383F47"/>
<path d="M236.542 208.17C236.542 208.17 234.064 209.983 234.506 213.375C234.948 216.768 238.171 221.961 238.171 221.961L272.092 220.079C272.092 220.079 298.243 218.964 297.079 208.31C295.974 198.155 289.006 198.62 273.884 202.558C258.761 206.485 252.851 207.113 247.931 207.566C242.998 208.007 236.542 208.17 236.542 208.17Z" fill="url(#paint24_linear)"/>
<path d="M254.666 208.751C254.666 208.751 256.783 201.396 261.169 200.502C265.554 199.607 269.405 200.142 272.36 198.806C275.314 197.469 276.908 194.948 276.908 194.948C276.908 194.948 280.281 195.878 277.78 198.922C275.279 201.966 254.666 208.751 254.666 208.751Z" fill="url(#paint25_linear)"/>
<path d="M236.065 218.046C237.368 220.579 238.171 221.95 238.171 221.95L272.092 220.068C272.092 220.068 298.15 218.952 297.079 208.356C290.821 209.89 275.058 216.315 260.704 217.093C247.558 217.802 239.485 217.999 236.065 218.046Z" fill="#D1D3D4"/>
<path d="M255.666 289.198L245.546 287.827C245.546 287.827 242.998 327.377 242.056 342.528C241.114 357.679 246.081 379.94 247.558 386.365C249.036 392.802 244.743 400.04 244.208 402.05C243.72 403.886 246.174 408.882 250.85 412.855C250.106 404.385 250.816 395.567 251.316 389.548C251.897 382.577 246.663 357.307 248.117 342.203C249.385 329.074 254.398 297.238 255.666 289.198Z" fill="#383F47" fill-opacity="0.1"/>
<path d="M270.929 201.838C274.954 200.502 279.165 197.992 279.165 197.992C279.165 197.992 285.354 197.899 288.936 198.434C292.519 198.968 297.975 202.28 297.615 208.983C297.254 215.687 295.811 224.274 293.566 233.661C291.333 243.049 291.414 249.835 293.124 259.222C294.823 268.61 300.732 289.164 300.278 291.406C299.836 293.637 294.73 301.595 283.004 305.708C271.278 309.821 251.77 310.797 243.894 301.781C236.019 292.754 246.209 261.662 246.663 246.465C247.105 231.268 241.568 224.913 248.012 217.047C254.457 209.181 261.704 204.441 265.822 203.372C269.94 202.291 270.929 201.838 270.929 201.838Z" fill="url(#paint26_linear)"/>
<path d="M254.108 209.262C255.992 206.764 259.75 203.36 263.239 202.919C266.729 202.477 273.465 201.106 275.71 199.456C278.281 197.574 278.572 195.971 278.572 195.971L283.806 197.911C283.806 197.911 284.26 204.15 276.92 206.381C269.579 208.612 261.308 208.507 255.981 211.609C250.955 214.526 247.849 217.395 247.849 217.395L254.108 209.262Z" fill="#D1D3D4"/>
<path d="M254.108 209.262C255.992 206.764 259.75 203.36 263.239 202.919C266.729 202.477 273.465 201.106 275.71 199.456C278.281 197.574 278.572 195.971 278.572 195.971L283.806 197.911C283.806 197.911 283.736 203.011 276.396 205.242C269.056 207.473 259.482 208.1 254.829 211.586C250.176 215.072 247.849 217.395 247.849 217.395L254.108 209.262Z" fill="url(#paint27_linear)"/>
<path d="M283.271 197.713C283.155 198.747 282.271 202.86 275.884 204.812C268.544 207.043 258.97 207.671 254.317 211.156C252.561 212.469 251.141 213.619 250.048 214.537L247.838 217.407C247.838 217.407 250.164 215.083 254.817 211.598C259.47 208.112 269.044 207.485 276.385 205.254C283.725 203.023 283.795 197.923 283.795 197.923L283.271 197.713Z" fill="url(#paint28_radial)"/>
<path d="M163.418 127.456L161.894 130.767C161.894 130.767 166.454 138.273 169.863 140.422C173.26 142.571 177.285 144.976 178.448 143.28C179.611 141.584 180.867 136.936 180.867 136.936L163.418 127.456Z" fill="url(#paint29_radial)"/>
<path d="M163.244 129.245L165.128 129.338C165.128 129.338 170.852 135.949 174.341 137.378C177.831 138.807 181.228 138.981 182.752 136.576C184.276 134.16 186.509 119.416 185.253 113.606C183.997 107.797 175.772 96.806 163.779 104.753C151.785 112.712 160.289 126.747 160.731 127.188C161.185 127.63 163.244 129.245 163.244 129.245Z" fill="url(#paint30_radial)"/>
<path d="M160.731 127.421C160.731 127.421 158.986 123.447 160.556 122.274C160.789 122.099 161.022 121.995 161.254 121.914C162.115 121.646 163.058 121.995 163.674 122.669L165.338 124.47C165.338 124.47 165.628 122.587 166.466 119.055C167.001 116.778 169.863 114.768 175.772 115.303C178.913 115.593 182.845 117.185 184.985 115.477C187.137 113.78 185.439 110.109 184.357 108.32C183.287 106.53 173.166 96.143 162.522 103.742C151.867 111.341 157.869 124.609 160.731 127.421Z" fill="#383F47"/>
<path d="M262.367 222.542C257.342 215.072 250.083 221.055 244.883 226.121C244.976 231.175 246.942 237.159 246.663 246.453C246.221 261.651 236.019 292.742 243.894 301.77C247.698 306.127 254.212 308.148 261.25 308.613C260.645 305.139 260.099 300.968 259.901 296.321C259.319 283.25 263.251 275.988 264.845 258.421C266.438 240.842 268.916 232.279 262.367 222.542Z" fill="#383F47" fill-opacity="0.1"/>
<path d="M282.05 178.717C280.421 180.065 277.594 181.668 272.837 182.551C267.881 183.481 262.995 182.702 259.494 181.773C259.622 182.319 259.622 182.842 259.459 183.237C258.924 184.573 259.284 184.933 259.284 184.933C259.284 184.933 261.076 184.213 261.878 185.653C262.681 187.082 261.611 190.126 261.076 191.288C260.541 192.45 264.566 196.029 267.881 196.296C271.196 196.563 275.663 196.203 277.094 194.507C278.49 192.868 283.504 187.396 282.05 178.717Z" fill="#383F47"/>
<path d="M250.501 334.29V371.969L255.015 369.344V331.537L250.501 334.29Z" fill="url(#paint31_linear)"/>
<path d="M250.525 334.29V371.969L204.645 345.618V307.811L250.525 334.29Z" fill="url(#paint32_linear)"/>
<path d="M229.69 347.628V350.15C229.69 351.102 228.655 351.695 227.829 351.23L224.328 349.22C223.595 348.802 223.141 348.012 223.141 347.175V345.293C223.141 344.34 224.176 343.736 225.002 344.224L229.074 346.571C229.458 346.769 229.69 347.187 229.69 347.628Z" fill="url(#paint33_linear)"/>
<path d="M250.525 334.29V345.758C250.525 347.21 249.35 348.384 247.884 348.384H229.237C227.178 348.384 225.235 347.454 223.955 345.839L206.913 324.496C205.448 322.66 204.645 320.383 204.645 318.036V307.811L250.525 334.29Z" fill="url(#paint34_linear)"/>
<path d="M250.525 334.29V345.758C250.525 347.21 249.35 348.384 247.884 348.384H229.237C227.178 348.384 225.235 347.454 223.955 345.839L206.913 324.496C205.448 322.66 204.645 320.383 204.645 318.036V307.811L250.525 334.29Z" fill="url(#paint35_radial)"/>
<path d="M204.645 307.811L250.525 334.29L255.015 331.537L209.1 305.104L204.645 307.811Z" fill="url(#paint36_linear)"/>
<path d="M233.297 311.285L227.364 307.87C225.91 307.033 224.595 306.975 223.653 307.544L222.176 308.276L222.385 309.392C222.269 309.81 222.21 310.275 222.21 310.797V314.643L223.525 315.398L223.874 317.257L225.398 316.479V313.017C225.398 311.39 226.549 310.739 227.969 311.553L232.645 314.248C234.064 315.061 235.216 317.048 235.216 318.675V322.137L236.647 322.962L236.891 324.751L238.415 323.973V320.127C238.438 316.897 236.135 312.924 233.297 311.285Z" fill="url(#paint37_linear)"/>
<path d="M220.698 311.576V315.422L223.897 317.269V313.807C223.897 312.18 225.049 311.518 226.468 312.343L231.145 315.038C232.564 315.863 233.715 317.838 233.715 319.465V322.927L236.914 324.775V320.929C236.914 317.676 234.611 313.702 231.773 312.064L225.84 308.648C223.002 307.01 220.698 308.311 220.698 311.576Z" fill="url(#paint38_linear)"/>
<path d="M250.618 347.013L250.978 334.523L255.015 331.537L250.397 333.582L218.988 316.142L249.966 334.302L250.618 347.013Z" fill="url(#paint39_radial)"/>
<path d="M231.866 294.276C231.866 294.276 226.852 300.422 224.56 304.605C223.339 306.847 223.385 307.265 223.932 311.89C224.188 314.051 224.607 315.619 225.77 315.759C226.305 315.828 225.968 314.55 225.968 314.55C225.968 314.55 226.166 316.676 227.573 317.013C228.981 317.35 228.248 315.654 228.248 315.654C228.248 315.654 228.632 317.931 230.051 318.175C231.459 318.419 230.679 316.63 230.679 316.63C230.679 316.63 231.156 319.023 232.285 319.418C233.413 319.813 233.587 319.093 233.587 317.443C233.587 315.515 234.425 313.818 236.158 310.739C237.996 307.474 239.555 306.011 239.357 302.932C239.16 299.853 241.707 297.262 241.707 297.262L231.866 294.276Z" fill="url(#paint40_radial)"/>
<path d="M250.734 218.185C256.993 216.001 263.123 219.87 264.647 226.4C266.171 232.929 262.949 257.689 260.436 264.567C257.935 271.445 242.359 302.281 242.359 302.281C242.359 302.281 236.903 301.561 233.494 300.05C230.098 298.528 228.481 295.403 228.481 295.403C228.481 295.403 239.218 268.854 241.277 262.685C243.336 256.515 242.591 240.865 243.243 233.905C244.045 225.447 244.697 220.3 250.734 218.185Z" fill="url(#paint41_linear)"/>
<path d="M211.95 213.015C211.287 213.794 211.671 215.536 213.905 215.722C216.138 215.92 220.977 215.385 222.827 215.385C224.665 215.385 233.634 211.9 233.634 211.9L211.95 213.015Z" fill="#D1D3D4"/>
<path d="M222.932 209.007C220.78 210.238 217.441 210.912 215.696 211.807C213.94 212.701 212.392 212.202 211.95 213.015C211.508 213.828 211.811 216.001 216.196 215.025C220.582 214.061 223.06 213.41 225.677 213.515C228.295 213.619 233.355 213.55 234.309 212.132C235.263 210.715 233.448 208.798 233.448 208.798L222.932 209.007Z" fill="url(#paint42_radial)"/>
<path d="M208.205 221.462C207.762 220.637 212.148 220.8 213.463 221.299C214.777 221.799 219.36 223.635 220.454 224.343C221.21 224.831 222.257 225.633 219.43 225.796C214.021 226.109 209.81 224.471 208.205 221.462Z" fill="url(#paint43_radial)"/>
<defs>
<radialGradient id="paint0_radial" cx="0" cy="0" r="1" gradientUnits="userSpaceOnUse" gradientTransform="translate(250.018 310.581) scale(15.4776 15.4585)">
<stop offset="0.0303" stop-color="#FEDFCB"/>
<stop offset="0.7778" stop-color="#F9B69E"/>
<stop offset="0.9949" stop-color="#F2A78C"/>
</radialGradient>
<linearGradient id="paint1_linear" x1="279.262" y1="394.211" x2="279.262" y2="376.638" gradientUnits="userSpaceOnUse">
<stop offset="0.0909" stop-color="#25054D"/>
<stop offset="0.4708" stop-color="#330A68"/>
<stop offset="0.8939" stop-color="#45108A"/>
</linearGradient>
<linearGradient id="paint2_linear" x1="269.837" y1="343.624" x2="296.303" y2="343.624" gradientUnits="userSpaceOnUse">
<stop offset="0.0354" stop-color="#138BBD"/>
<stop offset="0.2257" stop-color="#169AC7"/>
<stop offset="0.5946" stop-color="#1FC3DF"/>
<stop offset="1" stop-color="#2AF6FF"/>
</linearGradient>
<radialGradient id="paint3_radial" cx="0" cy="0" r="1" gradientUnits="userSpaceOnUse" gradientTransform="translate(235.304 226.753) rotate(4.43943) scale(19.9181 19.894)">
<stop offset="0.0303" stop-color="#FEDFCB"/>
<stop offset="0.7778" stop-color="#F9B69E"/>
<stop offset="0.9949" stop-color="#F2A78C"/>
</radialGradient>
<linearGradient id="paint4_linear" x1="171.473" y1="329.646" x2="206.664" y2="329.646" gradientUnits="userSpaceOnUse">
<stop offset="0.0909" stop-color="#25054D"/>
<stop offset="0.4708" stop-color="#330A68"/>
<stop offset="0.8939" stop-color="#45108A"/>
</linearGradient>
<linearGradient id="paint5_linear" x1="143.206" y1="347.47" x2="172.653" y2="347.47" gradientUnits="userSpaceOnUse">
<stop offset="0.0909" stop-color="#25054D"/>
<stop offset="0.4708" stop-color="#330A68"/>
<stop offset="0.8939" stop-color="#45108A"/>
</linearGradient>
<linearGradient id="paint6_linear" x1="170.794" y1="274.32" x2="193.891" y2="274.32" gradientUnits="userSpaceOnUse">
<stop offset="0.0354" stop-color="#6B24D6"/>
<stop offset="0.2945" stop-color="#7733DC"/>
<stop offset="0.7943" stop-color="#975CED"/>
<stop offset="1" stop-color="#A56EF4"/>
</linearGradient>
<linearGradient id="paint7_linear" x1="141.804" y1="282.506" x2="173.961" y2="282.506" gradientUnits="userSpaceOnUse">
<stop offset="0.0354" stop-color="#6B24D6"/>
<stop offset="0.2945" stop-color="#7733DC"/>
<stop offset="0.7943" stop-color="#975CED"/>
<stop offset="1" stop-color="#A56EF4"/>
</linearGradient>
<linearGradient id="paint8_linear" x1="169.911" y1="166.852" x2="191.8" y2="150.754" gradientUnits="userSpaceOnUse">
<stop offset="0.0354" stop-color="#9D9EB3"/>
<stop offset="0.5808" stop-color="#D4D1D8"/>
<stop offset="1" stop-color="#EEEBF2"/>
</linearGradient>
<linearGradient id="paint9_linear" x1="177.131" y1="172.591" x2="190.306" y2="164.444" gradientUnits="userSpaceOnUse">
<stop offset="0.0354" stop-color="#9F19AB"/>
<stop offset="0.2438" stop-color="#AE25B1"/>
<stop offset="0.6455" stop-color="#D744BF"/>
<stop offset="1" stop-color="#FF63CE"/>
</linearGradient>
<linearGradient id="paint10_linear" x1="177.487" y1="180.55" x2="217.231" y2="181.715" gradientUnits="userSpaceOnUse">
<stop offset="0.0354" stop-color="#6B24D6"/>
<stop offset="0.2945" stop-color="#7733DC"/>
<stop offset="0.7943" stop-color="#975CED"/>
<stop offset="1" stop-color="#A56EF4"/>
</linearGradient>
<linearGradient id="paint11_linear" x1="177.648" y1="160.125" x2="191.884" y2="160.125" gradientUnits="userSpaceOnUse">
<stop offset="0.0354" stop-color="#6B24D6"/>
<stop offset="0.2945" stop-color="#7733DC"/>
<stop offset="0.7943" stop-color="#975CED"/>
<stop offset="1" stop-color="#A56EF4"/>
</linearGradient>
<linearGradient id="paint12_linear" x1="155.684" y1="148.419" x2="178.645" y2="136.269" gradientUnits="userSpaceOnUse">
<stop offset="0.0354" stop-color="#9D9EB3"/>
<stop offset="0.5808" stop-color="#D4D1D8"/>
<stop offset="1" stop-color="#EEEBF2"/>
</linearGradient>
<linearGradient id="paint13_linear" x1="138.789" y1="189.787" x2="194.405" y2="179.787" gradientUnits="userSpaceOnUse">
<stop offset="0.0354" stop-color="#6B24D6"/>
<stop offset="0.2945" stop-color="#7733DC"/>
<stop offset="0.7943" stop-color="#975CED"/>
<stop offset="1" stop-color="#A56EF4"/>
</linearGradient>
<linearGradient id="paint14_linear" x1="150.22" y1="171.3" x2="175.028" y2="160.822" gradientUnits="userSpaceOnUse">
<stop offset="0.0354" stop-color="#6B24D6"/>
<stop offset="0.2945" stop-color="#7733DC"/>
<stop offset="0.7943" stop-color="#975CED"/>
<stop offset="1" stop-color="#A56EF4"/>
</linearGradient>
<radialGradient id="paint15_radial" cx="0" cy="0" r="1" gradientUnits="userSpaceOnUse" gradientTransform="translate(159 167.178) scale(20.3734 20.3485)">
<stop stop-color="white"/>
<stop offset="1"/>
</radialGradient>
<linearGradient id="paint16_linear" x1="142.918" y1="213.994" x2="167.347" y2="211.664" gradientUnits="userSpaceOnUse">
<stop offset="0.0354" stop-color="#6B24D6"/>
<stop offset="0.2945" stop-color="#7733DC"/>
<stop offset="0.7943" stop-color="#975CED"/>
<stop offset="1" stop-color="#A56EF4"/>
</linearGradient>
<linearGradient id="paint17_linear" x1="197.251" y1="210.938" x2="205.144" y2="210.938" gradientUnits="userSpaceOnUse">
<stop offset="0.0354" stop-color="#6B24D6"/>
<stop offset="0.2945" stop-color="#7733DC"/>
<stop offset="0.7943" stop-color="#975CED"/>
<stop offset="1" stop-color="#A56EF4"/>
</linearGradient>
<radialGradient id="paint18_radial" cx="0" cy="0" r="1" gradientUnits="userSpaceOnUse" gradientTransform="translate(222.771 208.217) scale(24.0492 24.0199)">
<stop offset="0.0303" stop-color="#FEDFCB"/>
<stop offset="1" stop-color="#F9B69E"/>
</radialGradient>
<radialGradient id="paint19_radial" cx="0" cy="0" r="1" gradientUnits="userSpaceOnUse" gradientTransform="translate(229.217 197.45) scale(37.3558 37.3102)">
<stop offset="0.0303" stop-color="#FEDFCB"/>
<stop offset="0.7778" stop-color="#F9B69E"/>
<stop offset="0.9949" stop-color="#F2A78C"/>
</radialGradient>
<linearGradient id="paint20_linear" x1="108.948" y1="185.461" x2="193.631" y2="181.326" gradientUnits="userSpaceOnUse">
<stop offset="0.0354" stop-color="#6B24D6"/>
<stop offset="0.2945" stop-color="#7733DC"/>
<stop offset="0.7943" stop-color="#975CED"/>
<stop offset="1" stop-color="#A56EF4"/>
</linearGradient>
<linearGradient id="paint21_linear" x1="246.916" y1="413.715" x2="253.88" y2="393.235" gradientUnits="userSpaceOnUse">
<stop offset="0.0909" stop-color="#25054D"/>
<stop offset="0.4708" stop-color="#330A68"/>
<stop offset="0.8939" stop-color="#45108A"/>
</linearGradient>
<linearGradient id="paint22_linear" x1="241.947" y1="351.697" x2="275.814" y2="351.697" gradientUnits="userSpaceOnUse">
<stop offset="0.0354" stop-color="#138BBD"/>
<stop offset="0.2257" stop-color="#169AC7"/>
<stop offset="0.5946" stop-color="#1FC3DF"/>
<stop offset="1" stop-color="#2AF6FF"/>
</linearGradient>
<radialGradient id="paint23_radial" cx="0" cy="0" r="1" gradientUnits="userSpaceOnUse" gradientTransform="translate(258.3 181.784) scale(23.5745 23.5457)">
<stop offset="0.0303" stop-color="#FEDFCB"/>
<stop offset="1" stop-color="#F9B69E"/>
</radialGradient>
<linearGradient id="paint24_linear" x1="234.447" y1="210.957" x2="297.113" y2="210.957" gradientUnits="userSpaceOnUse">
<stop offset="0.0354" stop-color="#138BBD"/>
<stop offset="0.2257" stop-color="#169AC7"/>
<stop offset="0.5946" stop-color="#1FC3DF"/>
<stop offset="1" stop-color="#2AF6FF"/>
</linearGradient>
<linearGradient id="paint25_linear" x1="270.021" y1="208.518" x2="265.086" y2="199.751" gradientUnits="userSpaceOnUse">
<stop offset="0.0354" stop-color="#9D9EB3"/>
<stop offset="0.5808" stop-color="#D4D1D8"/>
<stop offset="1" stop-color="#EEEBF2"/>
</linearGradient>
<linearGradient id="paint26_linear" x1="240.923" y1="253.363" x2="300.303" y2="253.363" gradientUnits="userSpaceOnUse">
<stop offset="0.0354" stop-color="#138BBD"/>
<stop offset="0.2257" stop-color="#169AC7"/>
<stop offset="0.5946" stop-color="#1FC3DF"/>
<stop offset="1" stop-color="#2AF6FF"/>
</linearGradient>
<linearGradient id="paint27_linear" x1="256.414" y1="232.154" x2="270.924" y2="194.768" gradientUnits="userSpaceOnUse">
<stop offset="0.0354" stop-color="#138BBD"/>
<stop offset="0.2257" stop-color="#169AC7"/>
<stop offset="0.5946" stop-color="#1FC3DF"/>
<stop offset="1" stop-color="#2AF6FF"/>
</linearGradient>
<radialGradient id="paint28_radial" cx="0" cy="0" r="1" gradientUnits="userSpaceOnUse" gradientTransform="translate(267.415 209.877) scale(14.4985 14.4807)">
<stop stop-color="white"/>
<stop offset="1"/>
</radialGradient>
<radialGradient id="paint29_radial" cx="0" cy="0" r="1" gradientUnits="userSpaceOnUse" gradientTransform="translate(187.558 120.375) scale(26.3652 26.333)">
<stop offset="0.0303" stop-color="#FEDFCB"/>
<stop offset="1" stop-color="#F9B69E"/>
</radialGradient>
<radialGradient id="paint30_radial" cx="0" cy="0" r="1" gradientUnits="userSpaceOnUse" gradientTransform="translate(182.904 120.593) scale(28.1229 28.0886)">
<stop offset="0.0303" stop-color="#FEDFCB"/>
<stop offset="1" stop-color="#F9B69E"/>
</radialGradient>
<linearGradient id="paint31_linear" x1="248.425" y1="353.048" x2="277.709" y2="344.268" gradientUnits="userSpaceOnUse">
<stop offset="0.0909" stop-color="#25054D"/>
<stop offset="0.4708" stop-color="#330A68"/>
<stop offset="0.8939" stop-color="#45108A"/>
</linearGradient>
<linearGradient id="paint32_linear" x1="181.259" y1="350.262" x2="332.236" y2="316.377" gradientUnits="userSpaceOnUse">
<stop offset="0.0909" stop-color="#25054D"/>
<stop offset="0.4708" stop-color="#330A68"/>
<stop offset="0.8939" stop-color="#45108A"/>
</linearGradient>
<linearGradient id="paint33_linear" x1="216.506" y1="349.931" x2="236.878" y2="345.358" gradientUnits="userSpaceOnUse">
<stop offset="0.0354" stop-color="#FFA98C"/>
<stop offset="0.3169" stop-color="#FFB892"/>
<stop offset="0.8601" stop-color="#FEE1A3"/>
<stop offset="1" stop-color="#FEECA8"/>
</linearGradient>
<linearGradient id="paint34_linear" x1="163.008" y1="342.295" x2="295.484" y2="312.562" gradientUnits="userSpaceOnUse">
<stop offset="0.0909" stop-color="#25054D"/>
<stop offset="0.4708" stop-color="#330A68"/>
<stop offset="0.8939" stop-color="#45108A"/>
</linearGradient>
<radialGradient id="paint35_radial" cx="0" cy="0" r="1" gradientUnits="userSpaceOnUse" gradientTransform="translate(216.445 360.959) scale(26.5848 26.5524)">
<stop stop-color="white"/>
<stop offset="1"/>
</radialGradient>
<linearGradient id="paint36_linear" x1="236.12" y1="307.697" x2="228.934" y2="321.409" gradientUnits="userSpaceOnUse">
<stop offset="0.0909" stop-color="#25054D"/>
<stop offset="0.4708" stop-color="#330A68"/>
<stop offset="0.8939" stop-color="#45108A"/>
</linearGradient>
<linearGradient id="paint37_linear" x1="234.604" y1="324.186" x2="227.831" y2="311.592" gradientUnits="userSpaceOnUse">
<stop offset="0.0909" stop-color="#25054D"/>
<stop offset="0.4708" stop-color="#330A68"/>
<stop offset="0.8939" stop-color="#45108A"/>
</linearGradient>
<linearGradient id="paint38_linear" x1="202.622" y1="308.608" x2="252.083" y2="301.019" gradientUnits="userSpaceOnUse">
<stop offset="0.0909" stop-color="#25054D"/>
<stop offset="0.4708" stop-color="#330A68"/>
<stop offset="0.8939" stop-color="#45108A"/>
</linearGradient>
<radialGradient id="paint39_radial" cx="0" cy="0" r="1" gradientUnits="userSpaceOnUse" gradientTransform="translate(237 331.579) scale(16.7791 16.7586)">
<stop stop-color="white"/>
<stop offset="1"/>
</radialGradient>
<radialGradient id="paint40_radial" cx="0" cy="0" r="1" gradientUnits="userSpaceOnUse" gradientTransform="translate(226.096 300.927) rotate(6.43426) scale(16.4574 16.4378)">
<stop offset="0.0303" stop-color="#FEDFCB"/>
<stop offset="1" stop-color="#F9B69E"/>
</radialGradient>
<linearGradient id="paint41_linear" x1="228.492" y1="259.934" x2="265.039" y2="259.934" gradientUnits="userSpaceOnUse">
<stop offset="0.0354" stop-color="#138BBD"/>
<stop offset="0.2257" stop-color="#169AC7"/>
<stop offset="0.5946" stop-color="#1FC3DF"/>
<stop offset="1" stop-color="#2AF6FF"/>
</linearGradient>
<radialGradient id="paint42_radial" cx="0" cy="0" r="1" gradientUnits="userSpaceOnUse" gradientTransform="translate(211.547 199.59) rotate(4.43943) scale(22.3283 22.3013)">
<stop offset="0.0303" stop-color="#FEDFCB"/>
<stop offset="1" stop-color="#F9B69E"/>
</radialGradient>
<radialGradient id="paint43_radial" cx="0" cy="0" r="1" gradientUnits="userSpaceOnUse" gradientTransform="translate(216.894 219.676) scale(10.8055 10.7923)">
<stop offset="0.0303" stop-color="#FEDFCB"/>
<stop offset="1" stop-color="#F9B69E"/>
</radialGradient>
</defs>
</svg>
