<svg width="136" height="96" viewBox="0 0 136 96" fill="none" xmlns="http://www.w3.org/2000/svg">
<g filter="url(#filter0_d)">
<path fill-rule="evenodd" clip-rule="evenodd" d="M12 12C12 7.58172 15.5817 4 20 4H106C110.418 4 114 7.58172 114 12V14.6198C113.99 14.6196 113.979 14.6195 113.969 14.6195C113.961 14.6194 113.954 14.6194 113.947 14.6194C111.601 14.6194 109.699 16.5212 109.699 18.8672C109.699 21.2132 111.601 23.115 113.947 23.115C113.955 23.115 113.963 23.115 113.971 23.1149C113.981 23.1149 113.99 23.1148 114 23.1147V31.6109C113.992 31.6108 113.985 31.6107 113.977 31.6106C113.967 31.6106 113.957 31.6105 113.947 31.6105C111.601 31.6105 109.699 33.5123 109.699 35.8583C109.699 38.2043 111.601 40.1061 113.947 40.1061C113.965 40.1061 113.982 40.106 114 40.1058V48.602C113.982 48.6018 113.965 48.6017 113.947 48.6017C111.601 48.6017 109.699 50.5035 109.699 52.8495C109.699 55.1955 111.601 57.0973 113.947 57.0973C113.965 57.0973 113.982 57.0972 114 57.0969V59C114 63.4183 110.418 67 106 67H20C15.5817 67 12 63.4183 12 59V57.0973C14.346 57.0973 16.2478 55.1955 16.2478 52.8495C16.2478 50.5035 14.346 48.6017 12 48.6017V40.1062C14.346 40.1062 16.2478 38.2044 16.2478 35.8584C16.2478 33.5124 14.346 31.6106 12 31.6106V23.115C14.346 23.115 16.2478 21.2132 16.2478 18.8673C16.2478 16.5213 14.346 14.6195 12 14.6195V12Z" fill="url(#paint0_linear)"/>
</g>
<path d="M87.3982 57.0974C86.8035 57.0974 86.3363 56.9867 86.3363 56.8457V53.0308C86.3363 52.8899 86.8035 52.7791 87.3982 52.7791C87.9929 52.7791 88.4602 52.8899 88.4602 53.0308V56.8457C88.4602 56.9867 87.9504 57.0974 87.3982 57.0974ZM87.3982 49.4675C86.8035 49.4675 86.3363 49.3567 86.3363 49.2158V45.4009C86.3363 45.2599 86.8035 45.1492 87.3982 45.1492C87.9929 45.1492 88.4602 45.2599 88.4602 45.4009V49.2158C88.4602 49.3567 87.9504 49.4675 87.3982 49.4675ZM87.3982 41.8376C86.8035 41.8376 86.3363 41.7268 86.3363 41.5859V37.771C86.3363 37.63 86.8035 37.5193 87.3982 37.5193C87.9929 37.5193 88.4602 37.63 88.4602 37.771V41.5859C88.4602 41.7268 87.9504 41.8376 87.3982 41.8376ZM87.3982 34.2076C86.8035 34.2076 86.3363 34.0969 86.3363 33.956V30.141C86.3363 30.0001 86.8035 29.8894 87.3982 29.8894C87.9929 29.8894 88.4602 30.0001 88.4602 30.141V33.956C88.4602 34.0868 87.9504 34.2076 87.3982 34.2076ZM87.3982 26.5777C86.8035 26.5777 86.3363 26.467 86.3363 26.3261V22.5111C86.3363 22.3702 86.8035 22.2595 87.3982 22.2595C87.9929 22.2595 88.4602 22.3702 88.4602 22.5111V26.3261C88.4602 26.4569 87.9504 26.5777 87.3982 26.5777ZM87.3982 18.9377C86.8035 18.9377 86.3363 18.827 86.3363 18.6861V14.8712C86.3363 14.7302 86.8035 14.6195 87.3982 14.6195C87.9929 14.6195 88.4602 14.7302 88.4602 14.8712V18.6861C88.4602 18.827 87.9504 18.9377 87.3982 18.9377Z" fill="white"/>
<g filter="url(#filter1_di)">
<mask id="path-3-inside-1" fill="white">
<path fill-rule="evenodd" clip-rule="evenodd" d="M30 29C30 24.5817 33.5817 21 38 21H124C128.418 21 132 24.5817 132 29V31.5003C131.982 31.5001 131.965 31.4999 131.947 31.4999C129.601 31.4999 127.699 33.3804 127.699 35.6999C127.699 38.0195 129.601 39.8999 131.947 39.8999C131.957 39.8999 131.967 39.8999 131.977 39.8998C131.984 39.8998 131.992 39.8997 132 39.8996V48.3004C131.993 48.3003 131.985 48.3002 131.978 48.3002C131.968 48.3001 131.957 48.3 131.947 48.3C129.601 48.3 127.699 50.1805 127.699 52.5C127.699 54.8196 129.601 56.7 131.947 56.7C131.965 56.7 131.982 56.6999 132 56.6997V65.1003C131.982 65.1001 131.965 65.1 131.947 65.1C129.601 65.1 127.699 66.9804 127.699 69.3C127.699 71.6196 129.601 73.5 131.947 73.5C131.965 73.5 131.982 73.4999 132 73.4997V76C132 80.4183 128.418 84 124 84H38C33.5817 84 30 80.4183 30 76V73.5C32.346 73.5 34.2478 71.6195 34.2478 69.3C34.2478 66.9804 32.346 65.1 30 65.1V56.7C32.346 56.7 34.2478 54.8196 34.2478 52.5C34.2478 50.1804 32.346 48.3 30 48.3V39.8999C32.346 39.8999 34.2478 38.0195 34.2478 35.6999C34.2478 33.3803 32.346 31.4999 30 31.4999V29Z"/>
</mask>
<path fill-rule="evenodd" clip-rule="evenodd" d="M30 29C30 24.5817 33.5817 21 38 21H124C128.418 21 132 24.5817 132 29V31.5003C131.982 31.5001 131.965 31.4999 131.947 31.4999C129.601 31.4999 127.699 33.3804 127.699 35.6999C127.699 38.0195 129.601 39.8999 131.947 39.8999C131.957 39.8999 131.967 39.8999 131.977 39.8998C131.984 39.8998 131.992 39.8997 132 39.8996V48.3004C131.993 48.3003 131.985 48.3002 131.978 48.3002C131.968 48.3001 131.957 48.3 131.947 48.3C129.601 48.3 127.699 50.1805 127.699 52.5C127.699 54.8196 129.601 56.7 131.947 56.7C131.965 56.7 131.982 56.6999 132 56.6997V65.1003C131.982 65.1001 131.965 65.1 131.947 65.1C129.601 65.1 127.699 66.9804 127.699 69.3C127.699 71.6196 129.601 73.5 131.947 73.5C131.965 73.5 131.982 73.4999 132 73.4997V76C132 80.4183 128.418 84 124 84H38C33.5817 84 30 80.4183 30 76V73.5C32.346 73.5 34.2478 71.6195 34.2478 69.3C34.2478 66.9804 32.346 65.1 30 65.1V56.7C32.346 56.7 34.2478 54.8196 34.2478 52.5C34.2478 50.1804 32.346 48.3 30 48.3V39.8999C32.346 39.8999 34.2478 38.0195 34.2478 35.6999C34.2478 33.3803 32.346 31.4999 30 31.4999V29Z" fill="url(#paint1_linear)"/>
<path d="M132 31.5003L131.988 32.5002L133 32.5124V31.5003H132ZM131.977 39.8998L131.983 40.8998H131.983L131.977 39.8998ZM132 39.8996H133V38.8876L131.988 38.8997L132 39.8996ZM132 48.3004L131.988 49.3003L133 49.3126V48.3004H132ZM131.978 48.3002L131.971 49.3001L131.971 49.3001L131.978 48.3002ZM132 56.6997H133V55.6876L131.988 55.6998L132 56.6997ZM132 65.1003L131.988 66.1002L133 66.1125V65.1003H132ZM132 73.4997H133V72.4875L131.988 72.4997L132 73.4997ZM30 73.5V72.5H29V73.5H30ZM30 65.1H29V66.1H30V65.1ZM30 56.7V55.7H29V56.7H30ZM30 48.3H29V49.3H30V48.3ZM30 39.8999V38.8999H29V39.8999H30ZM30 31.4999H29V32.4999H30V31.4999ZM38 20C33.0294 20 29 24.0294 29 29H31C31 25.134 34.134 22 38 22V20ZM124 20H38V22H124V20ZM133 29C133 24.0294 128.971 20 124 20V22C127.866 22 131 25.134 131 29H133ZM133 31.5003V29H131V31.5003H133ZM131.947 32.4999C131.961 32.4999 131.974 32.5 131.988 32.5002L132.012 30.5003C131.99 30.5001 131.969 30.4999 131.947 30.4999V32.4999ZM128.699 35.6999C128.699 33.9433 130.143 32.4999 131.947 32.4999V30.4999C129.059 30.4999 126.699 32.8174 126.699 35.6999H128.699ZM131.947 38.8999C130.143 38.8999 128.699 37.4566 128.699 35.6999H126.699C126.699 38.5825 129.059 40.8999 131.947 40.8999V38.8999ZM131.97 38.8999C131.962 38.8999 131.954 38.8999 131.947 38.8999V40.8999C131.959 40.8999 131.971 40.8999 131.983 40.8998L131.97 38.8999ZM131.988 38.8997C131.982 38.8998 131.976 38.8998 131.97 38.8999L131.983 40.8998C131.993 40.8998 132.003 40.8997 132.012 40.8996L131.988 38.8997ZM133 48.3004V39.8996H131V48.3004H133ZM131.971 49.3001C131.977 49.3002 131.982 49.3002 131.988 49.3003L132.012 47.3004C132.003 47.3003 131.994 47.3002 131.985 47.3002L131.971 49.3001ZM131.947 49.3C131.955 49.3 131.963 49.3001 131.971 49.3001L131.985 47.3002C131.972 47.3001 131.96 47.3 131.947 47.3V49.3ZM128.699 52.5C128.699 50.7434 130.143 49.3 131.947 49.3V47.3C129.059 47.3 126.699 49.6175 126.699 52.5H128.699ZM131.947 55.7C130.143 55.7 128.699 54.2567 128.699 52.5H126.699C126.699 55.3826 129.059 57.7 131.947 57.7V55.7ZM131.988 55.6998C131.974 55.7 131.961 55.7 131.947 55.7V57.7C131.969 57.7 131.99 57.6999 132.012 57.6997L131.988 55.6998ZM133 65.1003V56.6997H131V65.1003H133ZM131.947 66.1C131.961 66.1 131.974 66.1001 131.988 66.1002L132.012 64.1004C131.99 64.1001 131.969 64.1 131.947 64.1V66.1ZM128.699 69.3C128.699 67.5433 130.143 66.1 131.947 66.1V64.1C129.059 64.1 126.699 66.4175 126.699 69.3H128.699ZM131.947 72.5C130.143 72.5 128.699 71.0567 128.699 69.3H126.699C126.699 72.1825 129.059 74.5 131.947 74.5V72.5ZM131.988 72.4997C131.974 72.4999 131.961 72.5 131.947 72.5V74.5C131.969 74.5 131.99 74.4999 132.012 74.4996L131.988 72.4997ZM133 76V73.4997H131V76H133ZM124 85C128.971 85 133 80.9706 133 76H131C131 79.866 127.866 83 124 83V85ZM38 85H124V83H38V85ZM29 76C29 80.9706 33.0294 85 38 85V83C34.134 83 31 79.866 31 76H29ZM29 73.5V76H31V73.5H29ZM33.2478 69.3C33.2478 71.0566 31.8044 72.5 30 72.5V74.5C32.8876 74.5 35.2478 72.1825 35.2478 69.3H33.2478ZM30 66.1C31.8044 66.1 33.2478 67.5433 33.2478 69.3H35.2478C35.2478 66.4174 32.8876 64.1 30 64.1V66.1ZM29 56.7V65.1H31V56.7H29ZM33.2478 52.5C33.2478 54.2567 31.8044 55.7 30 55.7V57.7C32.8876 57.7 35.2478 55.3825 35.2478 52.5H33.2478ZM30 49.3C31.8044 49.3 33.2478 50.7433 33.2478 52.5H35.2478C35.2478 49.6175 32.8876 47.3 30 47.3V49.3ZM29 39.8999V48.3H31V39.8999H29ZM33.2478 35.6999C33.2478 37.4566 31.8044 38.8999 30 38.8999V40.8999C32.8876 40.8999 35.2478 38.5824 35.2478 35.6999H33.2478ZM30 32.4999C31.8044 32.4999 33.2478 33.9432 33.2478 35.6999H35.2478C35.2478 32.8174 32.8876 30.4999 30 30.4999V32.4999ZM29 29V31.4999H31V29H29Z" fill="url(#paint2_linear)" mask="url(#path-3-inside-1)"/>
</g>
<path d="M105.398 73.4999C104.804 73.4999 104.336 73.3904 104.336 73.2511V69.479C104.336 69.3397 104.804 69.2302 105.398 69.2302C105.993 69.2302 106.46 69.3397 106.46 69.479V73.2511C106.46 73.3904 105.95 73.4999 105.398 73.4999ZM105.398 65.9558C104.804 65.9558 104.336 65.8463 104.336 65.707V61.9349C104.336 61.7956 104.804 61.6861 105.398 61.6861C105.993 61.6861 106.46 61.7956 106.46 61.9349V65.707C106.46 65.8463 105.95 65.9558 105.398 65.9558ZM105.398 58.4117C104.804 58.4117 104.336 58.3022 104.336 58.1629V54.3909C104.336 54.2515 104.804 54.1421 105.398 54.1421C105.993 54.1421 106.46 54.2515 106.46 54.3909V58.1629C106.46 58.3022 105.95 58.4117 105.398 58.4117ZM105.398 50.8676C104.804 50.8676 104.336 50.7582 104.336 50.6188V46.8468C104.336 46.7075 104.804 46.598 105.398 46.598C105.993 46.598 106.46 46.7075 106.46 46.8468V50.6188C106.46 50.7482 105.95 50.8676 105.398 50.8676ZM105.398 43.3236C104.804 43.3236 104.336 43.2141 104.336 43.0747V39.3027C104.336 39.1634 104.804 39.0539 105.398 39.0539C105.993 39.0539 106.46 39.1634 106.46 39.3027V43.0747C106.46 43.2041 105.95 43.3236 105.398 43.3236ZM105.398 35.7695C104.804 35.7695 104.336 35.6601 104.336 35.5207V31.7487C104.336 31.6094 104.804 31.4999 105.398 31.4999C105.993 31.4999 106.46 31.6094 106.46 31.7487V35.5207C106.46 35.6601 105.95 35.7695 105.398 35.7695Z" fill="white"/>
<rect x="45.9292" y="71.3999" width="42.4779" height="2.1" rx="1" fill="white"/>
<rect x="45.9292" y="60.8999" width="25.4867" height="2.1" rx="1" fill="white"/>
<defs>
<filter id="filter0_d" x="0" y="0" width="118" height="79" filterUnits="userSpaceOnUse" color-interpolation-filters="sRGB">
<feFlood flood-opacity="0" result="BackgroundImageFix"/>
<feColorMatrix in="SourceAlpha" type="matrix" values="0 0 0 0 0 0 0 0 0 0 0 0 0 0 0 0 0 0 127 0"/>
<feOffset dx="-4" dy="4"/>
<feGaussianBlur stdDeviation="4"/>
<feColorMatrix type="matrix" values="0 0 0 0 0 0 0 0 0 0 0 0 0 0 0 0 0 0 0.32 0"/>
<feBlend mode="normal" in2="BackgroundImageFix" result="effect1_dropShadow"/>
<feBlend mode="normal" in="SourceGraphic" in2="effect1_dropShadow" result="shape"/>
</filter>
<filter id="filter1_di" x="18" y="17" width="118" height="79" filterUnits="userSpaceOnUse" color-interpolation-filters="sRGB">
<feFlood flood-opacity="0" result="BackgroundImageFix"/>
<feColorMatrix in="SourceAlpha" type="matrix" values="0 0 0 0 0 0 0 0 0 0 0 0 0 0 0 0 0 0 127 0"/>
<feOffset dx="-4" dy="4"/>
<feGaussianBlur stdDeviation="4"/>
<feColorMatrix type="matrix" values="0 0 0 0 0 0 0 0 0 0 0 0 0 0 0 0 0 0 0.32 0"/>
<feBlend mode="normal" in2="BackgroundImageFix" result="effect1_dropShadow"/>
<feBlend mode="normal" in="SourceGraphic" in2="effect1_dropShadow" result="shape"/>
<feColorMatrix in="SourceAlpha" type="matrix" values="0 0 0 0 0 0 0 0 0 0 0 0 0 0 0 0 0 0 127 0" result="hardAlpha"/>
<feOffset dx="-5"/>
<feGaussianBlur stdDeviation="2"/>
<feComposite in2="hardAlpha" operator="arithmetic" k2="-1" k3="1"/>
<feColorMatrix type="matrix" values="0 0 0 0 1 0 0 0 0 0.915777 0 0 0 0 0.729167 0 0 0 1 0"/>
<feBlend mode="normal" in2="shape" result="effect2_innerShadow"/>
</filter>
<linearGradient id="paint0_linear" x1="66.0956" y1="-2.32616" x2="56.2742" y2="79.3445" gradientUnits="userSpaceOnUse">
<stop stop-color="#838DFA"/>
<stop offset="1" stop-color="#4681FF"/>
</linearGradient>
<linearGradient id="paint1_linear" x1="133.105" y1="44.5086" x2="22.036" y2="90.1447" gradientUnits="userSpaceOnUse">
<stop stop-color="#FFD578"/>
<stop offset="0.1626" stop-color="#FFD068"/>
<stop offset="0.4804" stop-color="#FFC33D"/>
<stop offset="0.5317" stop-color="#FFC136"/>
<stop offset="0.8564" stop-color="#FFB136"/>
<stop offset="1" stop-color="#FFA836"/>
</linearGradient>
<linearGradient id="paint2_linear" x1="80.9735" y1="21" x2="80.9735" y2="84" gradientUnits="userSpaceOnUse">
<stop stop-color="#F39B13"/>
<stop offset="1" stop-color="#F8C371"/>
</linearGradient>
</defs>
</svg>
