<svg width="127" height="102" viewBox="0 0 127 102" fill="none" xmlns="http://www.w3.org/2000/svg">
<g filter="url(#filter0_d)">
<path d="M113.359 90H13.6405C12.735 90 12 89.1359 12 88.0711V13.9289C12 12.8641 12.735 12 13.6405 12H113.359C114.265 12 115 12.8641 115 13.9289V88.075C115 89.1359 114.268 90 113.359 90Z" fill="url(#paint0_linear)"/>
</g>
<path d="M12 27V88.0765C12 89.1382 12.735 90 13.6405 90H113.359C114.265 90 115 89.1382 115 88.0765V27H12Z" fill="url(#paint1_linear)"/>
<path d="M17 21.5C17 20.1171 17.805 19 18.8014 19H108.199C109.195 19 110 20.1171 110 21.5C110 22.8829 109.195 24 108.199 24H18.8014C17.8082 24 17 22.8784 17 21.5Z" fill="#ECEDF1"/>
<path d="M17.9769 17.0102C18.4429 17.0102 18.8206 16.6324 18.8206 16.1664C18.8206 15.7004 18.4429 15.3226 17.9769 15.3226C17.5108 15.3226 17.1331 15.7004 17.1331 16.1664C17.1331 16.6324 17.5108 17.0102 17.9769 17.0102Z" fill="#FF91A4"/>
<path d="M22.7583 16.1664C22.7583 16.6318 22.38 17.0102 21.9145 17.0102C21.4491 17.0102 21.0707 16.6318 21.0707 16.1664C21.0707 15.701 21.4491 15.3227 21.9145 15.3227C22.38 15.3193 22.7583 15.6977 22.7583 16.1664Z" fill="#FFE465"/>
<path d="M25.8522 17.0102C26.3182 17.0102 26.696 16.6324 26.696 16.1664C26.696 15.7004 26.3182 15.3226 25.8522 15.3226C25.3862 15.3226 25.0084 15.7004 25.0084 16.1664C25.0084 16.6324 25.3862 17.0102 25.8522 17.0102Z" fill="#6DDAA8"/>
<g filter="url(#filter1_di)">
<mask id="path-7-inside-1" fill="white">
<path fill-rule="evenodd" clip-rule="evenodd" d="M25 38C25 35.7909 26.7909 34 29 34H72C74.2091 34 76 35.7909 76 38V39.2501L75.9734 39.2499C74.8005 39.2499 73.8496 40.1901 73.8496 41.3499C73.8496 42.5097 74.8005 43.4499 75.9734 43.4499L76 43.4498V47.6502L75.9735 47.65C74.8005 47.65 73.8496 48.5902 73.8496 49.75C73.8496 50.9098 74.8005 51.85 75.9735 51.85L76 51.8499V56.0501C75.9912 56.05 75.9823 56.05 75.9735 56.05C74.8005 56.05 73.8496 56.9902 73.8496 58.15C73.8496 59.3098 74.8005 60.25 75.9735 60.25C75.9823 60.25 75.9912 60.2499 76 60.2498V61.5C76 63.7091 74.2091 65.5 72 65.5H29C26.7909 65.5 25 63.7091 25 61.5L25 60.2499C26.173 60.2499 27.1239 59.3097 27.1239 58.1499C27.1239 56.9901 26.173 56.0499 25 56.0499V51.85C26.173 51.85 27.1239 50.9098 27.1239 49.75C27.1239 48.5902 26.173 47.65 25 47.65L25 43.4499C26.173 43.4499 27.1239 42.5097 27.1239 41.3499C27.1239 40.1901 26.173 39.2499 25 39.2499L25 38Z"/>
</mask>
<path fill-rule="evenodd" clip-rule="evenodd" d="M25 38C25 35.7909 26.7909 34 29 34H72C74.2091 34 76 35.7909 76 38V39.2501L75.9734 39.2499C74.8005 39.2499 73.8496 40.1901 73.8496 41.3499C73.8496 42.5097 74.8005 43.4499 75.9734 43.4499L76 43.4498V47.6502L75.9735 47.65C74.8005 47.65 73.8496 48.5902 73.8496 49.75C73.8496 50.9098 74.8005 51.85 75.9735 51.85L76 51.8499V56.0501C75.9912 56.05 75.9823 56.05 75.9735 56.05C74.8005 56.05 73.8496 56.9902 73.8496 58.15C73.8496 59.3098 74.8005 60.25 75.9735 60.25C75.9823 60.25 75.9912 60.2499 76 60.2498V61.5C76 63.7091 74.2091 65.5 72 65.5H29C26.7909 65.5 25 63.7091 25 61.5L25 60.2499C26.173 60.2499 27.1239 59.3097 27.1239 58.1499C27.1239 56.9901 26.173 56.0499 25 56.0499V51.85C26.173 51.85 27.1239 50.9098 27.1239 49.75C27.1239 48.5902 26.173 47.65 25 47.65L25 43.4499C26.173 43.4499 27.1239 42.5097 27.1239 41.3499C27.1239 40.1901 26.173 39.2499 25 39.2499L25 38Z" fill="url(#paint2_linear)"/>
<path d="M25 38L26 38V38H25ZM76 39.2501L75.994 40.2501L77 40.2562V39.2501H76ZM75.9734 39.2499L75.9795 38.2499H75.9734V39.2499ZM75.9734 43.4499V44.45L75.9795 44.4499L75.9734 43.4499ZM76 43.4498H77V42.4437L75.9939 42.4498L76 43.4498ZM76 47.6502L75.9939 48.6502L77 48.6563V47.6502H76ZM75.9735 47.65L75.9795 46.65H75.9735V47.65ZM75.9735 51.85V52.85L75.9795 52.85L75.9735 51.85ZM76 51.8499H77V50.8438L75.994 50.8499L76 51.8499ZM76 56.0501L75.9879 57.05L77 57.0623V56.0501H76ZM76 60.2498H77V59.2376L75.9879 59.2499L76 60.2498ZM25 61.5H26V61.5L25 61.5ZM25 60.2499V59.2499H24L24 60.2499L25 60.2499ZM25 56.0499H24V57.0499H25V56.0499ZM25 51.85V50.85H24V51.85H25ZM25 47.65L24 47.65L24 48.65H25V47.65ZM25 43.4499V42.4499H24L24 43.4499L25 43.4499ZM25 39.2499L24 39.2499L24 40.2499H25V39.2499ZM29 33C26.2386 33 24 35.2386 24 38H26C26 36.3431 27.3432 35 29 35V33ZM72 33H29V35H72V33ZM77 38C77 35.2386 74.7614 33 72 33V35C73.6569 35 75 36.3431 75 38H77ZM77 39.2501V38H75V39.2501H77ZM75.9674 40.2499L75.994 40.2501L76.0061 38.2501L75.9795 38.25L75.9674 40.2499ZM74.8496 41.3499C74.8496 40.7531 75.342 40.2499 75.9734 40.2499V38.2499C74.2589 38.2499 72.8496 39.6272 72.8496 41.3499H74.8496ZM75.9734 42.4499C75.342 42.4499 74.8496 41.9468 74.8496 41.3499H72.8496C72.8496 43.0727 74.2589 44.4499 75.9734 44.4499V42.4499ZM75.9939 42.4498L75.9674 42.45L75.9795 44.4499L76.0061 44.4498L75.9939 42.4498ZM77 47.6502V43.4498H75V47.6502H77ZM75.9674 48.65L75.9939 48.6502L76.0061 46.6502L75.9795 46.65L75.9674 48.65ZM74.8496 49.75C74.8496 49.1531 75.342 48.65 75.9735 48.65V46.65C74.2589 46.65 72.8496 48.0273 72.8496 49.75H74.8496ZM75.9735 50.85C75.342 50.85 74.8496 50.3469 74.8496 49.75H72.8496C72.8496 51.4727 74.2589 52.85 75.9735 52.85V50.85ZM75.994 50.8499L75.9674 50.85L75.9795 52.85L76.006 52.8498L75.994 50.8499ZM77 56.0501V51.8499H75V56.0501H77ZM75.9735 57.05C75.9783 57.05 75.9831 57.05 75.9879 57.05L76.0121 55.0502C75.9992 55.05 75.9863 55.05 75.9735 55.05V57.05ZM74.8496 58.15C74.8496 57.5531 75.342 57.05 75.9735 57.05V55.05C74.2589 55.05 72.8496 56.4272 72.8496 58.15H74.8496ZM75.9735 59.25C75.342 59.25 74.8496 58.7468 74.8496 58.15H72.8496C72.8496 59.8727 74.2589 61.25 75.9735 61.25V59.25ZM75.9879 59.2499C75.9831 59.2499 75.9783 59.25 75.9735 59.25V61.25C75.9863 61.25 75.9992 61.2499 76.0121 61.2497L75.9879 59.2499ZM77 61.5V60.2498H75V61.5H77ZM72 66.5C74.7614 66.5 77 64.2614 77 61.5H75C75 63.1569 73.6569 64.5 72 64.5V66.5ZM29 66.5H72V64.5H29V66.5ZM24 61.5C24 64.2614 26.2386 66.5 29 66.5V64.5C27.3431 64.5 26 63.1569 26 61.5H24ZM24 60.2499L24 61.5L26 61.5L26 60.2499L24 60.2499ZM26.1239 58.1499C26.1239 58.7468 25.6314 59.2499 25 59.2499V61.2499C26.7146 61.2499 28.1239 59.8726 28.1239 58.1499H26.1239ZM25 57.0499C25.6314 57.0499 26.1239 57.5531 26.1239 58.1499H28.1239C28.1239 56.4272 26.7146 55.0499 25 55.0499V57.0499ZM24 51.85V56.0499H26V51.85H24ZM26.1239 49.75C26.1239 50.3469 25.6314 50.85 25 50.85V52.85C26.7146 52.85 28.1239 51.4727 28.1239 49.75H26.1239ZM25 48.65C25.6314 48.65 26.1239 49.1531 26.1239 49.75H28.1239C28.1239 48.0273 26.7146 46.65 25 46.65V48.65ZM24 43.4499L24 47.65L26 47.65L26 43.4499L24 43.4499ZM26.1239 41.3499C26.1239 41.9468 25.6314 42.4499 25 42.4499V44.4499C26.7146 44.4499 28.1239 43.0726 28.1239 41.3499H26.1239ZM25 40.2499C25.6314 40.2499 26.1239 40.753 26.1239 41.3499H28.1239C28.1239 39.6272 26.7146 38.2499 25 38.2499V40.2499ZM24 38L24 39.2499L26 39.2499L26 38L24 38Z" fill="url(#paint3_linear)" mask="url(#path-7-inside-1)"/>
</g>
<path d="M62.6991 60.2499C62.4018 60.2499 62.1681 60.1951 62.1681 60.1255V58.2395C62.1681 58.1698 62.4018 58.115 62.6991 58.115C62.9965 58.115 63.2301 58.1698 63.2301 58.2395V60.1255C63.2301 60.1951 62.9752 60.2499 62.6991 60.2499ZM62.6991 56.4778C62.4018 56.4778 62.1681 56.4231 62.1681 56.3534V54.4674C62.1681 54.3977 62.4018 54.343 62.6991 54.343C62.9965 54.343 63.2301 54.3977 63.2301 54.4674V56.3534C63.2301 56.4231 62.9752 56.4778 62.6991 56.4778ZM62.6991 52.7058C62.4018 52.7058 62.1681 52.6511 62.1681 52.5814V50.6954C62.1681 50.6257 62.4018 50.571 62.6991 50.571C62.9965 50.571 63.2301 50.6257 63.2301 50.6954V52.5814C63.2301 52.6511 62.9752 52.7058 62.6991 52.7058ZM62.6991 48.9338C62.4018 48.9338 62.1681 48.879 62.1681 48.8094V46.9233C62.1681 46.8537 62.4018 46.7989 62.6991 46.7989C62.9965 46.7989 63.2301 46.8537 63.2301 46.9233V48.8094C63.2301 48.874 62.9752 48.9338 62.6991 48.9338ZM62.6991 45.1617C62.4018 45.1617 62.1681 45.107 62.1681 45.0373V43.1513C62.1681 43.0816 62.4018 43.0269 62.6991 43.0269C62.9965 43.0269 63.2301 43.0816 63.2301 43.1513V45.0373C63.2301 45.102 62.9752 45.1617 62.6991 45.1617ZM62.6991 41.3847C62.4018 41.3847 62.1681 41.33 62.1681 41.2603V39.3743C62.1681 39.3046 62.4018 39.2499 62.6991 39.2499C62.9965 39.2499 63.2301 39.3046 63.2301 39.3743V41.2603C63.2301 41.33 62.9752 41.3847 62.6991 41.3847Z" fill="white"/>
<rect x="32.9646" y="59.2" width="21.2389" height="1.05" rx="0.525" fill="white"/>
<rect x="32.9646" y="53.95" width="12.7434" height="1.05" rx="0.525" fill="white"/>
<path fill-rule="evenodd" clip-rule="evenodd" d="M54 54C54 51.7909 55.7909 50 58 50H101C103.209 50 105 51.7909 105 54V55.2501L104.973 55.2499C103.8 55.2499 102.85 56.1901 102.85 57.3499C102.85 58.5097 103.8 59.4499 104.973 59.4499L105 59.4498V63.6502L104.973 63.65C103.8 63.65 102.85 64.5902 102.85 65.75C102.85 66.9098 103.8 67.85 104.973 67.85L105 67.8499V72.0501C104.991 72.05 104.982 72.05 104.973 72.05C103.8 72.05 102.85 72.9902 102.85 74.15C102.85 75.3098 103.8 76.25 104.973 76.25C104.982 76.25 104.991 76.2499 105 76.2498V77.5C105 79.7091 103.209 81.5 101 81.5H58C55.7909 81.5 54 79.7091 54 77.5L54 76.2499C55.173 76.2499 56.1239 75.3097 56.1239 74.1499C56.1239 72.9901 55.173 72.0499 54 72.0499V67.85C55.173 67.85 56.1239 66.9098 56.1239 65.75C56.1239 64.5902 55.173 63.65 54 63.65L54 59.4499C55.173 59.4499 56.1239 58.5097 56.1239 57.3499C56.1239 56.1901 55.173 55.2499 54 55.2499L54 54Z" fill="url(#paint4_linear)"/>
<path d="M91.6991 76.2499C91.4018 76.2499 91.1681 76.1951 91.1681 76.1255V74.2395C91.1681 74.1698 91.4018 74.115 91.6991 74.115C91.9965 74.115 92.2301 74.1698 92.2301 74.2395V76.1255C92.2301 76.1951 91.9752 76.2499 91.6991 76.2499ZM91.6991 72.4778C91.4018 72.4778 91.1681 72.4231 91.1681 72.3534V70.4674C91.1681 70.3977 91.4018 70.343 91.6991 70.343C91.9965 70.343 92.2301 70.3977 92.2301 70.4674V72.3534C92.2301 72.4231 91.9752 72.4778 91.6991 72.4778ZM91.6991 68.7058C91.4018 68.7058 91.1681 68.6511 91.1681 68.5814V66.6954C91.1681 66.6257 91.4018 66.571 91.6991 66.571C91.9965 66.571 92.2301 66.6257 92.2301 66.6954V68.5814C92.2301 68.6511 91.9752 68.7058 91.6991 68.7058ZM91.6991 64.9338C91.4018 64.9338 91.1681 64.879 91.1681 64.8094V62.9233C91.1681 62.8537 91.4018 62.7989 91.6991 62.7989C91.9965 62.7989 92.2301 62.8537 92.2301 62.9233V64.8094C92.2301 64.874 91.9752 64.9338 91.6991 64.9338ZM91.6991 61.1617C91.4018 61.1617 91.1681 61.107 91.1681 61.0373V59.1513C91.1681 59.0816 91.4018 59.0269 91.6991 59.0269C91.9965 59.0269 92.2301 59.0816 92.2301 59.1513V61.0373C92.2301 61.102 91.9752 61.1617 91.6991 61.1617ZM91.6991 57.3847C91.4018 57.3847 91.1681 57.33 91.1681 57.2603V55.3743C91.1681 55.3046 91.4018 55.2499 91.6991 55.2499C91.9965 55.2499 92.2301 55.3046 92.2301 55.3743V57.2603C92.2301 57.33 91.9752 57.3847 91.6991 57.3847Z" fill="white"/>
<rect x="61.9646" y="75.2" width="21.2389" height="1.05" rx="0.525" fill="white"/>
<rect x="61.9646" y="69.95" width="12.7434" height="1.05" rx="0.525" fill="white"/>
<defs>
<filter id="filter0_d" x="0" y="0" width="127" height="102" filterUnits="userSpaceOnUse" color-interpolation-filters="sRGB">
<feFlood flood-opacity="0" result="BackgroundImageFix"/>
<feColorMatrix in="SourceAlpha" type="matrix" values="0 0 0 0 0 0 0 0 0 0 0 0 0 0 0 0 0 0 127 0"/>
<feOffset/>
<feGaussianBlur stdDeviation="6"/>
<feColorMatrix type="matrix" values="0 0 0 0 0 0 0 0 0 0 0 0 0 0 0 0 0 0 0.15 0"/>
<feBlend mode="normal" in2="BackgroundImageFix" result="effect1_dropShadow"/>
<feBlend mode="normal" in="SourceGraphic" in2="effect1_dropShadow" result="shape"/>
</filter>
<filter id="filter1_di" x="13" y="30" width="67" height="47.5" filterUnits="userSpaceOnUse" color-interpolation-filters="sRGB">
<feFlood flood-opacity="0" result="BackgroundImageFix"/>
<feColorMatrix in="SourceAlpha" type="matrix" values="0 0 0 0 0 0 0 0 0 0 0 0 0 0 0 0 0 0 127 0"/>
<feOffset dx="-4" dy="4"/>
<feGaussianBlur stdDeviation="4"/>
<feColorMatrix type="matrix" values="0 0 0 0 0 0 0 0 0 0 0 0 0 0 0 0 0 0 0.32 0"/>
<feBlend mode="normal" in2="BackgroundImageFix" result="effect1_dropShadow"/>
<feBlend mode="normal" in="SourceGraphic" in2="effect1_dropShadow" result="shape"/>
<feColorMatrix in="SourceAlpha" type="matrix" values="0 0 0 0 0 0 0 0 0 0 0 0 0 0 0 0 0 0 127 0" result="hardAlpha"/>
<feOffset dx="-5"/>
<feGaussianBlur stdDeviation="2"/>
<feComposite in2="hardAlpha" operator="arithmetic" k2="-1" k3="1"/>
<feColorMatrix type="matrix" values="0 0 0 0 1 0 0 0 0 0.915777 0 0 0 0 0.729167 0 0 0 1 0"/>
<feBlend mode="normal" in2="shape" result="effect2_innerShadow"/>
</filter>
<linearGradient id="paint0_linear" x1="69.7172" y1="9.63724" x2="56.6252" y2="72.6511" gradientUnits="userSpaceOnUse">
<stop stop-color="white"/>
<stop offset="1" stop-color="#EDFDFC"/>
</linearGradient>
<linearGradient id="paint1_linear" x1="66.6544" y1="20.745" x2="57.1452" y2="101.546" gradientUnits="userSpaceOnUse">
<stop stop-color="#838DFA"/>
<stop offset="1" stop-color="#4681FF"/>
</linearGradient>
<linearGradient id="paint2_linear" x1="76.5525" y1="45.7543" x2="21.018" y2="68.5724" gradientUnits="userSpaceOnUse">
<stop stop-color="#FFD578"/>
<stop offset="0.1626" stop-color="#FFD068"/>
<stop offset="0.4804" stop-color="#FFC33D"/>
<stop offset="0.5317" stop-color="#FFC136"/>
<stop offset="0.8564" stop-color="#FFB136"/>
<stop offset="1" stop-color="#FFA836"/>
</linearGradient>
<linearGradient id="paint3_linear" x1="50.4867" y1="34" x2="50.4867" y2="65.5" gradientUnits="userSpaceOnUse">
<stop stop-color="#F39B13"/>
<stop offset="1" stop-color="#F8C371"/>
</linearGradient>
<linearGradient id="paint4_linear" x1="53.9091" y1="70.5435" x2="104.831" y2="69.8331" gradientUnits="userSpaceOnUse">
<stop stop-color="#7FF3BE"/>
<stop offset="1" stop-color="#45E099"/>
</linearGradient>
</defs>
</svg>
