<svg width="116" height="98" viewBox="0 0 116 98" fill="none" xmlns="http://www.w3.org/2000/svg">
<g filter="url(#filter0_d)">
<path d="M108.997 86H15.002C13.3408 86 11.9993 84.4083 11.9993 82.4512V9.54881C11.9993 7.58551 13.3461 6 15.002 6H108.997C110.658 6 111.999 7.5917 111.999 9.54881V82.4512C111.999 84.4083 110.658 86 108.997 86Z" fill="url(#paint0_linear)"/>
</g>
<path d="M108.752 86H15.247C13.4537 86 11.9993 84.2853 11.9993 82.1712V9.82884C11.9993 7.71468 13.459 6 15.247 6H108.752C110.545 6 111.999 7.72082 111.999 9.82884V82.1712C111.999 84.2792 110.545 86 108.752 86ZM15.247 6.61458C13.7457 6.61458 12.5206 8.05884 12.5206 9.82884V82.1712C12.5206 83.9412 13.7457 85.3854 15.247 85.3854H108.752C110.253 85.3854 111.478 83.9412 111.478 82.1712V9.82884C111.478 8.05884 110.253 6.61458 108.752 6.61458H15.247Z" fill="url(#paint1_linear)"/>
<path d="M99.5106 23.3468H51.7877C50.9148 23.3468 50.2072 22.3976 50.2072 21.2266C50.2072 20.0556 50.9148 19.1064 51.7877 19.1064H99.5106C100.384 19.1064 101.091 20.0556 101.091 21.2266C101.096 22.3976 100.388 23.3468 99.5106 23.3468Z" fill="white"/>
<path d="M99.4034 23.7323H51.895C50.9619 23.7323 50.2072 22.6918 50.2072 21.4193C50.2072 20.1407 50.9665 19.1064 51.895 19.1064H99.4034C100.336 19.1064 101.091 20.1469 101.091 21.4193C101.096 22.6918 100.336 23.7323 99.4034 23.7323ZM51.895 19.4136C51.09 19.4136 50.4359 20.3099 50.4359 21.4131C50.4359 22.5163 51.09 23.4126 51.895 23.4126H99.4034C100.208 23.4126 100.862 22.5163 100.862 21.4131C100.862 20.3099 100.208 19.4136 99.4034 19.4136H51.895Z" fill="white"/>
<path d="M79.4612 32.5985H51.792C50.9167 32.5985 50.2072 31.563 50.2072 30.2856C50.2072 29.0081 50.9167 27.9727 51.792 27.9727H79.4612C80.3365 27.9727 81.046 29.0081 81.046 30.2856C81.046 31.563 80.3365 32.5985 79.4612 32.5985Z" fill="white"/>
<path d="M79.3586 32.5985H51.8946C50.9617 32.5985 50.2072 31.558 50.2072 30.2856C50.2072 29.0132 50.9663 27.9727 51.8946 27.9727H79.3586C80.2915 27.9727 81.046 29.0132 81.046 30.2856C81.046 31.558 80.2869 32.5985 79.3586 32.5985ZM51.8946 28.2798C51.0898 28.2798 50.4359 29.1761 50.4359 30.2793C50.4359 31.3825 51.0898 32.2788 51.8946 32.2788H79.3586C80.1634 32.2788 80.8173 31.3825 80.8173 30.2793C80.8173 29.1761 80.1634 28.2798 79.3586 28.2798H51.8946Z" fill="white"/>
<path d="M23.1902 36.8323C13.7131 36.8323 6 29.118 6 19.6393C6 10.1606 13.7131 2.44629 23.1902 2.44629H23.3466V19.4829H40.3805V19.6393C40.3805 29.1243 32.6674 36.8323 23.1902 36.8323ZM23.0338 2.76538C13.8007 2.84672 6.31278 10.3859 6.31278 19.6456C6.31278 28.9553 13.882 36.5258 23.1902 36.5258C32.4422 36.5258 39.9801 29.0367 40.0677 19.802H23.0338V2.76538Z" fill="url(#paint2_linear)"/>
<g filter="url(#filter1_d)">
<path d="M23.1903 19.6456V2.60901C13.7819 2.60901 6.15643 10.2358 6.15643 19.6456C6.15643 29.0555 13.7819 36.6822 23.1903 36.6822C32.5986 36.6822 40.2241 29.0555 40.2241 19.6456H23.1903Z" fill="url(#paint3_linear)"/>
</g>
<g filter="url(#filter2_i)">
<path d="M25.6425 0.156372V17.193H42.6763C42.6763 7.78312 35.0508 0.156372 25.6425 0.156372Z" fill="url(#paint4_linear)"/>
</g>
<path d="M42.8326 17.3494H25.486V0H25.6424C35.1196 0 42.8326 7.71434 42.8326 17.193V17.3494ZM25.7988 17.0366H42.5199C42.4385 7.85198 34.9819 0.40042 25.7988 0.312828V17.0366Z" fill="url(#paint5_linear)"/>
<path d="M23.0579 51.9447C22.9703 51.9447 22.9015 51.8906 22.9015 51.8218V50.839C22.9015 50.7702 22.9703 50.7162 23.0579 50.7162C23.1455 50.7162 23.2143 50.7702 23.2143 50.839V51.8218C23.2143 51.8906 23.1455 51.9447 23.0579 51.9447Z" fill="white"/>
<path d="M23.0579 74.2982C22.9703 74.2982 22.9015 74.2442 22.9015 74.1754V72.313C22.9015 72.2442 22.9703 72.1902 23.0579 72.1902C23.1455 72.1902 23.2143 72.2442 23.2143 72.313V74.1754C23.2143 74.2442 23.1455 74.2982 23.0579 74.2982ZM23.0579 70.5735C22.9703 70.5735 22.9015 70.5194 22.9015 70.4506V68.5882C22.9015 68.5194 22.9703 68.4654 23.0579 68.4654C23.1455 68.4654 23.2143 68.5194 23.2143 68.5882V70.4506C23.2143 70.5194 23.1455 70.5735 23.0579 70.5735ZM23.0579 66.8487C22.9703 66.8487 22.9015 66.7946 22.9015 66.7259V64.8635C22.9015 64.7947 22.9703 64.7406 23.0579 64.7406C23.1455 64.7406 23.2143 64.7947 23.2143 64.8635V66.7259C23.2143 66.7946 23.1455 66.8487 23.0579 66.8487ZM23.0579 63.1239C22.9703 63.1239 22.9015 63.0699 22.9015 63.0011V61.1387C22.9015 61.0699 22.9703 61.0159 23.0579 61.0159C23.1455 61.0159 23.2143 61.0699 23.2143 61.1387V63.0011C23.2143 63.065 23.1455 63.1239 23.0579 63.1239ZM23.0579 59.3992C22.9703 59.3992 22.9015 59.3451 22.9015 59.2763V57.4139C22.9015 57.3451 22.9703 57.2911 23.0579 57.2911C23.1455 57.2911 23.2143 57.3451 23.2143 57.4139V59.2763C23.2143 59.3402 23.1455 59.3992 23.0579 59.3992ZM23.0579 55.6695C22.9703 55.6695 22.9015 55.6154 22.9015 55.5466V53.6842C22.9015 53.6155 22.9703 53.5614 23.0579 53.5614C23.1455 53.5614 23.2143 53.6155 23.2143 53.6842V55.5466C23.2143 55.6154 23.1455 55.6695 23.0579 55.6695Z" fill="white"/>
<path d="M23.0579 77.1434C22.9703 77.1434 22.9015 77.0894 22.9015 77.0206V76.0378C22.9015 75.969 22.9703 75.9149 23.0579 75.9149C23.1455 75.9149 23.2143 75.969 23.2143 76.0378V77.0206C23.2143 77.0894 23.1455 77.1434 23.0579 77.1434Z" fill="white"/>
<path d="M36.6886 51.9447C36.6011 51.9447 36.5322 51.8906 36.5322 51.8218V50.839C36.5322 50.7702 36.6011 50.7162 36.6886 50.7162C36.7762 50.7162 36.845 50.7702 36.845 50.839V51.8218C36.845 51.8906 36.77 51.9447 36.6886 51.9447Z" fill="white"/>
<path d="M36.6886 74.2982C36.6011 74.2982 36.5322 74.2442 36.5322 74.1754V72.313C36.5322 72.2442 36.6011 72.1902 36.6886 72.1902C36.7762 72.1902 36.845 72.2442 36.845 72.313V74.1754C36.845 74.2442 36.77 74.2982 36.6886 74.2982ZM36.6886 70.5735C36.6011 70.5735 36.5322 70.5194 36.5322 70.4506V68.5882C36.5322 68.5194 36.6011 68.4654 36.6886 68.4654C36.7762 68.4654 36.845 68.5194 36.845 68.5882V70.4506C36.845 70.5194 36.77 70.5735 36.6886 70.5735ZM36.6886 66.8487C36.6011 66.8487 36.5322 66.7946 36.5322 66.7259V64.8635C36.5322 64.7947 36.6011 64.7406 36.6886 64.7406C36.7762 64.7406 36.845 64.7947 36.845 64.8635V66.7259C36.845 66.7946 36.77 66.8487 36.6886 66.8487ZM36.6886 63.1239C36.6011 63.1239 36.5322 63.0699 36.5322 63.0011V61.1387C36.5322 61.0699 36.6011 61.0159 36.6886 61.0159C36.7762 61.0159 36.845 61.0699 36.845 61.1387V63.0011C36.845 63.065 36.77 63.1239 36.6886 63.1239ZM36.6886 59.3992C36.6011 59.3992 36.5322 59.3451 36.5322 59.2763V57.4139C36.5322 57.3451 36.6011 57.2911 36.6886 57.2911C36.7762 57.2911 36.845 57.3451 36.845 57.4139V59.2763C36.845 59.3402 36.77 59.3992 36.6886 59.3992ZM36.6886 55.6695C36.6011 55.6695 36.5322 55.6154 36.5322 55.5466V53.6842C36.5322 53.6155 36.6011 53.5614 36.6886 53.5614C36.7762 53.5614 36.845 53.6155 36.845 53.6842V55.5466C36.845 55.6154 36.77 55.6695 36.6886 55.6695Z" fill="white"/>
<path d="M36.6886 77.1434C36.6011 77.1434 36.5322 77.0894 36.5322 77.0206V76.0378C36.5322 75.969 36.6011 75.9149 36.6886 75.9149C36.7762 75.9149 36.845 75.969 36.845 76.0378V77.0206C36.845 77.0894 36.77 77.1434 36.6886 77.1434Z" fill="white"/>
<path d="M50.3195 51.9447C50.2319 51.9447 50.1631 51.8906 50.1631 51.8218V50.839C50.1631 50.7702 50.2319 50.7162 50.3195 50.7162C50.4071 50.7162 50.4759 50.7702 50.4759 50.839V51.8218C50.4759 51.8906 50.4008 51.9447 50.3195 51.9447Z" fill="white"/>
<path d="M50.3195 74.2982C50.2319 74.2982 50.1631 74.2442 50.1631 74.1754V72.313C50.1631 72.2442 50.2319 72.1902 50.3195 72.1902C50.4071 72.1902 50.4759 72.2442 50.4759 72.313V74.1754C50.4759 74.2442 50.4008 74.2982 50.3195 74.2982ZM50.3195 70.5735C50.2319 70.5735 50.1631 70.5194 50.1631 70.4506V68.5882C50.1631 68.5194 50.2319 68.4654 50.3195 68.4654C50.4071 68.4654 50.4759 68.5194 50.4759 68.5882V70.4506C50.4759 70.5194 50.4008 70.5735 50.3195 70.5735ZM50.3195 66.8487C50.2319 66.8487 50.1631 66.7946 50.1631 66.7259V64.8635C50.1631 64.7947 50.2319 64.7406 50.3195 64.7406C50.4071 64.7406 50.4759 64.7947 50.4759 64.8635V66.7259C50.4759 66.7946 50.4008 66.8487 50.3195 66.8487ZM50.3195 63.1239C50.2319 63.1239 50.1631 63.0699 50.1631 63.0011V61.1387C50.1631 61.0699 50.2319 61.0159 50.3195 61.0159C50.4071 61.0159 50.4759 61.0699 50.4759 61.1387V63.0011C50.4759 63.065 50.4008 63.1239 50.3195 63.1239ZM50.3195 59.3992C50.2319 59.3992 50.1631 59.3451 50.1631 59.2763V57.4139C50.1631 57.3451 50.2319 57.2911 50.3195 57.2911C50.4071 57.2911 50.4759 57.3451 50.4759 57.4139V59.2763C50.4759 59.3402 50.4008 59.3992 50.3195 59.3992ZM50.3195 55.6695C50.2319 55.6695 50.1631 55.6154 50.1631 55.5466V53.6842C50.1631 53.6155 50.2319 53.5614 50.3195 53.5614C50.4071 53.5614 50.4759 53.6155 50.4759 53.6842V55.5466C50.4759 55.6154 50.4008 55.6695 50.3195 55.6695Z" fill="white"/>
<path d="M50.3195 77.1434C50.2319 77.1434 50.1631 77.0894 50.1631 77.0206V76.0378C50.1631 75.969 50.2319 75.9149 50.3195 75.9149C50.4071 75.9149 50.4759 75.969 50.4759 76.0378V77.0206C50.4759 77.0894 50.4008 77.1434 50.3195 77.1434Z" fill="white"/>
<path d="M65.6873 76.1853H70.3876C70.7694 76.1853 71.0755 75.8773 71.0755 75.5013V62.3799C71.0755 62.0003 70.7658 61.6959 70.3876 61.6959H65.6873C65.3055 61.6959 64.9993 62.0039 64.9993 62.3799V75.5013C64.9993 75.8809 65.3091 76.1853 65.6873 76.1853Z" fill="url(#paint6_linear)"/>
<path d="M86.7203 76.1854H91.4206C91.8024 76.1854 92.1085 75.873 92.1085 75.4917V67.9986C92.1085 67.6135 91.7988 67.3048 91.4206 67.3048H86.7203C86.3385 67.3048 86.0323 67.6172 86.0323 67.9986V75.4917C86.0323 75.8767 86.3385 76.1854 86.7203 76.1854Z" fill="url(#paint7_linear)"/>
<path d="M80.6704 48.6087L75.9701 48.6087C75.5883 48.6087 75.2821 48.9185 75.2821 49.2968L75.2821 75.4972C75.2821 75.8791 75.5919 76.1853 75.9701 76.1853L80.6704 76.1853C81.0522 76.1853 81.3583 75.8755 81.3583 75.4972L81.3583 49.2968C81.3583 48.9149 81.0522 48.6087 80.6704 48.6087Z" fill="url(#paint8_linear)"/>
<path d="M101.703 42.9999L97.003 42.9999C96.6213 42.9999 96.3151 43.3131 96.3151 43.6954L96.3151 75.4898C96.3151 75.8758 96.6249 76.1853 97.003 76.1853L101.703 76.1853C102.085 76.1853 102.391 75.8722 102.391 75.4898L102.391 43.6954C102.391 43.3094 102.085 42.9999 101.703 42.9999Z" fill="url(#paint9_linear)"/>
<defs>
<filter id="filter0_d" x="-0.000671387" y="2" width="116" height="96" filterUnits="userSpaceOnUse" color-interpolation-filters="sRGB">
<feFlood flood-opacity="0" result="BackgroundImageFix"/>
<feColorMatrix in="SourceAlpha" type="matrix" values="0 0 0 0 0 0 0 0 0 0 0 0 0 0 0 0 0 0 127 0"/>
<feOffset dx="-4" dy="4"/>
<feGaussianBlur stdDeviation="4"/>
<feColorMatrix type="matrix" values="0 0 0 0 0 0 0 0 0 0 0 0 0 0 0 0 0 0 0.32 0"/>
<feBlend mode="normal" in2="BackgroundImageFix" result="effect1_dropShadow"/>
<feBlend mode="normal" in="SourceGraphic" in2="effect1_dropShadow" result="shape"/>
</filter>
<filter id="filter1_d" x="1.15643" y="1.60901" width="40.0677" height="40.0732" filterUnits="userSpaceOnUse" color-interpolation-filters="sRGB">
<feFlood flood-opacity="0" result="BackgroundImageFix"/>
<feColorMatrix in="SourceAlpha" type="matrix" values="0 0 0 0 0 0 0 0 0 0 0 0 0 0 0 0 0 0 127 0"/>
<feOffset dx="-2" dy="2"/>
<feGaussianBlur stdDeviation="1.5"/>
<feColorMatrix type="matrix" values="0 0 0 0 0 0 0 0 0 0 0 0 0 0 0 0 0 0 0.25 0"/>
<feBlend mode="normal" in2="BackgroundImageFix" result="effect1_dropShadow"/>
<feBlend mode="normal" in="SourceGraphic" in2="effect1_dropShadow" result="shape"/>
</filter>
<filter id="filter2_i" x="21.6425" y="0.156372" width="21.0338" height="17.0366" filterUnits="userSpaceOnUse" color-interpolation-filters="sRGB">
<feFlood flood-opacity="0" result="BackgroundImageFix"/>
<feBlend mode="normal" in="SourceGraphic" in2="BackgroundImageFix" result="shape"/>
<feColorMatrix in="SourceAlpha" type="matrix" values="0 0 0 0 0 0 0 0 0 0 0 0 0 0 0 0 0 0 127 0" result="hardAlpha"/>
<feOffset dx="-5"/>
<feGaussianBlur stdDeviation="2"/>
<feComposite in2="hardAlpha" operator="arithmetic" k2="-1" k3="1"/>
<feColorMatrix type="matrix" values="0 0 0 0 1 0 0 0 0 0.915777 0 0 0 0 0.729167 0 0 0 1 0"/>
<feBlend mode="normal" in2="shape" result="effect1_innerShadow"/>
</filter>
<linearGradient id="paint0_linear" x1="65.0618" y1="-1.94284" x2="49.4202" y2="99.6744" gradientUnits="userSpaceOnUse">
<stop stop-color="#838DFA"/>
<stop offset="1" stop-color="#4681FF"/>
</linearGradient>
<linearGradient id="paint1_linear" x1="111.305" y1="7.44095" x2="3.44895" y2="68.1244" gradientUnits="userSpaceOnUse">
<stop stop-color="#6A71E5"/>
<stop offset="1" stop-color="#CCE9FF"/>
</linearGradient>
<linearGradient id="paint2_linear" x1="13.0899" y1="33.5472" x2="31.4209" y2="8.32085" gradientUnits="userSpaceOnUse">
<stop stop-color="#008C80"/>
<stop offset="0.1785" stop-color="#10988B"/>
<stop offset="0.5288" stop-color="#3BB9A8"/>
<stop offset="1" stop-color="#7DEBD5"/>
</linearGradient>
<linearGradient id="paint3_linear" x1="13.3369" y1="31.5639" x2="30.8452" y2="10.3892" gradientUnits="userSpaceOnUse">
<stop stop-color="#00B6A6"/>
<stop offset="0.7442" stop-color="#00C6AD"/>
<stop offset="1" stop-color="#00CDB0"/>
</linearGradient>
<linearGradient id="paint4_linear" x1="42.8698" y1="6.51364" x2="22.4921" y2="11.6869" gradientUnits="userSpaceOnUse">
<stop stop-color="#FFD578"/>
<stop offset="0.1626" stop-color="#FFD068"/>
<stop offset="0.4804" stop-color="#FFC33D"/>
<stop offset="0.5317" stop-color="#FFC136"/>
<stop offset="0.8564" stop-color="#FFB136"/>
<stop offset="1" stop-color="#FFA836"/>
</linearGradient>
<linearGradient id="paint5_linear" x1="26.2378" y1="1.41111" x2="38.4935" y2="17.6895" gradientUnits="userSpaceOnUse">
<stop stop-color="#FFC136"/>
<stop offset="0.3101" stop-color="#FFB136"/>
<stop offset="0.4473" stop-color="#FFA836"/>
<stop offset="1" stop-color="#FF8736"/>
</linearGradient>
<linearGradient id="paint6_linear" x1="70.0971" y1="61.2921" x2="66.0519" y2="76.4853" gradientUnits="userSpaceOnUse">
<stop stop-color="#FFC136"/>
<stop offset="0.6934" stop-color="#FFB136"/>
<stop offset="1" stop-color="#FFA836"/>
</linearGradient>
<linearGradient id="paint7_linear" x1="91.1301" y1="67.0573" x2="89.545" y2="76.7707" gradientUnits="userSpaceOnUse">
<stop stop-color="#FFC136"/>
<stop offset="0.6934" stop-color="#FFB136"/>
<stop offset="1" stop-color="#FFA836"/>
</linearGradient>
<linearGradient id="paint8_linear" x1="80.2916" y1="46.6721" x2="62.8608" y2="60.8596" gradientUnits="userSpaceOnUse">
<stop stop-color="#49D193"/>
<stop offset="1" stop-color="#C8F1DF"/>
</linearGradient>
<linearGradient id="paint9_linear" x1="101.325" y1="40.6694" x2="81.4419" y2="54.1174" gradientUnits="userSpaceOnUse">
<stop stop-color="#49D193"/>
<stop offset="1" stop-color="#C8F1DF"/>
</linearGradient>
</defs>
</svg>
