<svg width="160" height="80" viewBox="0 0 160 80" fill="none" xmlns="http://www.w3.org/2000/svg">
<path d="M8.45136 35.9317C9.76154 35.5862 11.1689 35.4134 12.677 35.4134C16.1828 35.4134 19.1739 36.3636 21.6467 38.2641C24.1195 40.1646 25.3541 42.461 25.3541 45.157V54.9005C25.3541 55.8003 24.9438 56.5634 24.1195 57.1969C23.2952 57.8304 22.2982 58.1471 21.1284 58.1471C19.9586 58.1471 18.9616 57.8304 18.1373 57.1969C17.3131 56.5634 16.9027 55.7967 16.9027 54.9005V45.157C16.9027 44.2571 16.4924 43.494 15.6681 42.8605C14.8439 42.227 13.8468 41.9103 12.677 41.9103C11.5072 41.9103 10.5102 42.227 9.68595 42.8605C8.86169 43.494 8.45136 44.2607 8.45136 45.157V54.9005C8.45136 55.8003 8.04103 56.5634 7.21677 57.1969C6.39251 57.8304 5.39548 58.1471 4.22568 58.1471C3.05588 58.1471 2.05885 57.8304 1.23459 57.1969C0.41033 56.5598 0 55.7931 0 54.8969V28.3334C0 27.4336 0.41033 26.6705 1.23459 26.037C2.05885 25.4035 3.05588 25.0868 4.22568 25.0868C5.39548 25.0868 6.39251 25.4035 7.21677 26.037C8.04103 26.6705 8.45136 27.4372 8.45136 28.3334V35.9317Z" fill="#F7941D"/>
<path d="M50.5426 56.7794C48.4154 57.69 46.0434 58.1436 43.423 58.1436C39.3377 58.1436 35.8535 57.0349 32.9668 54.8141C30.0801 52.5933 28.6367 49.9154 28.6367 46.7767C28.6367 43.638 30.0801 40.9601 32.9668 38.7393C35.8535 36.5184 39.3413 35.4098 43.423 35.4098C46.0434 35.4098 48.4154 35.8633 50.5426 36.774C50.6686 36.6336 50.8234 36.4932 51.0069 36.3529C51.824 35.7266 52.8174 35.4098 53.9872 35.4098C55.157 35.4098 56.1541 35.7266 56.9783 36.3601C57.8026 36.9936 58.2129 37.7602 58.2129 38.6565V54.8933C58.2129 55.7932 57.8026 56.5562 56.9783 57.1897C56.1541 57.8232 55.157 58.14 53.9872 58.14C52.8174 58.14 51.824 57.8196 51.0069 57.1825C50.8234 57.0565 50.6686 56.9198 50.5426 56.7794ZM47.9007 50.2213C49.1389 49.2675 49.7616 48.1229 49.7616 46.7803C49.7616 45.4377 49.1425 44.2895 47.9007 43.3393C46.6625 42.3854 45.1687 41.9103 43.423 41.9103C41.6773 41.9103 40.1836 42.3854 38.9454 43.3393C37.7072 44.2931 37.0845 45.4377 37.0845 46.7803C37.0845 48.1229 37.7036 49.2711 38.9454 50.2213C40.1836 51.1751 41.6773 51.6503 43.423 51.6503C45.1687 51.6503 46.6625 51.1715 47.9007 50.2213Z" fill="#F7941D"/>
<path d="M70.1269 54.8969C70.1269 55.7967 69.7166 56.5598 68.8923 57.1933C68.068 57.8268 67.071 58.1435 65.9012 58.1435C64.7314 58.1435 63.7344 57.8268 62.9101 57.1933C62.0859 56.5598 61.6755 55.7931 61.6755 54.8969V28.0707C61.6755 27.1708 62.0859 26.4077 62.9101 25.7742C63.7344 25.1408 64.7314 24.824 65.9012 24.824C67.071 24.824 68.068 25.1408 68.8923 25.7742C69.7166 26.4077 70.1269 27.1744 70.1269 28.0707V54.8969Z" fill="#F7941D"/>
<path d="M95.373 56.7794C93.2458 57.69 90.8738 58.1436 88.2534 58.1436C84.1681 58.1436 80.6839 57.0349 77.7972 54.8141C74.9105 52.5933 73.4671 49.9154 73.4671 46.7767C73.4671 43.638 74.9105 40.9601 77.7972 38.7393C80.6839 36.5184 84.1717 35.4098 88.2534 35.4098C90.8738 35.4098 93.2458 35.8633 95.373 36.774C95.499 36.6336 95.6538 36.4932 95.8373 36.3529C96.6544 35.7266 97.6478 35.4098 98.8176 35.4098C99.9874 35.4098 100.984 35.7266 101.809 36.3601C102.633 36.9936 103.043 37.7602 103.043 38.6565V54.8933C103.043 55.7932 102.633 56.5562 101.809 57.1897C100.984 57.8232 99.9874 58.14 98.8176 58.14C97.6478 58.14 96.6544 57.8196 95.8373 57.1825C95.6538 57.0565 95.499 56.9198 95.373 56.7794ZM92.7311 50.2213C93.9692 49.2675 94.5919 48.1229 94.5919 46.7803C94.5919 45.4377 93.9728 44.2895 92.7311 43.3393C91.4929 42.3854 89.9991 41.9103 88.2534 41.9103C86.5077 41.9103 85.014 42.3854 83.7758 43.3393C82.5376 44.2931 81.9149 45.4377 81.9149 46.7803C81.9149 48.1229 82.534 49.2711 83.7758 50.2213C85.014 51.1751 86.5077 51.6503 88.2534 51.6503C89.9991 51.6503 91.4929 51.1715 92.7311 50.2213Z" fill="#F7941D"/>
<path d="M113.813 36.3385C115.476 35.723 117.308 35.4134 119.305 35.4134C122.811 35.4134 125.802 36.3637 128.271 38.2641C130.744 40.1646 131.979 42.461 131.979 45.157V54.9005C131.979 55.8004 131.565 56.5634 130.741 57.1969C129.916 57.8304 128.919 58.1472 127.749 58.1472C126.58 58.1472 125.586 57.8304 124.762 57.1969C123.938 56.5634 123.524 55.7968 123.524 54.9005V45.157C123.524 44.2571 123.11 43.4941 122.286 42.8606C121.461 42.2271 120.464 41.9103 119.298 41.9103C118.128 41.9103 117.131 42.2271 116.307 42.8606C115.483 43.4941 115.069 44.2607 115.069 45.157V54.9005C115.069 55.8004 114.658 56.5634 113.834 57.1969C113.01 57.8304 112.013 58.1472 110.843 58.1472C109.673 58.1472 108.676 57.8304 107.852 57.1969C107.028 56.5634 106.617 55.7968 106.617 54.9005V38.6601C106.617 37.7602 107.028 36.9972 107.852 36.3637C108.676 35.7302 109.673 35.4134 110.843 35.4134C112.009 35.4098 112.996 35.7194 113.813 36.3385Z" fill="#F7941D"/>
<path d="M4.72236 69.8991C5.6834 70.1763 7.17714 70.6478 7.17714 72.5195C7.17714 74.5064 5.36665 75.1543 3.8837 75.1543C3.02345 75.1543 2.07321 74.9383 1.45412 74.4452C0.644254 73.8009 0.442688 72.8758 0.442688 72.6203C0.442688 72.1272 0.950202 72.0264 1.16616 72.0264C1.5585 72.0264 1.62329 72.2028 1.67368 72.3935C1.78886 72.811 1.88964 73.2934 2.43315 73.6857C2.97666 74.078 3.63534 74.1032 4.00248 74.1032C4.29403 74.1032 4.97792 74.1032 5.43144 73.7361C5.77338 73.4841 5.97495 73.0774 5.97495 72.6347C5.97495 72.1272 5.69779 71.7996 5.50703 71.6484C5.15069 71.3425 4.60718 71.1805 3.9125 70.9754L2.96226 70.709C2.62032 70.6082 2.23878 70.493 1.95083 70.3527C1.69528 70.2519 0.835021 69.7948 0.835021 68.4774C0.835021 67.0088 1.81046 65.9434 3.87291 65.9434C4.45601 65.9434 5.41704 66.019 6.16571 66.6273C6.67323 67.0592 7.02597 67.7791 7.02597 68.121C7.02597 68.5134 6.73442 68.7041 6.39248 68.7041C6.2521 68.7041 6.12612 68.679 5.98575 68.4882C5.94615 68.4378 5.82017 68.1606 5.76978 68.0563C5.60421 67.7287 5.22627 66.9548 3.81891 66.9548C3.3258 66.9548 2.90827 67.0556 2.60232 67.2716C2.31077 67.4732 2.06961 67.8295 2.06961 68.337C2.06961 68.8049 2.32157 69.0353 2.38636 69.0857C2.62752 69.2765 3.16023 69.442 3.56336 69.5536L4.72236 69.8991Z" fill="#58595B"/>
<path d="M15.175 74.546C15.1642 74.7367 15.139 74.9023 14.8978 75.0391C14.7323 75.1291 14.5055 75.1291 14.3147 75.0391C14.0484 74.8987 14.0484 74.6971 14.0484 74.1896C13.5049 74.9131 12.9614 75.1507 12.0363 75.1507C11.7304 75.1507 10.9349 75.1255 10.3518 74.5064C9.80829 73.8873 9.80829 73.099 9.80829 72.4943V68.9741C9.80829 68.8229 9.85868 68.391 10.3914 68.391C10.9241 68.391 10.9853 68.7977 10.9853 68.9597V72.1128C10.9853 72.9622 11.0249 73.315 11.1869 73.6209C11.4928 74.1644 12.0615 74.1536 12.2235 74.1536C13.0477 74.1536 13.7424 73.6713 13.9332 72.8111C13.9728 72.6455 13.998 72.4943 13.998 72.3431V68.9741C13.998 68.8229 14.0484 68.391 14.5811 68.391C15.1246 68.391 15.175 68.8229 15.175 68.9741V70.1511C15.265 70.0611 15.3513 69.9495 15.4413 69.8236C15.6429 69.5068 15.6933 69.2045 15.7473 68.8985C15.7725 68.7222 15.8373 68.391 16.2548 68.391C16.8127 68.391 16.7875 68.9345 16.7875 69.0353C16.7875 69.7444 16.37 70.4535 15.6717 70.6694L15.1786 70.7846V74.546H15.175ZM12.5654 67.4804C12.5042 67.5703 12.4142 67.6711 12.2235 67.6711C11.9319 67.6711 11.7664 67.4696 11.7664 67.2788C11.7664 67.2176 11.7808 67.178 11.7916 67.1384L12.1731 66.0118C12.2379 65.8606 12.3387 65.6303 12.7058 65.6303C13.0585 65.6303 13.3393 65.8858 13.3393 66.1738C13.3393 66.3142 13.2745 66.4005 13.2241 66.5013L12.5654 67.4804Z" fill="#58595B"/>
<path d="M22.6509 68.9381C22.6509 68.7473 22.6905 68.571 22.928 68.4558C23.0684 68.3658 23.3456 68.355 23.5363 68.4558C23.8027 68.5962 23.8027 68.7725 23.8027 69.2153C24.2958 68.607 24.8393 68.3298 25.6528 68.3298C26.0451 68.3298 26.4014 68.3946 26.7434 68.5818C27.2005 68.8229 27.3769 69.1649 27.4669 69.3556C27.96 68.7617 28.5539 68.3298 29.5185 68.3298C30.1628 68.3298 30.7963 68.445 31.2642 68.9993C31.7069 69.5176 31.7213 70.0863 31.7213 70.7342V74.5207C31.7213 74.6719 31.6709 75.1039 31.1274 75.1039C31.0123 75.1039 30.9259 75.0787 30.8359 75.0283C30.5839 74.9131 30.5443 74.7115 30.5443 74.5207V71.6844C30.5443 71.2921 30.5335 70.9502 30.5335 70.7486C30.5335 70.3311 30.4939 69.3556 29.3421 69.3556C28.6439 69.3556 28.2515 69.7228 28.05 70.0251C27.7584 70.4426 27.7728 70.8494 27.7728 71.3929V74.5351C27.7728 74.7259 27.7332 74.9167 27.4957 75.0283C27.3805 75.0931 27.2545 75.1039 27.1897 75.1039C27.0889 75.1039 26.9881 75.0787 26.8874 75.0283C26.6462 74.9131 26.6066 74.7223 26.6066 74.5351V71.3317C26.6066 70.7378 26.621 70.6226 26.5814 70.4318C26.5418 70.2159 26.4554 69.3556 25.4296 69.3556C24.9113 69.3556 24.4434 69.532 24.1374 70.0251C23.8459 70.4822 23.8315 70.9358 23.8315 71.634V74.5351C23.8315 74.6251 23.8063 74.7115 23.7667 74.8123C23.7163 74.9275 23.5507 75.1039 23.2484 75.1039C22.7049 75.1039 22.6545 74.6863 22.6545 74.5351V68.9381H22.6509Z" fill="#58595B"/>
<path d="M35.3567 72.066C35.3927 72.6347 35.5079 73.1422 35.8499 73.5597C36.2926 74.1032 36.8001 74.1788 37.304 74.1788C38.3046 74.1788 38.6574 73.6605 38.8877 73.3042C39.0893 72.9622 39.1397 72.8363 39.4312 72.8363C39.7228 72.8363 40.0899 73.0018 40.0899 73.369C40.0899 73.4338 40.0899 73.4697 40.0755 73.4949C40.0251 73.7361 39.8092 74.0133 39.6688 74.1644C38.7834 75.1507 37.6567 75.1507 37.3004 75.1507C36.4761 75.1507 35.6411 74.9851 34.9968 74.2652C34.4281 73.6209 34.1617 72.7067 34.1617 71.796C34.1617 70.2123 35.022 68.3406 37.2644 68.3406C37.556 68.3406 37.8223 68.3658 38.0887 68.4306C38.6574 68.571 39.1505 68.8373 39.5464 69.3808C39.964 69.9747 40.1799 70.7846 40.1799 71.4973C40.1799 72.0408 39.7732 72.066 39.6112 72.066H35.3567ZM38.9885 71.1158C38.9237 70.2807 38.5062 69.3557 37.2788 69.3557C37.0125 69.3557 36.4941 69.3808 36.0514 69.7732C35.5439 70.2159 35.4323 70.8242 35.3675 71.1158H38.9885ZM37.2032 66.4833L36.3538 67.4948C36.253 67.5955 36.1774 67.6603 36.0226 67.6603C35.7311 67.6603 35.5547 67.4444 35.5547 67.2788C35.5547 67.1924 35.5907 67.1132 35.6303 67.0268L36.4042 65.9398C36.5445 65.7995 36.6597 65.6339 37.2032 65.6339C37.7467 65.6339 37.8727 65.7995 38.0131 65.9398L38.7618 67.0268C38.8014 67.1168 38.8517 67.1924 38.8517 67.2788C38.8517 67.4444 38.6502 67.6603 38.3946 67.6603C38.2039 67.6603 38.1391 67.5847 38.0527 67.4948L37.2032 66.4833ZM37.2176 75.7374C37.5848 75.7374 37.9267 75.9893 37.9267 76.4608C37.9267 76.9036 37.6603 77.1591 37.2176 77.1591C36.7605 77.1591 36.5085 76.8676 36.5085 76.4608C36.5085 76.0037 36.8253 75.7374 37.2176 75.7374Z" fill="#58595B"/>
<path d="M42.6131 68.9525C42.6131 68.7617 42.6491 68.5962 42.8903 68.4594C43.0558 68.3694 43.3222 68.3694 43.4734 68.4594C43.7649 68.5998 43.7505 68.7869 43.7505 69.2944C44.2688 68.5854 44.9275 68.3442 45.7914 68.3442C46.486 68.3442 47.1195 68.5458 47.5407 69.0677C47.9582 69.6112 47.9834 70.2843 47.9834 70.9538V74.5387C47.9834 74.7043 47.933 75.1075 47.4003 75.1075C47.3139 75.1075 47.2095 75.0823 47.0979 75.0427C46.8568 74.9023 46.8208 74.7259 46.8208 74.5352V71.5477C46.8208 70.8782 46.7956 70.7234 46.7956 70.6118C46.7956 70.2699 46.72 69.3448 45.543 69.3448C44.3768 69.3448 43.9845 70.2195 43.8441 70.7882C43.7541 71.1301 43.7829 71.4469 43.7829 71.7888V74.5352C43.7829 74.7007 43.7325 75.1039 43.1998 75.1039C43.1098 75.1039 43.009 75.0787 42.8939 75.0391C42.6527 74.8987 42.6167 74.7223 42.6167 74.5315V68.9525H42.6131Z" fill="#58595B"/>
<path d="M51.9247 69.2189C52.3819 68.6106 53.1773 68.3442 53.9368 68.3442C55.139 68.3442 55.6069 68.9633 55.7077 69.1037C56.1144 69.6724 56.1144 70.4067 56.1144 71.015V74.5352C56.1144 74.6359 56.0892 74.7259 56.0532 74.8123C56.0028 74.9275 55.8517 75.1039 55.5349 75.1039C55.0022 75.1039 54.9518 74.6971 54.9518 74.5352V71.3677C54.9518 70.5938 54.9266 70.2555 54.7754 69.9495C54.4695 69.406 53.9152 69.3916 53.6992 69.3916C53.1557 69.3916 52.6878 69.6184 52.3963 69.9243C51.9391 70.4175 51.9139 70.9502 51.9139 71.5441V74.5316C51.9139 74.6323 51.8887 74.7223 51.8492 74.8087C51.7988 74.9239 51.6476 75.1003 51.3308 75.1003C50.7981 75.1003 50.7477 74.6935 50.7477 74.5316V66.5913C50.7477 66.4401 50.7981 66.0082 51.3308 66.0082C51.8635 66.0082 51.9247 66.4257 51.9247 66.5769V69.2189Z" fill="#58595B"/>
<path d="M63.6803 69.4564H63.0072C62.8669 69.4564 62.5249 69.4204 62.5249 68.9633C62.5249 68.5062 62.8669 68.4702 63.0072 68.4702H63.6911V66.9908C63.6911 66.8253 63.7559 66.4473 64.2598 66.4473C64.8177 66.4473 64.8429 66.8289 64.8429 66.9908V68.4702H65.6276C65.768 68.4702 66.1099 68.5098 66.1099 68.9633C66.1099 69.4204 65.768 69.4564 65.6276 69.4564H64.8429V72.6743C64.8429 73.4337 64.8573 73.5345 64.8933 73.6749C64.9833 74.042 65.2209 74.0924 65.5664 74.132C65.8688 74.132 66.1855 74.1824 66.1855 74.6143C66.1855 75.0715 65.7788 75.1074 65.4368 75.1074C63.6623 75.1074 63.6767 74.1464 63.6767 73.171V69.4564H63.6803Z" fill="#58595B"/>
<path d="M68.8743 66.0118C69.2414 66.0118 69.5833 66.2638 69.5833 66.7353C69.5833 67.178 69.317 67.4336 68.8743 67.4336C68.4171 67.4336 68.1652 67.1312 68.1652 66.7353C68.1652 66.2782 68.4819 66.0118 68.8743 66.0118ZM69.4574 74.5352C69.4574 74.6359 69.4322 74.7259 69.3926 74.8123C69.3422 74.9275 69.191 75.1039 68.8851 75.1039C68.5431 75.1039 68.302 74.8879 68.302 74.5352V68.9525C68.302 68.8013 68.3668 68.3946 68.8707 68.3946C69.4034 68.3946 69.4538 68.8013 69.4538 68.9525V74.5352H69.4574Z" fill="#58595B"/>
<path d="M73.0928 72.066C73.1288 72.6347 73.2439 73.1422 73.5859 73.5597C74.0286 74.1032 74.5361 74.1788 75.04 74.1788C76.0407 74.1788 76.3934 73.6605 76.6238 73.3042C76.8253 72.9622 76.8757 72.8363 77.1673 72.8363C77.4588 72.8363 77.826 73.0018 77.826 73.369C77.826 73.4337 77.826 73.4697 77.8116 73.4949C77.7612 73.7361 77.5452 74.0133 77.4048 74.1644C76.5194 75.1507 75.3928 75.1507 75.0364 75.1507C74.2122 75.1507 73.3771 74.9851 72.7328 74.2652C72.1641 73.6209 71.8978 72.7067 71.8978 71.796C71.8978 70.2123 72.758 68.3406 75.0004 68.3406C75.292 68.3406 75.5583 68.3658 75.8247 68.4306C76.3934 68.571 76.8865 68.8373 77.2824 69.3808C77.7 69.9747 77.9159 70.7846 77.9159 71.4973C77.9159 72.0408 77.5092 72.066 77.3472 72.066H73.0928ZM76.7245 71.1157C76.6598 70.2807 76.2422 69.3556 75.0148 69.3556C74.7485 69.3556 74.2302 69.3808 73.7874 69.7732C73.2799 70.2159 73.1684 70.8242 73.1036 71.1157H76.7245ZM75.0148 66.4689L74.1654 67.4804C74.0646 67.5811 73.989 67.6459 73.8378 67.6459C73.5463 67.6459 73.3699 67.43 73.3699 67.2644C73.3699 67.1744 73.4095 67.0988 73.4455 67.0124L74.2194 65.9218C74.3597 65.7814 74.4713 65.6195 75.0184 65.6195C75.5619 65.6195 75.6879 65.785 75.8283 65.9218L76.577 67.0124C76.6166 67.1024 76.667 67.178 76.667 67.2644C76.667 67.43 76.4654 67.6459 76.2098 67.6459C76.0191 67.6459 75.9579 67.5703 75.8679 67.4804L75.0148 66.4689Z" fill="#58595B"/>
<path d="M80.3527 68.9525C80.3527 68.7617 80.3887 68.5962 80.6299 68.4594C80.7954 68.3694 81.0618 68.3694 81.213 68.4594C81.5045 68.5998 81.4901 68.7869 81.4901 69.2944C82.0084 68.5854 82.6671 68.3442 83.5274 68.3442C84.2257 68.3442 84.8556 68.5458 85.2767 69.0677C85.6942 69.6112 85.7194 70.2843 85.7194 70.9538V74.5387C85.7194 74.7043 85.669 75.1075 85.1363 75.1075C85.0499 75.1075 84.9455 75.0823 84.834 75.0427C84.5928 74.9023 84.5568 74.7259 84.5568 74.5352V71.5477C84.5568 70.8782 84.5316 70.7234 84.5316 70.6118C84.5316 70.2699 84.456 69.3448 83.279 69.3448C82.1128 69.3448 81.7205 70.2195 81.5801 70.7882C81.4901 71.1301 81.5189 71.4469 81.5189 71.7888V74.5352C81.5189 74.7007 81.4685 75.1039 80.9358 75.1039C80.8458 75.1039 80.7451 75.0787 80.6299 75.0391C80.3887 74.8987 80.3527 74.7223 80.3527 74.5315V68.9525Z" fill="#58595B"/>
<path d="M93.1953 68.9633C93.1953 68.7977 93.2457 68.3946 93.7784 68.3946C93.8288 68.3946 93.944 68.3946 94.0808 68.4594C94.3723 68.5998 94.3723 68.8265 94.3723 69.2189C94.8798 68.6106 95.5133 68.3334 96.3232 68.3334C97.9429 68.3334 99.1451 69.5752 99.1451 71.7384C99.1451 73.3222 98.4504 75.1578 96.46 75.1578C95.4089 75.1578 94.9158 74.7403 94.3687 74.258V76.9035C94.3687 77.0547 94.3183 77.4866 93.7748 77.4866C93.6848 77.4866 93.584 77.4614 93.4833 77.4218C93.2313 77.2815 93.1917 77.0907 93.1917 76.9035V68.9633H93.1953ZM96.1828 69.3052C94.9806 69.3052 94.3471 70.2051 94.3471 71.6736C94.3471 73.1422 94.9554 74.2184 96.172 74.2184C96.8451 74.2184 97.2734 73.8873 97.5146 73.5453C97.8673 73.0522 97.9465 72.3539 97.9465 71.76C97.9429 71.1049 97.9069 69.3052 96.1828 69.3052Z" fill="#58595B"/>
<path d="M102.773 69.2189C103.23 68.6106 104.026 68.3442 104.785 68.3442C105.988 68.3442 106.455 68.9633 106.556 69.1037C106.963 69.6724 106.963 70.4067 106.963 71.015V74.5352C106.963 74.6359 106.938 74.7259 106.898 74.8123C106.848 74.9275 106.697 75.1039 106.38 75.1039C105.847 75.1039 105.797 74.6971 105.797 74.5352V71.3677C105.797 70.5938 105.772 70.2555 105.62 69.9495C105.314 69.406 104.76 69.3916 104.544 69.3916C104.001 69.3916 103.533 69.6184 103.241 69.9243C102.784 70.4175 102.759 70.9502 102.759 71.5441V74.5316C102.759 74.6323 102.734 74.7223 102.694 74.8087C102.644 74.9239 102.493 75.1003 102.176 75.1003C101.643 75.1003 101.593 74.6935 101.593 74.5316V66.5913C101.593 66.4401 101.643 66.0082 102.176 66.0082C102.708 66.0082 102.77 66.4257 102.77 66.5769V69.2189H102.773Z" fill="#58595B"/>
<path d="M114.842 74.2328C114.068 75.0823 113.122 75.1578 112.513 75.1578C111.869 75.1578 110.929 75.0823 110.22 74.2724C109.436 73.4229 109.411 72.2459 109.411 71.778C109.411 71.1697 109.475 70.1079 110.195 69.2836C110.969 68.3982 112.045 68.3334 112.574 68.3334C114.435 68.3334 115.677 69.5248 115.677 71.688C115.677 72.2567 115.616 73.3833 114.842 74.2328ZM114.007 73.5345C114.45 72.9658 114.475 72.1668 114.475 71.7636C114.475 70.5362 114.068 69.3052 112.524 69.3052C112.182 69.3052 111.498 69.3556 111.03 70.0287C110.688 70.5218 110.598 71.1805 110.598 71.7744C110.598 72.4187 110.714 73.117 111.066 73.5741C111.322 73.8909 111.815 74.2184 112.535 74.2184C113.107 74.2184 113.665 73.9916 114.007 73.5345Z" fill="#58595B"/>
<path d="M118.128 68.9525C118.128 68.7617 118.164 68.5962 118.405 68.4594C118.571 68.3694 118.837 68.3694 118.989 68.4594C119.28 68.5998 119.266 68.7869 119.266 69.2944C119.784 68.5854 120.443 68.3442 121.307 68.3442C122.005 68.3442 122.635 68.5458 123.056 69.0677C123.473 69.6112 123.499 70.2843 123.499 70.9538V74.5387C123.499 74.7043 123.448 75.1075 122.915 75.1075C122.829 75.1075 122.725 75.0823 122.613 75.0427C122.372 74.9023 122.336 74.7259 122.336 74.5352V71.5477C122.336 70.8782 122.311 70.7234 122.311 70.6118C122.311 70.2699 122.235 69.3448 121.058 69.3448C119.892 69.3448 119.5 70.2195 119.359 70.7882C119.269 71.1301 119.298 71.4469 119.298 71.7888V74.5352C119.298 74.7007 119.248 75.1039 118.715 75.1039C118.625 75.1039 118.524 75.0787 118.409 75.0391C118.168 74.8987 118.132 74.7223 118.132 74.5315V68.9525H118.128Z" fill="#58595B"/>
<path d="M131.626 74.168C131.626 75.5502 131.46 76.2197 130.957 76.6876C130.514 77.0943 129.754 77.3067 128.88 77.3067C128.131 77.3067 127.476 77.1663 127.03 76.8244C126.587 76.5076 126.281 75.9641 126.281 75.6222C126.281 75.2298 126.623 75.0643 126.889 75.0643C127.282 75.0643 127.397 75.3306 127.497 75.5466C127.613 75.7877 127.663 75.8741 127.749 75.9785C128.03 76.2809 128.675 76.3348 128.952 76.3348C130.46 76.3348 130.496 75.3738 130.535 74.4992L130.546 73.9161C130.244 74.258 129.798 74.8015 128.635 74.8015C126.734 74.8015 125.939 73.3438 125.939 71.6736C125.939 71.2165 125.989 70.7882 126.105 70.3707C126.472 69.1037 127.397 68.3442 128.775 68.3442C129.243 68.3442 129.574 68.4342 129.812 68.535C130.305 68.7509 130.456 68.9777 130.597 69.2189C130.607 68.8013 130.607 68.7365 130.661 68.6358C130.712 68.5458 130.838 68.409 131.104 68.409C131.586 68.409 131.622 68.7509 131.622 68.8913V74.168H131.626ZM128.905 69.3448C128.487 69.3448 127.929 69.4708 127.537 70.0287C127.231 70.4714 127.13 71.0653 127.13 71.5873C127.13 72.156 127.231 72.7787 127.537 73.1818C127.789 73.5345 128.235 73.8009 128.804 73.8009C129.398 73.8009 129.905 73.5093 130.197 73.1026C130.539 72.5951 130.564 71.8104 130.564 71.4937C130.564 71.1661 130.564 69.3448 128.905 69.3448Z" fill="#58595B"/>
<path d="M137.713 25.9398L132 31.652C133.699 33.3509 135.751 34.4884 137.918 35.0679C142.32 36.2449 147.211 35.1075 150.663 31.652L159.986 22.3296C157.498 24.8096 154.504 26.4689 151.336 27.3148C146.823 28.5206 141.96 28.0598 137.713 25.9398Z" fill="#F15A22"/>
<path d="M146.337 8.65555C141.283 3.5984 134.124 1.93549 127.678 3.656C124.503 4.50185 121.505 6.16477 119.014 8.65555L132.673 22.3152C134.189 23.8306 135.891 25.0328 137.709 25.9362L141.33 22.3152C144.785 18.8634 149.673 17.726 154.079 18.8994C156.246 19.4789 158.298 20.6127 159.996 22.3152L159.986 22.326L160 22.3152L146.337 8.65555Z" fill="#FFCB05"/>
<path d="M150.66 18.4567H150.652C147.28 18.4567 143.907 19.7453 141.33 22.3188L137.713 25.9398C137.763 25.965 137.813 25.9902 137.864 26.0154C137.867 26.019 137.875 26.019 137.878 26.0226C140.542 27.3184 143.439 27.9699 146.34 27.9699H146.348H146.351C148.014 27.9699 149.677 27.7575 151.297 27.3292L151.34 27.3184C154.507 26.4725 157.502 24.8132 159.989 22.3332L160 22.3224C158.301 20.6235 156.249 19.4861 154.083 18.9066C154.065 18.903 154.047 18.8958 154.029 18.8922C152.927 18.6007 151.793 18.4567 150.66 18.4567Z" fill="#939598"/>
<path d="M137.864 26.0154C137.867 26.019 137.875 26.019 137.878 26.0226C137.875 26.019 137.867 26.0154 137.864 26.0154ZM151.293 27.3256C149.673 27.7539 148.01 27.9663 146.348 27.9663C148.01 27.9699 149.673 27.7539 151.293 27.3256ZM146.34 27.9699H146.348H146.34Z" fill="#905745"/>
<path d="M150.652 18.4567C147.28 18.4567 143.907 19.7453 141.33 22.3188L137.713 25.9398L141.334 22.3188C143.907 19.7453 147.28 18.4567 150.652 18.4567ZM154.025 18.8886C154.043 18.8922 154.061 18.8994 154.079 18.903C156.246 19.4825 158.297 20.6163 159.996 22.3188C158.297 20.6199 156.246 19.4825 154.079 18.903C154.061 18.8994 154.043 18.8958 154.025 18.8886Z" fill="#948456"/>
<path d="M154.079 18.903C149.677 17.7296 144.785 18.8634 141.33 22.3188L137.713 25.9398C141.96 28.0598 146.823 28.5206 151.336 27.3148C154.504 26.4689 157.498 24.8096 159.986 22.3296L159.996 22.3188C158.297 20.6163 156.246 19.4825 154.079 18.903Z" fill="#F7941D"/>
</svg>
