<svg width="160" height="80" viewBox="0 0 160 80" fill="none" xmlns="http://www.w3.org/2000/svg">
<g clip-path="url(#clip0)">
<path d="M66.2431 76.9717C66.2431 76.9717 67.1087 76.8903 67.1087 75.6493C67.1087 74.4083 66.5797 73.9435 66.2046 73.9435C65.8248 73.9435 59.2851 73.9435 59.2851 73.9435V79.9952H66.272C66.272 79.9952 67.1135 79.7844 67.1135 78.3373C67.1087 76.8903 66.2431 76.9717 66.2431 76.9717ZM65.4786 78.7063H60.6652V77.4557H65.4449C65.4449 77.4557 65.9306 77.4892 65.9306 78.0834C65.9258 78.6728 65.4786 78.7063 65.4786 78.7063ZM65.4786 76.2913H60.6652V75.0407H65.4449C65.4449 75.0407 65.9306 75.0743 65.9306 75.6684C65.9258 76.253 65.4786 76.2913 65.4786 76.2913Z" fill="#066287"/>
<path d="M70.7103 73.9435V78.7063C70.7103 78.7063 70.7488 79.9952 72.4606 79.9952C74.1725 79.9952 76.6681 79.9952 76.6681 79.9952C76.6681 79.9952 78.0722 79.9329 78.0722 78.7063C78.0722 77.4749 78.0722 73.9435 78.0722 73.9435H77.2163V78.7063C77.2163 78.7063 77.1009 79.1471 76.5527 79.1471C76.0045 79.1471 72.3837 79.1471 72.3837 79.1471C72.3837 79.1471 71.7201 79.0034 71.7201 78.7063C71.7201 78.4092 71.7201 73.9435 71.7201 73.9435H70.7103Z" fill="#066287"/>
<path d="M88.7906 73.9435H83.4386C83.4386 73.9435 82.049 74.3843 82.049 75.6637C82.049 76.943 82.7222 77.4557 83.4819 77.4557C84.2417 77.4557 87.4009 77.4557 87.4009 77.4557C87.4009 77.4557 88.2424 77.3311 88.2424 78.0834C88.2424 78.8357 87.9058 79.0034 87.4826 79.0034C87.0595 79.0034 82.049 79.0034 82.049 79.0034V80H88.1559C88.1559 80 89.2955 80.1006 89.2955 78.0834C89.2955 76.0661 87.4009 76.2913 87.4009 76.2913H83.7752C83.7752 76.2913 83.1453 76.1524 83.1453 75.6637C83.1453 75.1797 83.5252 75.036 83.8185 75.036C84.1118 75.036 88.7906 75.036 88.7906 75.036V73.9435Z" fill="#066287"/>
<path d="M144.743 73.9435H139.391C139.391 73.9435 138.002 74.3843 138.002 75.6637C138.002 76.943 138.675 77.4557 139.435 77.4557C140.194 77.4557 143.354 77.4557 143.354 77.4557C143.354 77.4557 144.195 77.3311 144.195 78.0834C144.195 78.8357 143.859 79.0034 143.435 79.0034C143.012 79.0034 138.002 79.0034 138.002 79.0034V80H144.109C144.109 80 145.248 80.1006 145.248 78.0834C145.248 76.0661 143.354 76.2913 143.354 76.2913H139.728C139.728 76.2913 139.098 76.1524 139.098 75.6637C139.098 75.1797 139.478 75.036 139.771 75.036C140.065 75.036 144.743 75.036 144.743 75.036V73.9435Z" fill="#066287"/>
<path d="M101.221 73.9435V80H106.563V79.0369H102.091V73.9435H101.221Z" fill="#066287"/>
<path d="M111.785 73.9435H110.915V79.9952H111.785V73.9435Z" fill="#066287"/>
<path d="M116.882 80V73.9435H118.291L122.104 78.2128V73.9435H123.268V80H121.854L118.003 75.7786V80H116.882Z" fill="#066287"/>
<path d="M133.958 73.9435H127.702V80H133.958V78.874H128.904V77.5515H133.462V76.6028H128.904V75.1174H133.958V73.9435Z" fill="#066287"/>
<path d="M3.80362 71.3752H11.4493V51.1692L3.80362 44.5999V71.3752Z" fill="#066287"/>
<path d="M3.80362 37.2592V36.2626H11.4493V43.9674L3.80362 37.2592Z" fill="#066287"/>
<path d="M15.3586 44.5999V71.3752H22.1724V55.4768H22.9225L36.9684 71.3752H43.7822V44.5999H37.1319V60.9439H36.3866L21.9223 44.5999H15.3586Z" fill="#066287"/>
<path d="M47.1049 44.5999H77.6058V51.7489H65.9258V71.3752H58.7417V51.6675H47.1049V44.5999Z" fill="#066287"/>
<path d="M109.107 44.5999H80.3515V71.3752H109.107V64.667H87.3288V61.6052H107.611V54.897H87.247V51.7489H109.107V44.5999Z" fill="#066287"/>
<path d="M146.152 53.5649C146.152 42.8126 134.487 44.5999 133.958 44.5999C133.433 44.5999 112.814 44.5999 112.814 44.5999V71.38H119.657V63.172H127.702L135.073 71.38H144.613L137.194 63.0714C137.189 63.0714 146.152 64.3172 146.152 53.5649ZM120.075 56.1572V51.931H138.002C138.002 51.931 139.31 51.8352 139.31 54.0441C139.31 56.253 138.002 56.1572 138.002 56.1572H120.075Z" fill="#066287"/>
<path d="M154.726 12.1323C154.11 11.1116 152.269 10.8289 151.495 8.41879C150.716 6.01342 148.465 3.32056 143.758 2.95161C143.758 2.95161 143.921 4.70532 143.594 4.8299C143.267 4.95448 144.33 2.13704 136.511 2.34308C136.511 2.34308 138.843 7.68568 141.546 6.50216C141.546 6.50216 141.421 8.95065 138.723 7.11548C136.025 5.28031 135.819 1.56685 135.819 1.56685C135.819 1.56685 127.264 -0.800187 118.464 1.56685C115.56 2.38141 114.329 2.66891 111.708 1.97413C109.088 1.27935 105.63 0.392913 88.4251 7.45089C84.6023 9.35793 75.6055 9.00336 73.908 9.00336C72.2106 9.00336 61.8673 8.64878 57.6887 13.0954C53.51 17.5419 48.9082 27.1394 35.0258 26.5022C35.0258 26.5022 33.1649 25.8745 31.9964 27.6905C31.9964 27.6905 25.3317 36.4303 19.1767 35.7499C13.0265 35.0695 15.2481 41.5381 19.9749 40.9152C24.7017 40.2923 25.0432 40.8002 35.6413 30.5846C35.6413 30.5846 41.0317 30.805 44.5324 31.2554C48.033 31.7058 60.0112 33.3924 69.614 21.3464C69.614 21.3464 68.5272 23.7039 67.5799 24.8251C67.5799 24.8251 69.2437 23.977 69.4216 23.4835C69.5995 22.9899 73.8647 23.0954 79.7985 25.817C85.7323 28.5386 100.495 27.2976 100.495 27.2976C100.495 27.2976 99.2445 24.4178 100.495 22.7839C100.495 22.7839 100.961 28.3086 107.679 29.0082C114.396 29.7077 116.815 29.6311 117.676 29.3196C118.537 29.0082 123.999 29.6311 122.518 34.9209C121.032 40.2108 128.062 39.0465 128.375 36.2434C128.687 33.4403 128.375 29.0082 124.47 27.2928C120.566 25.5822 117.286 23.8668 107.76 22.4677C107.76 22.4677 108.967 22.0795 112.814 22.0029C116.661 21.9262 119.272 20.1342 120.075 17.3359C120.075 17.3359 120.59 18.2798 119.945 19.8467C119.945 19.8467 121.965 18.4092 122.355 17.3359C122.749 16.2626 129.832 12.3431 135.261 14.6191C135.261 14.6191 135.155 7.92526 137.651 9.51606C137.651 9.51606 135.03 12.0029 137.362 14.8203C139.694 17.633 145.138 22.6114 146.325 19.3484C147.061 17.5132 145.835 17.5946 145.426 17.5132C145.017 17.4317 141.046 15.3905 143.873 12.4964C145.921 10.4552 148.783 13.6368 147.845 15.3905C147.845 15.3905 148.744 14.9832 148.951 15.4336C149.158 15.884 150.504 18.2463 152.264 16.574C154.024 14.9018 153.206 14.9449 154.024 14.2885C154.846 13.6416 155.337 13.1529 154.726 12.1323ZM100.567 20.1294C100.567 20.1294 103.452 12.1754 114.642 13.3781C114.646 13.3781 107.669 13.8141 100.567 20.1294ZM148.023 8.37087C147.412 7.81984 148.023 6.74653 148.023 6.74653C150.408 8.02109 150.441 9.99521 150.441 9.99521C149.855 9.96646 148.633 8.9219 148.023 8.37087Z" fill="#066287"/>
<path d="M58.2711 10.7571C58.2711 10.7571 56.0014 12.022 53.4625 15.0072C53.4625 15.0072 42.4893 15.8218 35.9544 14.0153C29.4196 12.2089 21.0767 9.31481 13.0078 5.87925C9.56009 4.25012 6.56915 4.25012 5.29968 4.4322C4.03022 4.61428 2.12602 4.61428 0.856549 3.52659C-0.412918 2.43891 -1.13901 0.814566 5.20832 0C7.62704 0 15.6381 1.9885 18.8118 3.79492C21.9855 5.60134 36.4978 11.84 49.9234 11.2985C63.349 10.7571 58.2711 10.7571 58.2711 10.7571Z" fill="#066287"/>
<path d="M99.4031 1.84955L97.9365 2.6737L71.7634 2.26162L99.4031 1.84955Z" fill="#066287"/>
<path d="M89.1272 5.40967L86.319 6.55485L49.7449 5.66362L89.1272 5.40967Z" fill="#066287"/>
<path d="M108.155 30.4169C108.155 30.4169 106.039 30.0958 104.947 29.5208L87.8818 29.9665L108.155 30.4169Z" fill="#066287"/>
<path d="M120.926 33.4883V34.7005L64.2043 33.4883H120.926Z" fill="#066287"/>
<path d="M120.474 37.3215L122.273 38.9219L60.6652 37.5802L120.474 37.3215Z" fill="#066287"/>
<path d="M149.97 45.6349V42.5922H151.374C151.668 42.5922 151.884 42.621 152.023 42.6785C152.163 42.736 152.278 42.8318 152.365 42.9612C152.456 43.0953 152.5 43.2487 152.5 43.4212C152.5 43.6512 152.423 43.838 152.274 43.9818C152.12 44.1255 151.903 44.2166 151.61 44.2549C151.725 44.3124 151.817 44.3651 151.879 44.4226C152.004 44.5376 152.115 44.667 152.206 44.8107L152.759 45.6397H152.235L151.812 45.0072C151.648 44.758 151.523 44.5903 151.442 44.5088C151.36 44.4226 151.278 44.3651 151.201 44.3364C151.124 44.3076 151.014 44.2932 150.874 44.2932H150.393V45.6445H149.97V45.6349ZM150.389 43.9339H151.288C151.485 43.9339 151.634 43.9147 151.735 43.8764C151.836 43.838 151.918 43.7805 151.975 43.6991C152.033 43.6176 152.067 43.5266 152.067 43.4164C152.067 43.263 152.009 43.1433 151.894 43.0522C151.778 42.966 151.61 42.9181 151.384 42.9181H150.384V43.9339H150.389Z" fill="#066287"/>
<path d="M151.36 40.5558C149.35 40.5558 147.725 42.1802 147.725 44.1782C147.725 46.1811 149.355 47.8007 151.36 47.8007C153.37 47.8007 154.995 46.1763 154.995 44.1782C155 42.1754 153.37 40.5558 151.36 40.5558ZM151.36 47.2305C149.667 47.2305 148.297 45.8649 148.297 44.1782C148.297 42.4916 149.667 41.126 151.36 41.126C153.053 41.126 154.423 42.4916 154.423 44.1782C154.428 45.8649 153.053 47.2305 151.36 47.2305Z" fill="#066287"/>
</g>
<defs>
<clipPath id="clip0">
<rect width="155" height="80" fill="white"/>
</clipPath>
</defs>
</svg>
