<svg width="160" height="80" viewBox="0 0 160 80" fill="none" xmlns="http://www.w3.org/2000/svg">
<path fill-rule="evenodd" clip-rule="evenodd" d="M27.3415 67C42.3868 67 54.6831 54.8745 54.6831 40C54.6831 25.1255 42.3868 13 27.3415 13C12.2963 13 0 25.1255 0 40C0 54.8745 12.2963 67 27.3415 67Z" fill="#FF0000"/>
<path fill-rule="evenodd" clip-rule="evenodd" d="M27.3787 66.0209C41.9039 66.0209 53.7543 54.3473 53.7543 40C53.7543 25.6527 41.9039 13.9791 27.3787 13.9791C12.8535 13.9791 1.04015 25.6904 1.04015 40C1.003 54.3473 12.8535 66.0209 27.3787 66.0209Z" fill="white"/>
<path fill-rule="evenodd" clip-rule="evenodd" d="M27.3786 64.8159C41.198 64.8159 52.4912 53.6694 52.4912 40.0376C52.4912 26.3682 41.198 15.2217 27.3786 15.2217C13.5593 15.2217 2.26603 26.3682 2.26603 40.0376C2.26603 53.6694 13.5593 64.8159 27.3786 64.8159Z" fill="#FF0000"/>
<path fill-rule="evenodd" clip-rule="evenodd" d="M27.3786 16.1255C40.6779 16.1255 51.4882 26.8201 51.4882 40C51.4882 53.1799 40.6779 63.8368 27.3786 63.8368C14.0422 63.8368 3.26903 53.1423 3.26903 40C3.23188 26.8201 14.0422 16.1255 27.3786 16.1255Z" fill="white"/>
<path d="M17.3856 51.7113L10.8474 33.3724H18.5001L21.3234 41.7322L26.0042 28.2887H33.8797L25.4098 51.6736L17.3856 51.7113ZM10.4388 32.1674L10.0302 31.113H17.7571L18.1286 32.205H10.4388V32.1674ZM9.58438 29.8703L9.02715 28.3264H16.7913L17.3113 29.9079H9.58438V29.8703Z" fill="#FF0000"/>
<path d="M27.0444 51.7113L27.4159 50.5816H44.5786L44.2072 51.6736L27.0444 51.7113ZM27.8245 49.3766L28.4932 47.5314H45.7303L45.0616 49.3766H27.8245ZM28.9018 46.3264L35.2543 28.2887H42.0897L36.5174 44.933H46.7333L46.176 46.3264H28.9018Z" fill="#FF0000"/>
<path d="M61.8528 58.9414C61.7785 59.318 61.667 59.7322 61.5556 60.1464C61.4442 60.636 61.2956 61.1632 61.0727 61.728C61.3327 61.6904 61.5927 61.5774 61.8156 61.3891C62.0757 61.2385 62.2614 61.0502 62.41 60.8242C62.5958 60.636 62.7072 60.41 62.8187 60.1088C62.9301 59.8828 62.9673 59.5816 62.9673 59.318C62.9673 58.9037 62.7815 58.6778 62.4472 58.6778C62.2243 58.7531 62.0014 58.7908 61.8528 58.9414ZM63.7474 59.7699C63.7474 60.1088 63.6731 60.41 63.5616 60.6736C63.413 60.9372 63.2273 61.2008 62.9673 61.4268C62.7444 61.6527 62.41 61.8033 62.0757 61.9916C61.7042 62.1046 61.3327 62.2176 60.8869 62.3305C60.5526 63.3849 60.3297 64.3263 60.2554 65.1925C60.1811 65.1925 60.1068 65.1548 60.0325 65.1171C59.9582 65.0795 59.8839 65.0042 59.8096 64.9289C59.7725 64.8535 59.7353 64.7406 59.6982 64.6276C59.661 64.477 59.661 64.364 59.661 64.251C59.661 63.7991 59.8096 63.0837 60.1811 62.0293C60.3668 61.3514 60.5897 60.8242 60.7012 60.3724C60.8498 59.9581 60.9241 59.6192 60.9612 59.3933C60.8869 59.4309 60.8126 59.4686 60.7012 59.5439C60.6269 59.6192 60.5526 59.6945 60.4411 59.7699V59.6192C60.4411 59.205 60.5897 58.9037 60.9241 58.6778C61.2213 58.4895 61.7042 58.3389 62.3357 58.3389C63.2645 58.3012 63.7474 58.7908 63.7474 59.7699ZM65.7163 58.6025C65.642 58.7155 65.5677 58.8661 65.4562 59.0544C65.3448 59.2427 65.2705 59.4686 65.159 59.6945C65.0476 59.9205 64.9361 60.1464 64.8247 60.41C64.6761 60.6736 64.6018 60.8996 64.4904 61.1255C64.3789 61.3514 64.2675 61.615 64.1932 61.841C64.1189 62.0293 64.0446 62.2176 64.0074 62.4058C64.5275 61.3514 65.0104 60.8242 65.4562 60.8242C65.6791 60.8242 65.7906 61.0502 65.7906 61.5021C65.7906 61.841 65.7163 62.3682 65.4934 63.0837C65.3448 63.4979 65.2705 63.8745 65.1962 64.2134C65.1219 64.5523 65.0476 64.8912 65.0476 65.1548C64.899 65.1548 64.7875 65.0795 64.6761 64.8912C64.5647 64.7029 64.5275 64.4393 64.5275 64.1381C64.5275 63.7991 64.6018 63.3473 64.7876 62.8201C64.9361 62.2552 65.0476 61.954 65.0476 61.8033C65.0476 61.728 65.0104 61.6904 64.9361 61.6904C64.8618 61.6904 64.7875 61.728 64.7133 61.8033C64.639 61.8786 64.5275 62.0293 64.4161 62.1799C64.3418 62.3305 64.2303 62.5565 64.1189 62.7448C64.0074 62.9707 63.9331 63.159 63.8217 63.3849C63.7474 63.6485 63.6359 63.8745 63.5616 64.1004C63.4502 64.3263 63.413 64.5523 63.3759 64.7782C63.2644 64.7782 63.153 64.7029 63.0787 64.5523C63.0044 64.4017 62.9673 64.2134 62.9673 63.9874C62.9673 63.4979 63.2273 62.5565 63.7102 61.2008C63.9331 60.6736 64.0817 60.1841 64.2303 59.8452C64.3789 59.4686 64.5275 59.205 64.6761 58.9791C64.8247 58.7908 64.9361 58.6025 65.0847 58.5272C65.1962 58.4142 65.3076 58.3765 65.4191 58.3765C65.4934 58.3765 65.642 58.4142 65.7163 58.6025V58.5648V58.6025ZM67.0165 62.1046C66.7193 62.6694 66.5335 63.1966 66.5335 63.7238C66.5335 63.9121 66.6078 64.0251 66.7193 64.0251C66.8307 64.0251 66.905 63.9874 67.0165 63.9121C67.1279 63.8368 67.2022 63.7238 67.2765 63.6109C67.388 63.4602 67.4623 63.3473 67.5366 63.1213C67.648 62.9707 67.6852 62.7824 67.7595 62.5941C67.8338 62.4058 67.8709 62.2176 67.9081 62.0293C67.9452 61.841 67.9823 61.6904 67.9823 61.5021C67.9823 61.3138 67.9081 61.2008 67.8338 61.2008C67.6109 61.2761 67.3137 61.5397 67.0165 62.1046ZM66.385 61.6904C66.8307 61.0502 67.2765 60.7489 67.7595 60.7489C68.1681 60.7489 68.3538 61.0502 68.3538 61.615C68.3538 62.2552 68.1681 62.933 67.7966 63.6485C67.388 64.4393 66.905 64.8159 66.385 64.8159C65.9392 64.8159 65.7534 64.477 65.7534 63.8368C65.7534 63.046 65.9763 62.3305 66.385 61.6904ZM70.3599 61.6527C70.2856 61.6527 70.2113 61.6904 70.137 61.8033C70.0255 61.8786 69.9512 61.9916 69.8398 62.1799C69.7283 62.3305 69.6169 62.5188 69.5054 62.7448C69.3569 62.933 69.2826 63.159 69.1711 63.3849C69.0597 63.6485 68.9854 63.8745 68.8739 64.1004C68.7996 64.3263 68.7253 64.5523 68.6882 64.7782C68.5767 64.7782 68.4653 64.7029 68.391 64.5523C68.3167 64.4017 68.2795 64.2134 68.2795 63.9874C68.2795 63.6862 68.4281 63.1966 68.6882 62.5565C68.8368 62.1799 68.9482 61.841 69.0597 61.5397C69.1711 61.2008 69.2454 60.9749 69.2454 60.7113C69.5797 60.7113 69.7655 60.9372 69.7655 61.3514C69.7655 61.6527 69.654 61.9916 69.4683 62.3682C69.654 62.0669 69.8026 61.841 69.9512 61.615C70.0627 61.4268 70.2113 61.2761 70.3227 61.1632C70.397 61.0502 70.5085 61.0125 70.6199 60.9372C70.6942 60.8996 70.8057 60.8996 70.9171 60.8996C71.14 60.8996 71.2514 61.0878 71.2514 61.5397C71.2514 61.8786 71.14 62.4058 70.9171 63.1213C70.6571 63.9121 70.5085 64.5899 70.4342 65.1548C70.3227 65.1548 70.1741 65.0795 70.0998 64.8912C69.9884 64.7029 69.9512 64.4393 69.9512 64.1381C69.9512 63.7991 70.0255 63.3849 70.2113 62.8201C70.397 62.2552 70.4713 61.954 70.4713 61.8033C70.4342 61.6904 70.4342 61.6527 70.3599 61.6527ZM73.4432 60.7113C73.8147 60.7113 74.0748 60.8242 74.2605 61.0502C74.0748 61.4268 73.889 62.0669 73.7033 62.8201L73.1832 64.7782C72.9603 65.5314 72.6259 66.0962 72.3288 66.4351C72.0316 66.8117 71.6229 67 71.1771 67C70.9914 67 70.88 66.9247 70.7314 66.8494C70.6199 66.7364 70.5456 66.6234 70.5456 66.4351C70.5456 66.1715 70.6199 66.0209 70.7685 65.9832C70.7685 66.0962 70.8057 66.2468 70.9171 66.3222C70.9914 66.4351 71.1028 66.4728 71.2143 66.4728C71.3629 66.4728 71.4743 66.4351 71.6601 66.3598C71.7715 66.2845 71.883 66.1339 71.9573 65.9832C72.0687 65.8326 72.1802 65.569 72.2545 65.3054C72.3659 65.0418 72.4774 64.7029 72.5517 64.3263L72.8117 63.2343C72.4774 64.251 71.9944 64.7782 71.5115 64.7782C71.2514 64.7782 71.1028 64.477 71.1028 63.9498C71.1028 63.5732 71.14 63.1966 71.2886 62.8201C71.4 62.4435 71.5858 62.1046 71.7715 61.841C71.9573 61.5397 72.2173 61.3138 72.4774 61.1255C72.8488 60.7866 73.146 60.7113 73.4432 60.7113ZM72.4031 61.9916C72.143 62.5188 71.9944 63.0084 71.9944 63.4226C71.9944 63.5732 72.0687 63.6109 72.1059 63.6109C72.2916 63.6109 72.5517 63.3096 72.8117 62.7071L73.1832 61.9163L73.5175 61.2008L73.4061 61.1632C73.0346 61.1632 72.7002 61.4644 72.4031 61.9916ZM78.7184 58.9414C78.5698 58.9414 78.384 59.0167 78.1983 59.1673C78.0497 59.318 77.8639 59.5063 77.6782 59.7699C77.4924 60.0711 77.3439 60.41 77.1953 60.7866C77.0467 61.2008 76.9352 61.6527 76.8238 62.1799C76.7495 62.4812 76.7123 62.7071 76.6752 62.9707C76.638 63.1966 76.6009 63.4226 76.6009 63.6485C76.6009 64.0627 76.7495 64.2887 77.0095 64.2887C77.1953 64.2887 77.4553 64.1381 77.6782 63.7991C77.9011 63.4602 78.1611 63.0083 78.3469 62.4058C78.4212 62.5188 78.4583 62.6694 78.4583 62.8577C78.4583 63.0837 78.384 63.3849 78.3097 63.6109C78.1983 63.8368 78.0868 64.0627 77.9382 64.251C77.7896 64.4393 77.641 64.5899 77.4181 64.7029C77.2324 64.8159 77.0095 64.8159 76.7866 64.8159C76.4894 64.8159 76.1922 64.7029 76.0065 64.4017C75.8207 64.1004 75.7093 63.6862 75.7093 63.1966C75.7093 62.7824 75.7465 62.3682 75.8579 61.9163C75.9322 61.5021 76.0436 61.0878 76.2294 60.7113C76.4151 60.3347 76.6009 59.9581 76.8609 59.6569C77.121 59.318 77.381 59.0167 77.7153 58.7908C78.124 58.5272 78.4583 58.3765 78.8298 58.3765C79.2756 58.3765 79.4985 58.6025 79.4985 58.9791C79.4985 59.2803 79.387 59.5063 79.2013 59.5439C79.1641 59.1297 78.9784 58.9414 78.7184 58.9414ZM80.6501 61.9163L81.0216 61.2008L80.873 61.1632C80.8358 61.1632 80.8358 61.1632 80.8358 61.1632C80.7987 61.1632 80.7987 61.1632 80.7615 61.1632C80.5758 61.1632 80.4272 61.2385 80.2786 61.3514C80.13 61.5397 79.9814 61.728 79.8328 61.954C79.6842 62.1799 79.6099 62.4435 79.4985 62.7448C79.4242 63.0083 79.387 63.2719 79.387 63.4979C79.387 63.6109 79.4242 63.6862 79.4985 63.6862C79.6099 63.6862 79.7214 63.6109 79.8328 63.4602C79.9443 63.3096 80.0929 63.046 80.2786 62.7448L80.6501 61.9163ZM79.2013 61.8033C79.6842 61.0878 80.2043 60.7113 80.8358 60.7113C81.1702 60.7113 81.4674 60.8242 81.6531 61.0502C81.4674 61.5021 81.3559 61.9163 81.2445 62.2929C81.133 62.6318 81.0587 62.9707 80.9844 63.2719C80.9101 63.5732 80.873 63.8368 80.8358 64.1004C80.8358 64.4017 80.7987 64.7029 80.7987 64.9665C80.6129 64.9665 80.5015 64.8535 80.3529 64.6276C80.2786 64.4017 80.2043 64.1381 80.2043 63.7615C80.2043 63.6485 80.2415 63.5732 80.2415 63.4226C80.2415 63.3096 80.2786 63.2719 80.2786 63.159C80.0557 63.6862 79.8328 64.0627 79.6099 64.3263C79.4242 64.5899 79.1641 64.7029 78.9041 64.7029C78.6812 64.7029 78.5326 64.4017 78.5326 63.8368C78.5698 63.1966 78.7927 62.4435 79.2013 61.8033ZM80.7244 60.0335C81.2445 59.7322 81.616 59.205 81.8017 58.4519C81.9875 58.6025 82.0618 58.7908 82.0618 59.0167C82.0618 59.1673 82.0246 59.318 81.9875 59.4686C81.9132 59.6192 81.8389 59.7322 81.7646 59.8452C81.6531 59.9581 81.5788 60.0335 81.4674 60.1088C81.3559 60.1841 81.2445 60.1841 81.133 60.1841C81.0216 60.1841 80.9473 60.1464 80.8358 60.1088L80.7244 60.0335ZM82.7304 62.2552C82.3961 62.933 82.2475 63.4602 82.2475 63.9121C82.2475 64.1381 82.2846 64.251 82.3961 64.251C82.7304 64.251 83.0648 63.7991 83.4363 62.8577C83.5106 62.933 83.5477 63.0083 83.5477 63.159C83.5477 63.3473 83.5106 63.5355 83.3991 63.7238C83.2877 63.9121 83.1762 64.0627 83.0276 64.251C82.879 64.4017 82.7304 64.5523 82.5447 64.6276C82.3589 64.7406 82.136 64.7782 81.9875 64.7782C81.5788 64.7782 81.3559 64.477 81.3559 63.8745C81.3559 63.159 81.616 62.4435 82.1732 61.728C82.6933 61.0878 83.1762 60.7489 83.6592 60.7489C83.9192 60.7489 84.0306 60.8619 84.0306 61.0878C84.0306 61.2761 83.9935 61.4268 83.8449 61.5021C83.7706 61.3138 83.6963 61.2008 83.5849 61.2008C83.362 61.2008 83.0648 61.5774 82.7304 62.2552ZM86.5568 58.6025C86.4825 58.7155 86.4082 58.8661 86.2967 59.0544C86.1853 59.2427 86.111 59.4686 85.9995 59.6945C85.8881 59.9205 85.7766 60.1464 85.6652 60.41C85.5537 60.6736 85.4423 60.8996 85.368 61.1255C85.2565 61.3514 85.1451 61.615 85.0708 61.841C84.9594 62.0293 84.8851 62.2176 84.8479 62.4058C85.368 61.3514 85.8509 60.8242 86.3339 60.8242C86.5568 60.8242 86.6682 61.0502 86.6682 61.5021C86.6682 61.841 86.5568 62.3682 86.3339 63.0837C86.2224 63.4979 86.1481 63.8745 86.0367 64.2134C85.9624 64.5523 85.9252 64.8912 85.8881 65.1548C85.7395 65.1548 85.628 65.0795 85.5166 64.8912C85.4051 64.7029 85.368 64.4393 85.368 64.1381C85.368 63.7991 85.4423 63.3473 85.5909 62.8201C85.7395 62.2552 85.8509 61.954 85.8509 61.8033C85.8509 61.728 85.8138 61.6904 85.7395 61.6904C85.7023 61.6904 85.628 61.728 85.5166 61.8033C85.4423 61.8786 85.3308 62.0293 85.2194 62.1799C85.1451 62.3305 85.0337 62.5565 84.9222 62.7448C84.8108 62.9707 84.7365 63.159 84.625 63.3849C84.5507 63.6485 84.4393 63.8745 84.365 64.1004C84.2907 64.3263 84.2164 64.5523 84.1792 64.7782C84.0678 64.7782 83.9563 64.7029 83.882 64.5523C83.8077 64.4017 83.7706 64.2134 83.7706 63.9874C83.7706 63.4979 84.0306 62.5565 84.5136 61.2008C84.7365 60.6736 84.8851 60.1841 85.0337 59.8452C85.1822 59.4686 85.3308 59.205 85.4794 58.9791C85.628 58.7908 85.7395 58.6025 85.8509 58.5272C85.9624 58.4142 86.0738 58.3765 86.1853 58.3765C86.371 58.3765 86.4825 58.4142 86.5568 58.6025V58.5648V58.6025ZM90.6803 58.9414C90.5688 59.318 90.4945 59.7322 90.3459 60.1464C90.2345 60.636 90.0859 61.1632 89.9002 61.728C90.1602 61.6904 90.4202 61.5774 90.6431 61.3891C90.866 61.2385 91.0889 61.0502 91.2375 60.8242C91.4233 60.636 91.5347 60.41 91.6833 60.1088C91.7576 59.8828 91.7947 59.5816 91.7947 59.318C91.7947 58.9037 91.6461 58.6778 91.2747 58.6778C91.0518 58.7531 90.8289 58.7908 90.6803 58.9414ZM92.5749 59.7699C92.5749 60.1088 92.5006 60.41 92.3891 60.6736C92.2777 60.9372 92.0919 61.2008 91.8319 61.4268C91.5718 61.6527 91.2747 61.8033 90.9403 61.9916C90.606 62.1046 90.1973 62.2176 89.7516 62.3305C89.3801 63.3849 89.1572 64.3263 89.0829 65.1925C89.0086 65.1925 88.9343 65.1548 88.86 65.1171C88.7857 65.0795 88.7114 65.0042 88.6742 64.9289C88.5999 64.8535 88.5628 64.7406 88.5256 64.6276C88.4885 64.477 88.4513 64.364 88.4513 64.251C88.4513 63.7991 88.5999 63.0837 88.9714 62.0293C89.1943 61.3514 89.3801 60.8242 89.4915 60.3724C89.6401 59.9581 89.7144 59.6192 89.7516 59.3933C89.6401 59.4309 89.5658 59.4686 89.4915 59.5439C89.3801 59.6192 89.3058 59.6945 89.1943 59.7699L89.1572 59.6192C89.1572 59.205 89.3058 58.9037 89.6401 58.6778C89.9744 58.4895 90.4574 58.3389 91.0518 58.3389C92.0919 58.3012 92.5749 58.7908 92.5749 59.7699ZM94.5438 58.6025C94.4695 58.7155 94.358 58.8661 94.2837 59.0544C94.1723 59.2427 94.0608 59.4686 93.9494 59.6945C93.8379 59.9205 93.7265 60.1464 93.615 60.41C93.5036 60.6736 93.3921 60.8996 93.2807 61.1255C93.1693 61.3514 93.095 61.615 93.0207 61.841C92.9464 62.0293 92.8721 62.2176 92.7978 62.4058C93.2807 61.3514 93.8008 60.8242 94.2466 60.8242C94.4695 60.8242 94.5809 61.0502 94.5809 61.5021C94.5809 61.841 94.4695 62.3682 94.2837 63.0837C94.1351 63.4979 94.0608 63.8745 93.9865 64.2134C93.9122 64.5523 93.8751 64.8912 93.8379 65.1548C93.6893 65.1548 93.5779 65.0795 93.4664 64.8912C93.3921 64.7029 93.355 64.4393 93.355 64.1381C93.355 63.7991 93.4293 63.3473 93.615 62.8201C93.7636 62.2552 93.8379 61.954 93.8379 61.8033C93.8379 61.728 93.8008 61.6904 93.7636 61.6904C93.6893 61.6904 93.615 61.728 93.5407 61.8033C93.4664 61.8786 93.355 62.0293 93.2435 62.1799C93.1321 62.3305 93.0207 62.5565 92.9464 62.7448C92.8349 62.9707 92.7235 63.159 92.6492 63.3849C92.5377 63.6485 92.4634 63.8745 92.3891 64.1004C92.3148 64.3263 92.2405 64.5523 92.2034 64.7782C92.0919 64.7782 91.9805 64.7029 91.9062 64.5523C91.7947 64.4017 91.7947 64.2134 91.7947 63.9874C91.7947 63.4979 92.0548 62.5565 92.5377 61.2008C92.7235 60.6736 92.8721 60.1841 93.0578 59.8452C93.2064 59.4686 93.355 59.205 93.5036 58.9791C93.6522 58.7908 93.7636 58.6025 93.8751 58.5272C93.9865 58.4142 94.098 58.3765 94.2094 58.3765C94.358 58.3765 94.4695 58.4142 94.5438 58.6025V58.5648V58.6025ZM95.9926 61.4644C95.9926 61.8033 95.8811 62.2176 95.6954 62.7448C95.5096 63.2719 95.3982 63.5732 95.3982 63.7238C95.3982 63.7991 95.4353 63.8368 95.4725 63.8368C95.5468 63.8368 95.6211 63.7991 95.6954 63.7238C95.8068 63.6485 95.8811 63.4979 95.9554 63.3473C96.0669 63.1966 96.1783 63.0084 96.2897 62.7824C96.364 62.5941 96.4755 62.3682 96.5869 62.1422C96.6984 61.9163 96.7727 61.6904 96.847 61.4644C96.9213 61.2008 96.9956 61.0125 97.0699 60.7866C97.1813 60.7866 97.2928 60.8619 97.3671 61.0125C97.4414 61.1255 97.4785 61.3514 97.4785 61.5397C97.4785 61.728 97.4414 61.954 97.3671 62.2176L97.1442 62.9707C97.0327 63.3473 96.9213 63.6862 96.8841 64.0251C96.847 64.364 96.8098 64.6653 96.8098 64.9665C96.6612 64.9665 96.5126 64.8535 96.4012 64.6653C96.2898 64.4393 96.2526 64.1757 96.2526 63.7991C96.2526 63.5732 96.2897 63.3849 96.3269 63.2343C95.8068 64.251 95.361 64.7406 94.9524 64.7406C94.8409 64.7406 94.7666 64.6653 94.6923 64.5523C94.618 64.4393 94.5809 64.2887 94.5809 64.0627C94.5809 63.7238 94.7295 63.1966 94.9895 62.5188C95.2496 61.7657 95.4353 61.0878 95.4725 60.5606C95.6211 60.5606 95.7325 60.636 95.844 60.7866C95.9183 60.9372 95.9926 61.1632 95.9926 61.4644V61.4268V61.4644ZM95.1753 65.9079C95.1753 65.8326 95.2124 65.7573 95.2124 65.682C95.2496 65.6067 95.2496 65.5314 95.2867 65.4937C95.3239 65.4184 95.361 65.3807 95.3982 65.3431C95.4353 65.3054 95.4725 65.2678 95.5468 65.2678C95.6582 65.2678 95.7325 65.3431 95.8068 65.4184C95.8811 65.5314 95.9183 65.6443 95.9183 65.795C95.9183 65.8703 95.8811 65.9456 95.8811 66.0209C95.844 66.0962 95.844 66.1339 95.8068 66.2092C95.7697 66.2845 95.7325 66.3222 95.6954 66.3598C95.6582 66.3975 95.5839 66.4351 95.5468 66.4351C95.4353 66.4351 95.361 66.3598 95.2867 66.2845C95.2124 66.1715 95.1753 66.0962 95.1753 65.9079ZM98.7044 62.2552C98.4072 62.933 98.2215 63.4602 98.2215 63.9121C98.2215 64.1381 98.2958 64.251 98.4072 64.251C98.7416 64.251 99.0759 63.7991 99.4474 62.8577C99.4845 62.933 99.5588 63.0083 99.5588 63.159C99.5588 63.3473 99.4845 63.5355 99.4103 63.7238C99.2988 63.9121 99.1874 64.0627 99.0388 64.251C98.8902 64.4017 98.7416 64.5523 98.5558 64.6276C98.3701 64.7406 98.1843 64.7782 97.9986 64.7782C97.59 64.7782 97.4042 64.477 97.4042 63.8745C97.4042 63.159 97.6643 62.4435 98.2215 61.728C98.7416 61.0878 99.2245 60.7489 99.7074 60.7489C99.9675 60.7489 100.116 60.8619 100.116 61.0878C100.116 61.2761 100.042 61.4268 99.9303 61.5021C99.856 61.3138 99.7817 61.2008 99.6703 61.2008C99.3731 61.2008 99.0388 61.5774 98.7044 62.2552ZM105.614 59.0544C105.614 59.2803 105.577 59.5063 105.54 59.7699C105.466 60.0711 105.391 60.3347 105.28 60.636C105.168 60.9749 105.057 61.2761 104.871 61.5774C104.723 61.9163 104.574 62.2176 104.388 62.5188C104.24 62.8201 104.054 63.1213 103.868 63.3473C103.682 63.6485 103.459 63.8368 103.311 64.0251C102.865 64.477 102.456 64.7406 102.085 64.7406C101.788 64.7406 101.639 64.364 101.639 63.6862C101.639 63.5355 101.676 63.3096 101.676 63.046C101.713 62.7824 101.751 62.5188 101.825 62.2552C101.899 61.954 101.936 61.6527 102.011 61.3514C102.085 61.0502 102.159 60.7489 102.234 60.4477C102.308 60.1841 102.419 59.8828 102.494 59.6192C102.568 59.3933 102.679 59.1297 102.754 58.9414C102.939 58.5648 103.162 58.3389 103.422 58.3389C103.571 58.3389 103.72 58.4142 103.831 58.5272C103.645 59.0167 103.422 59.5439 103.274 60.0335C103.088 60.5606 102.977 61.0125 102.791 61.4644C102.679 61.8786 102.605 62.2929 102.531 62.7071C102.456 63.0837 102.419 63.3849 102.419 63.6485C102.419 63.9121 102.494 63.9874 102.605 63.9874C103.051 63.9874 103.571 63.2719 104.202 61.728C104.462 61.0878 104.648 60.4853 104.834 59.9205C105.02 59.318 105.131 58.7531 105.243 58.1883C105.503 58.3012 105.614 58.6025 105.614 59.0544ZM106.134 61.4644C106.134 61.8033 106.06 62.2176 105.874 62.7448C105.651 63.2719 105.577 63.5732 105.577 63.7238C105.577 63.7991 105.614 63.8368 105.651 63.8368C105.726 63.8368 105.8 63.7991 105.874 63.7238C105.948 63.6485 106.06 63.4979 106.134 63.3473C106.246 63.1966 106.357 63.0084 106.469 62.7824C106.58 62.5941 106.691 62.3682 106.803 62.1422C106.914 61.9163 106.989 61.6904 107.063 61.4644C107.137 61.2008 107.212 61.0125 107.249 60.7866C107.36 60.7866 107.472 60.8619 107.546 61.0125C107.62 61.1255 107.657 61.3514 107.657 61.5397C107.657 61.728 107.62 61.954 107.546 62.2176L107.323 62.9707C107.211 63.3473 107.137 63.6862 107.063 64.0251C107.026 64.364 106.989 64.6653 106.989 64.9665C106.803 64.9665 106.691 64.8535 106.58 64.6653C106.469 64.4393 106.431 64.1757 106.431 63.7991C106.431 63.5732 106.469 63.3849 106.506 63.2343C105.986 64.251 105.54 64.7406 105.094 64.7406C105.02 64.7406 104.908 64.6653 104.871 64.5523C104.797 64.4393 104.76 64.2887 104.76 64.0627C104.76 63.7238 104.908 63.1966 105.168 62.5188C105.428 61.7657 105.614 61.0878 105.651 60.5606C105.8 60.5606 105.911 60.636 106.023 60.7866C106.097 60.9372 106.134 61.1632 106.134 61.4644V61.4268V61.4644ZM105.354 65.9079C105.354 65.8326 105.354 65.7573 105.391 65.682C105.428 65.6067 105.428 65.5314 105.466 65.4937C105.503 65.4184 105.54 65.3807 105.577 65.3431C105.614 65.3054 105.651 65.2678 105.688 65.2678C105.8 65.2678 105.874 65.3431 105.948 65.4184C106.023 65.5314 106.06 65.6443 106.06 65.795C106.06 65.8703 106.06 65.9456 106.023 66.0209C105.986 66.0962 105.986 66.1339 105.948 66.2092C105.911 66.2845 105.874 66.3222 105.837 66.3598C105.8 66.3975 105.726 66.4351 105.688 66.4351C105.614 66.4351 105.54 66.3598 105.466 66.2845C105.391 66.1715 105.354 66.0962 105.354 65.9079ZM110.258 61.1255C110.592 59.9958 110.852 59.092 110.964 58.3389H111.038C111.372 58.3389 111.558 58.5648 111.558 59.092C111.558 59.3933 111.409 60.1464 111.038 61.3514L112.338 61.2761C112.487 60.7866 112.635 60.3347 112.784 59.9581C112.932 59.5816 113.081 59.2803 113.192 59.0167C113.341 58.7531 113.453 58.6025 113.638 58.4519C113.75 58.3389 113.898 58.3012 114.047 58.3012C114.233 58.3012 114.344 58.3765 114.493 58.5272C114.01 59.1297 113.601 60.0711 113.155 61.4268C112.672 62.8577 112.449 64.1757 112.449 65.2301C112.338 65.2301 112.264 65.1925 112.189 65.1548C112.115 65.1171 112.041 65.0042 111.967 64.8912C111.929 64.7782 111.855 64.7029 111.818 64.5523C111.781 64.4017 111.744 64.251 111.744 64.1004C111.744 63.5355 111.892 62.7824 112.152 61.841L110.852 61.954L110.146 64.1004C109.961 64.6276 109.738 64.8912 109.515 64.8912C109.255 64.8912 109.106 64.7782 109.032 64.6276C109.329 63.9874 109.663 63.046 110.072 61.7657C109.849 61.6527 109.738 61.3891 109.738 61.0502C109.738 60.9372 109.738 60.8619 109.775 60.8242C109.923 60.9372 110.109 61.0502 110.258 61.1255ZM115.384 61.9163L115.719 61.2008L115.57 61.1632H115.533H115.496C115.347 61.1632 115.198 61.2385 115.013 61.3514C114.864 61.5397 114.716 61.728 114.567 61.954C114.456 62.1799 114.344 62.4435 114.27 62.7448C114.195 63.0083 114.158 63.2719 114.158 63.4979C114.158 63.6109 114.195 63.6862 114.27 63.6862C114.344 63.6862 114.456 63.6109 114.567 63.4602C114.716 63.3096 114.864 63.046 115.013 62.7448L115.384 61.9163ZM113.898 61.8033C114.381 61.0878 114.938 60.7113 115.57 60.7113C115.904 60.7113 116.202 60.8242 116.35 61.0502C116.202 61.5021 116.053 61.9163 115.941 62.2929C115.83 62.6318 115.756 62.9707 115.681 63.2719C115.607 63.5732 115.57 63.8368 115.57 64.1004C115.533 64.4017 115.533 64.7029 115.533 64.9665C115.347 64.9665 115.198 64.8535 115.087 64.6276C114.976 64.4017 114.938 64.1381 114.938 63.7615C114.938 63.6485 114.938 63.5732 114.938 63.4226C114.976 63.3096 114.976 63.2719 114.976 63.159C114.79 63.6862 114.53 64.0627 114.344 64.3263C114.121 64.5899 113.861 64.7029 113.638 64.7029C113.378 64.7029 113.267 64.4017 113.267 63.8368C113.267 63.1966 113.453 62.4435 113.898 61.8033ZM116.536 60.0335L116.424 60.1088L116.127 60.1841C116.053 60.1841 115.941 60.1464 115.867 60.1088C115.793 60.0335 115.681 59.9581 115.644 59.8828C115.57 59.7699 115.533 59.6945 115.496 59.5439C115.459 59.4309 115.421 59.318 115.421 59.1673C115.421 58.7531 115.533 58.5272 115.719 58.4142C115.793 59.205 116.053 59.7322 116.536 60.0335ZM118.319 61.6527C118.245 61.6527 118.17 61.6904 118.096 61.8033C117.985 61.8786 117.91 61.9916 117.799 62.1799C117.687 62.3305 117.576 62.5188 117.465 62.7448C117.353 62.933 117.242 63.159 117.13 63.3849C117.019 63.6485 116.907 63.8745 116.833 64.1004C116.759 64.3263 116.684 64.5523 116.61 64.7782C116.499 64.7782 116.387 64.7029 116.313 64.5523C116.239 64.4017 116.202 64.2134 116.202 63.9874C116.202 63.6862 116.313 63.1966 116.61 62.5565C116.759 62.1799 116.87 61.841 117.019 61.5397C117.093 61.2008 117.167 60.9749 117.205 60.7113C117.539 60.7113 117.725 60.9372 117.725 61.3514C117.725 61.6527 117.65 61.9916 117.465 62.3682C117.613 62.0669 117.762 61.841 117.948 61.615C118.059 61.4268 118.17 61.2761 118.282 61.1632C118.393 61.0502 118.505 61.0125 118.579 60.9372C118.653 60.8996 118.765 60.8996 118.876 60.8996C119.099 60.8996 119.211 61.0878 119.211 61.5397C119.211 61.8786 119.099 62.4058 118.876 63.1213C118.616 63.9121 118.43 64.5899 118.393 65.1548C118.245 65.1548 118.133 65.0795 118.059 64.8912C117.948 64.7029 117.91 64.4393 117.91 64.1381C117.91 63.7991 117.985 63.3849 118.17 62.8201C118.356 62.2552 118.43 61.954 118.43 61.8033C118.393 61.6904 118.356 61.6527 118.319 61.6527ZM121.365 60.7113C121.7 60.7113 122.034 60.8242 122.182 61.0502C122.034 61.4268 121.848 62.0669 121.588 62.8201L121.068 64.7782C120.845 65.5314 120.548 66.0962 120.214 66.4351C119.916 66.8117 119.508 67 119.099 67C118.913 67 118.802 66.9247 118.653 66.8494C118.542 66.7364 118.505 66.6234 118.505 66.4351C118.505 66.1715 118.579 66.0209 118.728 65.9832C118.728 66.0962 118.802 66.2468 118.876 66.3222C118.951 66.4351 119.062 66.4728 119.173 66.4728C119.322 66.4728 119.471 66.4351 119.619 66.3598C119.731 66.2845 119.842 66.1339 119.954 65.9832C120.028 65.8326 120.139 65.569 120.251 65.3054C120.325 65.0418 120.436 64.7029 120.511 64.3263L120.808 63.2343C120.399 64.251 119.991 64.7782 119.471 64.7782C119.211 64.7782 119.062 64.477 119.062 63.9498C119.062 63.5732 119.136 63.1966 119.211 62.8201C119.359 62.4435 119.508 62.1046 119.731 61.841C119.916 61.5397 120.214 61.3138 120.474 61.1255C120.808 60.7866 121.068 60.7113 121.365 60.7113ZM120.325 61.9916C120.065 62.5188 119.916 63.0084 119.916 63.4226C119.916 63.5732 119.954 63.6109 120.028 63.6109C120.214 63.6109 120.474 63.3096 120.771 62.7071L121.105 61.9163L121.439 61.2008L121.291 61.1632C120.957 61.1632 120.659 61.4644 120.325 61.9916Z" fill="#FF0013"/>
<path d="M127.346 58.4518C127.42 58.3389 127.495 58.3012 127.606 58.3012C127.829 58.3012 127.978 58.4518 127.978 58.8284C127.978 59.092 127.903 59.318 127.792 59.5439C127.718 59.8075 127.569 60.0334 127.346 60.297C127.16 60.5606 126.9 60.7866 126.677 60.9749C126.455 61.1631 126.157 61.3891 125.897 61.5397C125.934 61.841 125.972 62.1046 126.046 62.3682C126.12 62.6694 126.194 62.933 126.306 63.1966C126.38 63.4602 126.455 63.6485 126.566 63.8744C126.677 64.0627 126.789 64.251 126.9 64.364C126.789 64.6652 126.603 64.7782 126.343 64.7782C126.232 64.7782 126.083 64.7029 125.934 64.5146C125.823 64.364 125.674 64.138 125.526 63.8744C125.414 63.5732 125.34 63.2719 125.229 62.933C125.117 62.5564 125.08 62.2175 125.043 61.841C124.894 62.2929 124.783 62.7447 124.634 63.1213C124.523 63.4979 124.448 63.8368 124.3 64.1004C124.226 64.364 124.114 64.5523 124.003 64.7029C123.928 64.8535 123.817 64.9288 123.706 64.9288C123.445 64.9288 123.26 64.8159 123.185 64.6652C123.52 64.0251 123.854 63.0836 124.226 61.8033C124.448 61.1255 124.634 60.4853 124.783 59.9581C124.894 59.3933 125.006 58.8661 125.08 58.4142H125.117C125.526 58.4142 125.674 58.6401 125.674 59.1673C125.674 59.5439 125.526 60.3723 125.117 61.5397C125.414 61.4267 125.712 61.2761 125.972 61.0878C126.232 60.8995 126.455 60.6736 126.64 60.4477C126.789 60.2217 126.937 59.9205 127.086 59.6569C127.198 59.3556 127.272 59.092 127.272 58.7908L127.346 58.4518ZM129.947 58.6025C129.872 58.7154 129.761 58.8661 129.649 59.0544C129.575 59.2426 129.464 59.4686 129.352 59.6945C129.241 59.9205 129.166 60.1464 129.055 60.41C128.906 60.6736 128.832 60.8995 128.721 61.1255C128.609 61.3514 128.535 61.615 128.461 61.841C128.386 62.0293 128.312 62.2175 128.275 62.4058C128.758 61.3514 129.241 60.8242 129.724 60.8242C129.947 60.8242 130.058 61.0502 130.058 61.5021C130.058 61.841 129.984 62.3682 129.724 63.0836C129.649 63.4979 129.538 63.8744 129.464 64.2134C129.389 64.5523 129.352 64.8912 129.315 65.1548C129.204 65.1548 129.092 65.0795 128.906 64.8912C128.832 64.7029 128.795 64.4393 128.795 64.138C128.795 63.7991 128.869 63.3472 129.055 62.82C129.204 62.2552 129.278 61.9539 129.278 61.8033C129.278 61.728 129.241 61.6903 129.204 61.6903C129.166 61.6903 129.092 61.728 128.981 61.8033C128.869 61.8786 128.795 62.0293 128.721 62.1799C128.609 62.3305 128.498 62.5564 128.423 62.7447C128.312 62.9707 128.201 63.159 128.089 63.3849C128.015 63.6485 127.94 63.8744 127.866 64.1004C127.792 64.3263 127.718 64.5523 127.68 64.7782C127.569 64.7782 127.458 64.7029 127.42 64.5523C127.346 64.4016 127.272 64.2134 127.272 63.9874C127.272 63.4979 127.532 62.5564 128.052 61.2008C128.238 60.6736 128.461 60.1841 128.609 59.8451C128.758 59.4686 128.869 59.205 129.018 58.979C129.166 58.7908 129.278 58.6025 129.426 58.5272C129.538 58.4142 129.649 58.3765 129.761 58.3765C129.686 58.3765 129.872 58.4142 129.947 58.6025V58.5648V58.6025ZM131.21 62.1046C130.95 62.6694 130.764 63.1966 130.764 63.7238C130.764 63.9121 130.838 64.0251 130.912 64.0251C131.024 64.0251 131.098 63.9874 131.21 63.9121C131.284 63.8368 131.358 63.7238 131.47 63.6108C131.581 63.4602 131.655 63.3472 131.73 63.1213C131.804 62.9707 131.878 62.7824 131.915 62.5941C131.99 62.4058 132.027 62.2175 132.064 62.0293C132.101 61.841 132.101 61.6903 132.101 61.5021C132.101 61.3138 132.064 61.2008 131.953 61.2008C131.804 61.2761 131.507 61.5397 131.21 62.1046ZM130.615 61.6903C131.061 61.0502 131.47 60.7489 131.99 60.7489C132.398 60.7489 132.584 61.0502 132.584 61.615C132.584 62.2552 132.398 62.933 132.027 63.6485C131.618 64.4393 131.135 64.8159 130.615 64.8159C130.169 64.8159 129.984 64.477 129.984 63.8368C129.984 63.046 130.169 62.3305 130.615 61.6903ZM132.25 58.9414C132.324 58.8661 132.361 58.8284 132.398 58.8284C132.51 58.8284 132.547 58.8661 132.584 58.979C132.696 59.5062 132.881 59.8452 133.141 60.0711C133.067 60.1464 132.956 60.1841 132.807 60.1841C132.621 60.1841 132.398 60.0334 132.287 59.7322C132.064 59.9958 131.804 60.1088 131.544 60.1088C131.395 60.1088 131.284 60.0334 131.21 59.8451C131.618 59.6945 131.915 59.3933 132.25 58.9414ZM134.59 61.6527C134.516 61.6527 134.442 61.6903 134.367 61.8033C134.293 61.8786 134.181 61.9916 134.07 62.1799C133.959 62.3305 133.847 62.5188 133.736 62.7447C133.624 62.933 133.513 63.159 133.439 63.3849C133.29 63.6485 133.216 63.8744 133.141 64.1004C133.03 64.3263 132.993 64.5523 132.918 64.7782C132.807 64.7782 132.733 64.7029 132.658 64.5523C132.584 64.4016 132.547 64.2134 132.547 63.9874C132.547 63.6862 132.658 63.1966 132.956 62.5564C133.104 62.1799 133.216 61.841 133.29 61.5397C133.401 61.2008 133.476 60.9749 133.513 60.7113C133.847 60.7113 134.033 60.9372 134.033 61.3514C134.033 61.6527 133.959 61.9916 133.773 62.3682C133.921 62.0669 134.07 61.841 134.219 61.615C134.404 61.4267 134.479 61.2761 134.627 61.1631C134.739 61.0502 134.85 61.0125 134.924 60.9372C134.999 60.8995 135.11 60.8995 135.222 60.8995C135.445 60.8995 135.556 61.0878 135.556 61.5397C135.556 61.8786 135.445 62.4058 135.222 63.1213C134.962 63.9121 134.776 64.5899 134.739 65.1548C134.59 65.1548 134.479 65.0795 134.404 64.8912C134.293 64.7029 134.256 64.4393 134.256 64.138C134.256 63.7991 134.33 63.3849 134.516 62.82C134.702 62.2552 134.776 61.9539 134.776 61.8033C134.664 61.6903 134.627 61.6527 134.59 61.6527ZM137.636 60.7113C138.045 60.7113 138.305 60.8242 138.454 61.0502C138.305 61.4267 138.119 62.0669 137.896 62.82L137.339 64.7782C137.116 65.5313 136.819 66.0962 136.522 66.4351C136.225 66.8117 135.779 67 135.333 67C135.185 67 134.999 66.9247 134.887 66.8493C134.776 66.7364 134.739 66.6234 134.739 66.4351C134.739 66.1715 134.776 66.0209 134.924 65.9832C134.924 66.0962 134.962 66.2468 135.036 66.3221C135.147 66.4351 135.259 66.4728 135.37 66.4728C135.519 66.4728 135.667 66.4351 135.816 66.3598C135.927 66.2845 136.039 66.1339 136.15 65.9832C136.262 65.8326 136.336 65.569 136.448 65.3054C136.522 65.0418 136.633 64.7029 136.708 64.3263L137.005 63.2343C136.596 64.251 136.188 64.7782 135.667 64.7782C135.407 64.7782 135.259 64.477 135.259 63.9498C135.259 63.5732 135.296 63.1966 135.445 62.82C135.556 62.4435 135.705 62.1046 135.965 61.841C136.15 61.5397 136.41 61.3138 136.633 61.1255C137.079 60.7866 137.339 60.7113 137.636 60.7113ZM136.596 61.9916C136.336 62.5188 136.188 63.0083 136.188 63.4226C136.188 63.5732 136.225 63.6108 136.299 63.6108C136.485 63.6108 136.745 63.3096 137.042 62.7071L137.451 61.9163L137.785 61.2008L137.636 61.1631C137.228 61.1631 136.931 61.4644 136.596 61.9916ZM140.98 63.6108C140.98 63.2719 141.017 62.7824 141.091 62.2175L141.24 61.4267L140.757 62.7071C140.608 63.0836 140.497 63.4602 140.311 63.6862C140.2 63.9498 140.125 64.1757 140.014 64.3263C139.94 64.477 139.865 64.6276 139.791 64.7029C139.717 64.7782 139.642 64.8159 139.568 64.8159C139.494 64.8159 139.457 64.8159 139.419 64.7782C139.382 64.7782 139.345 64.7029 139.345 64.7029L139.271 64.5899C139.382 64.4016 139.494 64.1757 139.717 63.8744C139.865 63.5732 139.977 63.2719 140.2 62.8954C140.348 62.5564 140.497 62.1799 140.683 61.7657C140.831 61.3514 141.017 60.9749 141.165 60.5606C141.314 60.1841 141.463 59.7698 141.648 59.4309C141.76 59.0544 141.871 58.7154 141.946 58.3765C142.131 58.3765 142.243 58.4142 142.391 58.5272C142.466 58.6401 142.54 58.8661 142.54 59.1297C142.54 59.318 142.429 59.9581 142.206 61.0125C142.02 62.1799 141.871 63.1213 141.797 63.9121C142.02 63.6485 142.243 63.3096 142.466 62.8577C142.689 62.4058 142.949 61.8786 143.209 61.2385L144.175 58.8661C144.323 58.5272 144.583 58.3389 144.88 58.3389L145.178 58.4142C145.029 58.6778 144.88 59.0544 144.732 59.5439C144.62 59.9958 144.509 60.523 144.397 61.0502C144.323 61.615 144.212 62.1422 144.175 62.7071C144.1 63.2719 144.1 63.7615 144.1 64.2134C144.1 64.6276 144.1 64.9665 144.137 65.2301C143.543 65.2301 143.283 64.8159 143.283 63.8368C143.283 63.2343 143.357 62.4435 143.506 61.5397C142.763 63.159 142.168 64.2887 141.76 64.8159C141.686 64.8159 141.574 64.7782 141.5 64.7029C141.426 64.6276 141.351 64.5523 141.277 64.4393C141.24 64.3263 141.203 64.2134 141.165 64.0627C141.017 63.9121 140.98 63.7615 140.98 63.6108ZM146.552 61.9163L146.961 61.2008L146.812 61.1631C146.812 61.1631 146.812 61.1631 146.775 61.1631C146.589 61.1631 146.441 61.2385 146.255 61.3514C146.069 61.5397 145.958 61.728 145.772 61.9539C145.623 62.1799 145.549 62.4435 145.475 62.7447C145.4 63.0083 145.363 63.2719 145.363 63.4979C145.363 63.6108 145.4 63.6862 145.475 63.6862C145.549 63.6862 145.66 63.6108 145.809 63.4602C145.921 63.3096 146.032 63.046 146.218 62.7447L146.552 61.9163ZM145.178 61.8033C145.623 61.0878 146.143 60.7113 146.812 60.7113C147.146 60.7113 147.406 60.8242 147.592 61.0502C147.444 61.5021 147.295 61.9163 147.184 62.2929C147.072 62.6318 146.998 62.9707 146.924 63.2719C146.886 63.5732 146.849 63.8368 146.812 64.1004C146.775 64.4016 146.775 64.7029 146.775 64.9665C146.589 64.9665 146.441 64.8535 146.329 64.6276C146.218 64.4016 146.181 64.138 146.181 63.7615C146.181 63.6485 146.181 63.5732 146.181 63.4226C146.181 63.3096 146.218 63.2719 146.255 63.159C146.032 63.6862 145.809 64.0627 145.586 64.3263C145.363 64.5899 145.103 64.7029 144.843 64.7029C144.62 64.7029 144.509 64.4016 144.509 63.8368C144.509 63.1966 144.695 62.4435 145.178 61.8033ZM146.218 59.4686C146.255 59.1297 146.403 59.0167 146.701 59.092C146.626 59.2426 146.626 59.3933 146.664 59.5439C146.738 59.6945 146.886 59.7698 147.184 59.6945C147.444 59.6569 147.778 59.4686 148.038 59.0544C148.112 58.9037 148.149 58.9037 148.149 59.0167C148.149 59.1673 148.075 59.3933 147.889 59.6192C147.741 59.8828 147.555 60.0334 147.369 60.1088C147.184 60.1841 147.035 60.2217 146.812 60.1841C146.626 60.1841 146.478 60.1088 146.366 59.9581C146.292 59.8828 146.218 59.7322 146.218 59.4686ZM145.178 65.9079C145.178 65.8326 145.178 65.7573 145.215 65.682C145.252 65.6067 145.252 65.5313 145.289 65.4937C145.326 65.4184 145.363 65.3807 145.4 65.3431C145.438 65.3054 145.475 65.2677 145.549 65.2677C145.623 65.2677 145.698 65.3431 145.772 65.4184C145.846 65.5313 145.883 65.6443 145.883 65.7949C145.883 65.8703 145.883 65.9456 145.883 66.0209C145.846 66.0962 145.809 66.1339 145.772 66.2092C145.772 66.2845 145.698 66.3221 145.66 66.3598C145.623 66.3975 145.549 66.4351 145.512 66.4351C145.438 66.4351 145.363 66.3598 145.289 66.2845C145.215 66.1715 145.178 66.0962 145.178 65.9079ZM149.487 61.3891H148.967C148.855 61.6903 148.781 61.9539 148.67 62.2175C148.595 62.5188 148.521 62.82 148.484 63.0836C148.41 63.3472 148.372 63.6485 148.335 63.9121C148.298 64.1757 148.261 64.4393 148.261 64.6276V64.7405C148.261 64.7782 148.261 64.8159 148.298 64.8535C148.112 64.8535 148.001 64.7405 147.852 64.5523C147.741 64.364 147.704 64.0627 147.704 63.7238C147.704 63.1213 147.852 62.3305 148.224 61.3514H147.778C147.778 61.2385 147.815 61.1631 147.852 61.0125C147.927 60.8995 147.964 60.8619 148.038 60.8619H148.372C148.447 60.7113 148.521 60.523 148.595 60.3723C148.632 60.2217 148.707 60.1087 148.781 59.9958C148.855 59.8828 148.93 59.8075 149.004 59.7698C149.078 59.7322 149.152 59.6945 149.301 59.6945C149.45 59.6945 149.561 59.7698 149.71 59.8828C149.635 59.9958 149.524 60.1464 149.45 60.297C149.375 60.4853 149.227 60.6736 149.152 60.8619H149.747C149.747 61.0125 149.71 61.0878 149.673 61.2385C149.673 61.3138 149.561 61.3891 149.487 61.3891ZM153.722 58.7531C153.499 58.7531 153.239 58.7908 153.09 58.9037C152.905 59.8075 152.607 60.7113 152.384 61.5397C152.124 62.3682 151.79 63.2343 151.53 64.0251C151.753 64.0251 152.013 63.9121 152.273 63.7991C152.496 63.6485 152.756 63.4226 152.979 63.1966C153.165 62.933 153.425 62.6318 153.61 62.2175C153.796 61.8786 153.945 61.4644 154.093 61.0125C154.242 60.5606 154.316 60.0711 154.316 59.6192C154.316 59.0544 154.093 58.7531 153.722 58.7531ZM154.725 58.9037C154.948 59.2426 155.059 59.7322 155.059 60.2594C155.059 60.8242 154.948 61.3138 154.799 61.8786C154.613 62.4435 154.353 62.8954 154.056 63.3472C153.35 64.2887 152.533 64.7782 151.641 64.7782C151.047 64.7782 150.713 64.5899 150.601 64.1757C150.676 64.0251 150.75 63.7991 150.861 63.5732C150.936 63.3096 151.01 63.046 151.121 62.7824C151.233 62.4811 151.307 62.1799 151.419 61.8786C151.493 61.5774 151.604 61.2761 151.679 60.9749C151.79 60.6736 151.864 60.3723 151.939 60.0711C152.05 59.8075 152.087 59.5439 152.162 59.318C152.087 59.3556 151.976 59.3933 151.864 59.4686C151.79 59.5439 151.716 59.6192 151.604 59.6945V59.5439C151.604 59.1297 151.753 58.8284 152.124 58.6025C152.422 58.4142 152.905 58.2636 153.499 58.2636C154.056 58.3012 154.465 58.5272 154.725 58.9037ZM153.053 61.6527H152.347H151.344H150.75C150.75 61.5021 150.787 61.2761 150.861 61.1255C150.898 60.9749 151.01 60.8619 151.121 60.8619H151.567H152.644H153.387C153.387 61.0502 153.35 61.2385 153.313 61.3891C153.239 61.5397 153.165 61.6527 153.053 61.6527V61.615V61.6527ZM156.805 61.9163L157.177 61.2008L157.028 61.1631C156.991 61.1631 156.991 61.1631 156.991 61.1631H156.954C156.805 61.1631 156.657 61.2385 156.471 61.3514C156.248 61.5397 156.136 61.728 155.988 61.9539C155.839 62.1799 155.765 62.4435 155.691 62.7447C155.616 63.0083 155.579 63.2719 155.579 63.4979C155.579 63.6108 155.616 63.6862 155.654 63.6862C155.765 63.6862 155.876 63.6108 155.988 63.4602C156.099 63.3096 156.211 63.046 156.434 62.7447L156.805 61.9163ZM155.356 61.8033C155.839 61.0878 156.359 60.7113 156.991 60.7113C157.362 60.7113 157.622 60.8242 157.808 61.0502C157.66 61.5021 157.511 61.9163 157.4 62.2929C157.288 62.6318 157.177 62.9707 157.139 63.2719C157.065 63.5732 157.028 63.8368 157.028 64.1004C156.991 64.4016 156.991 64.7029 156.954 64.9665C156.805 64.9665 156.657 64.8535 156.545 64.6276C156.434 64.4016 156.359 64.138 156.359 63.7615C156.359 63.6485 156.359 63.5732 156.359 63.4226C156.359 63.3096 156.434 63.2719 156.471 63.159C156.211 63.6862 155.988 64.0627 155.765 64.3263C155.579 64.5899 155.319 64.7029 155.059 64.7029C154.836 64.7029 154.725 64.4016 154.725 63.8368C154.725 63.1966 154.911 62.4435 155.356 61.8033ZM157.102 58.9414C157.139 58.8661 157.214 58.8284 157.251 58.8284C157.362 58.8284 157.4 58.8661 157.4 58.979C157.548 59.4686 157.734 59.8452 157.994 60.0711C157.92 60.1464 157.808 60.1841 157.66 60.1841C157.474 60.1841 157.251 60.0334 157.139 59.7322C156.917 59.9958 156.657 60.0711 156.434 60.0711C156.248 60.0711 156.136 59.9958 156.025 59.8828C156.434 59.6945 156.805 59.3933 157.102 58.9414ZM157.771 59.3933C158.291 59.0544 158.625 58.5272 158.811 57.8117C158.997 57.9246 159.108 58.1129 159.108 58.3765C159.108 58.5272 159.071 58.6778 158.997 58.8284C158.923 58.9414 158.848 59.092 158.774 59.1673C158.7 59.2803 158.588 59.3933 158.477 59.4686C158.365 59.5062 158.254 59.5816 158.142 59.5816C158.031 59.5816 157.957 59.5062 157.882 59.4686L157.771 59.3933ZM159.703 61.3891H159.22C159.108 61.6903 158.997 61.9539 158.923 62.2175C158.848 62.5188 158.774 62.82 158.7 63.0836C158.663 63.3472 158.625 63.6485 158.588 63.9121C158.551 64.1757 158.514 64.4393 158.514 64.6276V64.7405C158.514 64.7782 158.514 64.8159 158.551 64.8535C158.365 64.8535 158.217 64.7405 158.068 64.5523C157.994 64.364 157.92 64.0627 157.92 63.7238C157.92 63.1213 158.105 62.3305 158.477 61.3514H158.031C158.031 61.2385 158.031 61.1631 158.105 61.0125C158.143 60.8995 158.18 60.8619 158.291 60.8619H158.625C158.7 60.7113 158.737 60.523 158.811 60.3723C158.848 60.2217 158.96 60.1087 158.997 59.9958C159.108 59.8828 159.183 59.8075 159.257 59.7698C159.331 59.7322 159.406 59.6945 159.517 59.6945C159.666 59.6945 159.814 59.7698 159.963 59.8828C159.851 59.9958 159.777 60.1464 159.666 60.297C159.591 60.4853 159.48 60.6736 159.406 60.8619H160C160 61.0125 159.963 61.0878 159.888 61.2385C159.851 61.3138 159.777 61.3891 159.703 61.3891Z" fill="#FF0013"/>
<path d="M59.3638 43.7657H61.407L62.7443 52.0125H62.7815L64.1931 43.7657H66.1249L64.0074 54.9498H61.5556L59.3638 43.7657Z" fill="#FF0013"/>
<path d="M66.9792 43.7657H68.8738V51.5607C68.8738 52.2008 68.9853 52.6527 69.1339 52.9916C69.2825 53.3305 69.6168 53.5188 70.0255 53.5188C70.4341 53.5188 70.6941 53.3305 70.8799 52.9916C71.0656 52.6527 71.1399 52.2008 71.1399 51.5607V43.7657H73.0717V51.5607C73.0717 52.2761 72.9974 52.841 72.8116 53.3305C72.663 53.7824 72.4401 54.1966 72.1429 54.4226C71.8457 54.6862 71.5486 54.8745 71.2142 54.9874C70.8799 55.1004 70.4712 55.1757 70.0998 55.1757C69.654 55.1757 69.2825 55.1004 68.9853 55.0251C68.6509 54.9121 68.3538 54.7615 68.0194 54.4979C67.7222 54.2343 67.4993 53.8577 67.3507 53.3682C67.2021 52.9163 67.0907 52.2761 67.0907 51.5607V43.7657H66.9792Z" fill="#FF0013"/>
<path d="M83.2133 54.9498H77.9382V43.7657H79.8328V53.1046H83.2133V54.9498Z" fill="#FF0013"/>
<path d="M86.2966 43.7657H84.402V54.9498H86.2966V43.7657Z" fill="#FF0013"/>
<path d="M87.9684 43.7657H90.1973L92.4634 51.4477H92.5005V43.7657H94.2465V54.9498H92.0919L89.7515 47.1172H89.7144V54.9498H87.9684V43.7657Z" fill="#FF0013"/>
<path d="M95.8439 54.9498V43.7657H97.7385V48.0586H99.9674V43.7657H101.862V54.9498H99.9674V49.9791H97.7385V54.9498H95.8439Z" fill="#FF0013"/>
<path d="M106.877 54.9498V43.7657H110.035C111.855 43.7657 112.747 44.7071 112.747 46.6276C112.747 47.2301 112.635 47.7573 112.375 48.1715C112.115 48.6234 111.781 48.887 111.298 49.0753V49.113C111.855 49.1883 112.264 49.4895 112.561 49.9414C112.858 50.3933 113.007 50.9958 113.007 51.7489C113.007 52.6904 112.747 53.4812 112.338 54.0837C111.855 54.6862 111.112 54.9874 110.072 54.9874H106.877V54.9498ZM108.772 45.3849V48.3598H109.329C109.849 48.3598 110.258 48.2469 110.48 48.0209C110.741 47.795 110.852 47.3807 110.852 46.8912C110.852 46.364 110.741 45.9874 110.518 45.7615C110.295 45.5356 109.923 45.4226 109.477 45.4226H108.772V45.3849ZM108.772 49.9414V53.2929H109.515C109.998 53.2929 110.369 53.1423 110.629 52.9163C110.926 52.6527 111.038 52.2008 111.038 51.5983C111.038 50.4686 110.555 49.9414 109.589 49.9414H108.772Z" fill="#FF0013"/>
<path d="M114.381 43.7657H116.276V51.5607C116.276 52.2008 116.35 52.6527 116.536 52.9916C116.722 53.3305 116.982 53.5188 117.427 53.5188C117.836 53.5188 118.096 53.3305 118.282 52.9916C118.43 52.6527 118.542 52.2008 118.542 51.5607V43.7657H120.436V51.5607C120.436 52.2761 120.362 52.841 120.176 53.3305C120.028 53.7824 119.805 54.1966 119.508 54.4226C119.21 54.6862 118.913 54.8745 118.579 54.9874C118.207 55.1004 117.836 55.1757 117.465 55.1757C117.019 55.1757 116.647 55.1004 116.35 55.0251C115.979 54.9121 115.719 54.7615 115.384 54.4979C115.087 54.2343 114.827 53.8577 114.678 53.3682C114.53 52.9163 114.418 52.2761 114.418 51.5607V43.7657H114.381Z" fill="#FF0013"/>
<path d="M121.477 51.4468H123.408V51.7857C123.408 52.3505 123.483 52.7648 123.705 53.066C123.854 53.3296 124.188 53.4802 124.671 53.4802C125.006 53.4802 125.229 53.3296 125.451 53.1413C125.711 52.8777 125.823 52.5388 125.823 52.1246C125.823 51.5974 125.711 51.2585 125.451 50.9949C125.191 50.7313 124.783 50.4677 124.114 50.1664C123.223 49.8652 122.591 49.451 122.22 48.9614C121.848 48.4719 121.625 47.7564 121.625 46.8526C121.625 45.7982 121.922 44.9698 122.442 44.4049C122.962 43.8401 123.705 43.5388 124.634 43.5388C125.489 43.5388 126.194 43.8024 126.752 44.292C127.272 44.7438 127.569 45.5346 127.569 46.5514V46.8903H125.749C125.749 45.7606 125.377 45.2334 124.708 45.2334C123.965 45.2334 123.631 45.6476 123.631 46.5514C123.631 46.8903 123.668 47.1915 123.817 47.4175C123.928 47.6434 124.226 47.8317 124.597 48.0577L126.083 48.8108C126.752 49.1497 127.197 49.5639 127.495 49.9782C127.755 50.43 127.866 51.0325 127.866 51.748C127.866 54.0451 126.789 55.1748 124.597 55.1748C123.557 55.1748 122.777 54.8735 122.294 54.3464C121.811 53.7815 121.551 52.9907 121.551 51.9363V51.4468H121.477Z" fill="#FF0013"/>
<path d="M134.293 54.9498H128.981V43.7657H130.875V53.1046H134.293V54.9498Z" fill="#FF0013"/>
<path d="M137.339 43.7657H135.445V54.9498H137.339V43.7657Z" fill="#FF0013"/>
<path d="M139.048 43.7657H141.277L143.58 51.4477V43.7657H145.326V54.9498H143.172L140.831 47.1172V54.9498H139.048V43.7657Z" fill="#FF0013"/>
<path d="M146.924 43.7657H152.199V45.6109H148.818V48.2469H151.976V50.092H148.818V53.1046H152.31V54.9498H146.924V43.7657Z" fill="#FF0013"/>
<path d="M153.165 51.4477H155.059V51.7866C155.059 52.3514 155.133 52.7657 155.356 53.0669C155.505 53.3305 155.876 53.4811 156.322 53.4811C156.657 53.4811 156.917 53.3305 157.139 53.1422C157.325 52.8786 157.474 52.5397 157.474 52.1255C157.474 51.5983 157.362 51.2594 157.102 50.9958C156.842 50.7322 156.434 50.4686 155.802 50.1673C154.911 49.8284 154.279 49.4142 153.87 48.887C153.499 48.3975 153.313 47.682 153.313 46.7782C153.313 45.7238 153.573 44.8954 154.093 44.3305C154.613 43.7657 155.356 43.4644 156.285 43.4644C157.139 43.4644 157.845 43.728 158.365 44.2176C158.885 44.6694 159.183 45.4602 159.183 46.477V46.8159H157.325C157.325 45.6862 156.991 45.159 156.322 45.159C155.579 45.159 155.245 45.5732 155.245 46.477C155.245 46.8159 155.319 47.1171 155.431 47.3431C155.542 47.569 155.839 47.7573 156.211 47.9832L157.697 48.7364C158.365 49.0753 158.811 49.4895 159.108 49.9037C159.368 50.3556 159.517 50.9581 159.517 51.6736C159.517 53.9707 158.403 55.1004 156.211 55.1004C155.171 55.1004 154.39 54.7991 153.908 54.2719C153.462 53.7071 153.239 52.9163 153.239 51.8619V51.4477H153.165Z" fill="#FF0013"/>
</svg>
