<svg width="160" height="80" viewBox="0 0 160 80" fill="none" xmlns="http://www.w3.org/2000/svg">
<path d="M71.2541 31.7909C77.714 31.7909 82.9508 27.3343 82.9508 21.8369C82.9508 16.3394 77.714 11.8828 71.2541 11.8828C64.7943 11.8828 59.5575 16.3394 59.5575 21.8369C59.5575 27.3343 64.7943 31.7909 71.2541 31.7909Z" fill="#ED145B"/>
<path d="M87.1006 21.8369C86.479 26.3481 83.7857 30.7406 79.85 34.8938C100.932 34.6361 120.657 24.7741 130.667 13.4881C136.844 6.52287 131.312 2.68724 125.122 0.647457C106.956 -2.31464 70.6334 5.77452 67.1842 7.05951C67.1833 7.05859 86.6556 6.08196 87.1006 21.8369Z" fill="#2A81C4"/>
<path d="M121.248 23.3869C105.06 34.8533 85.3747 36.3371 78.2813 36.4789C61.0563 53.0852 25 65.4758 25 65.4758C25 65.4758 109.036 45.0486 131.286 17.0992C134.269 13.2304 135.484 10.1661 135.333 7.76276C133.838 11.8138 130.036 17.1627 121.248 23.3869Z" fill="#ED145B"/>
<path d="M32.4355 78.9663C32.5376 79.0501 32.7095 79.0915 32.9514 79.0915C32.9514 79.2277 32.9284 79.3603 32.8833 79.4891C32.8383 79.618 32.7767 79.7275 32.7013 79.8187H29.9454C29.87 79.7275 29.8093 79.618 29.7642 79.4891C29.7192 79.3603 29.6962 79.2277 29.6962 79.0915C29.9454 79.0915 30.1219 79.0501 30.2231 78.9663C30.3251 78.8835 30.3766 78.7353 30.3766 78.5236V76.2638H27.881V78.5236C27.881 78.7353 27.9316 78.8835 28.0336 78.9663C28.1357 79.0501 28.3113 79.0915 28.5615 79.0915C28.5615 79.2277 28.5385 79.3603 28.4934 79.4891C28.4484 79.618 28.3867 79.7275 28.3113 79.8187H25.5444C25.4681 79.7275 25.4083 79.618 25.3624 79.4891C25.3173 79.3603 25.2943 79.2277 25.2943 79.0915C25.5444 79.0915 25.7201 79.0501 25.8221 78.9663C25.9242 78.8835 25.9748 78.7353 25.9748 78.5236V73.1866C25.9748 72.9749 25.9242 72.8249 25.8221 72.7383C25.7201 72.6518 25.5444 72.6076 25.2943 72.6076C25.2943 72.4788 25.3173 72.3499 25.3624 72.222C25.4074 72.0931 25.4681 71.9836 25.5444 71.8924H28.3113C28.3867 71.9836 28.4474 72.0931 28.4934 72.222C28.5385 72.3508 28.5615 72.4797 28.5615 72.6076C28.3113 72.6076 28.1357 72.6518 28.0336 72.7383C27.9316 72.8258 27.881 72.9749 27.881 73.1866V75.3102H30.3766V73.1866C30.3766 72.9749 30.3242 72.8249 30.2176 72.7383C30.1118 72.6509 29.938 72.6076 29.6962 72.6076C29.6962 72.4788 29.7192 72.3499 29.7642 72.222C29.8093 72.0931 29.87 71.9836 29.9454 71.8924H32.7022C32.7776 71.9836 32.8383 72.0931 32.8842 72.222C32.9293 72.3508 32.9523 72.4797 32.9523 72.6076C32.7104 72.6076 32.5385 72.6518 32.4364 72.7383C32.3344 72.8258 32.2829 72.9749 32.2829 73.1866V78.5236C32.2819 78.7353 32.3334 78.8835 32.4355 78.9663Z" fill="#2A81C4"/>
<path d="M40.9138 78.8871C41.0958 79.0234 41.288 79.0915 41.4922 79.0915C41.4922 79.2277 41.4692 79.3603 41.4241 79.4891C41.3791 79.618 41.3147 79.7275 41.231 79.8187H38.157C38.0742 79.7275 38.0098 79.618 37.9648 79.4891C37.9197 79.3603 37.8967 79.2277 37.8967 79.0915C38.328 79.0915 38.5432 78.9101 38.5432 78.5466C38.5432 78.3947 38.5174 78.217 38.4641 78.0127L38.396 77.7743H35.8544L35.7864 78.0127C35.7183 78.2474 35.6843 78.414 35.6843 78.5125C35.6843 78.8982 35.9261 79.0915 36.4098 79.0915C36.4098 79.2277 36.3868 79.3603 36.3418 79.4891C36.2967 79.618 36.2323 79.7275 36.1496 79.8187H33.6199C33.5372 79.7275 33.4728 79.618 33.4277 79.4891C33.3827 79.3603 33.3597 79.2277 33.3597 79.0915C33.5712 79.0915 33.7643 79.0289 33.9381 78.9037C34.1119 78.7785 34.2406 78.5953 34.3234 78.3533L36.1845 72.8571C35.882 72.7586 35.4995 72.7098 35.0388 72.7098C35.0388 72.384 35.1289 72.1124 35.311 71.8924H38.419L40.5285 78.3192C40.6039 78.5613 40.7326 78.7509 40.9138 78.8871ZM36.831 71.2232C36.7243 71.2085 36.5855 71.1781 36.4117 71.1321L36.2075 70.451C36.3592 70.4813 36.4917 70.4961 36.6048 70.4961C36.8549 70.4961 37.0682 70.4454 37.2457 70.3433C37.4232 70.2411 37.5124 70.0726 37.5124 69.8379C37.5124 69.6787 37.4333 69.5406 37.2742 69.4237C37.1151 69.3059 36.911 69.2479 36.6618 69.2479C36.533 69.2479 36.4006 69.2709 36.2645 69.316C36.1284 69.3611 35.9583 69.4338 35.7542 69.5314L35.47 68.703C35.5914 68.5888 35.8066 68.4756 36.1174 68.3624C36.4273 68.2492 36.7335 68.1921 37.036 68.1921C37.505 68.1921 37.9326 68.3118 38.3179 68.5502C38.7032 68.7886 38.8963 69.1807 38.8963 69.7256C38.8963 69.9677 38.8301 70.207 38.6977 70.4408C38.5652 70.6746 38.3721 70.8689 38.1193 71.0198C37.8655 71.1717 37.573 71.2463 37.2402 71.2463C37.0728 71.2453 36.9358 71.238 36.831 71.2232ZM38.1459 76.8888L37.3413 74.073C37.2733 73.8457 37.1859 73.6533 37.0802 73.4941L36.1045 76.8888H38.1459Z" fill="#2A81C4"/>
<path d="M42.1846 79.8177C42.1092 79.7266 42.0485 79.6171 42.0034 79.4882C41.9584 79.3593 41.9354 79.2268 41.9354 79.0906C42.1846 79.0906 42.3612 79.0491 42.4632 78.9654C42.5653 78.8825 42.6159 78.7343 42.6159 78.5226V73.1866C42.6159 72.9749 42.5653 72.8249 42.4632 72.7383C42.3612 72.6509 42.1846 72.6076 41.9354 72.6076C41.9354 72.4788 41.9584 72.3499 42.0034 72.222C42.0485 72.0931 42.1092 71.9836 42.1846 71.8924H44.9414C45.0168 71.9836 45.0775 72.0931 45.1235 72.222C45.1686 72.3508 45.1916 72.4797 45.1916 72.6076C44.9414 72.6076 44.7658 72.6518 44.6637 72.7383C44.5617 72.8258 44.5102 72.9749 44.5102 73.1866V78.5236C44.5102 78.7353 44.5617 78.8835 44.6637 78.9663C44.7658 79.0501 44.9414 79.0915 45.1916 79.0915C45.1916 79.2277 45.1686 79.3603 45.1235 79.4891C45.0784 79.618 45.0168 79.7275 44.9414 79.8187H42.1846V79.8177Z" fill="#2A81C4"/>
<path d="M54.5488 72.4493C55.0472 72.8737 55.2973 73.5171 55.2973 74.3796C55.2973 74.8867 55.1723 75.3387 54.9231 75.7363C54.6729 76.134 54.295 76.446 53.7883 76.6734C53.2817 76.9007 52.6619 77.014 51.9281 77.014H51.4518V78.0127C51.4518 78.3155 51.4849 78.5429 51.5538 78.6938C51.6219 78.8457 51.7414 78.9497 51.9115 79.0059C52.0817 79.0629 52.341 79.0915 52.6886 79.0915C52.6886 79.2277 52.6656 79.3603 52.6205 79.4891C52.5755 79.618 52.5139 79.7275 52.4384 79.8187H49.1382C49.0545 79.7275 48.9901 79.618 48.9451 79.4891C48.9 79.3603 48.877 79.2277 48.877 79.0915C49.1345 79.0915 49.3175 79.0482 49.4279 78.9608C49.5373 78.8742 49.5925 78.7279 49.5925 78.5235V73.1866C49.5925 72.9749 49.5382 72.8249 49.4279 72.7383C49.3175 72.6518 49.1345 72.6076 48.877 72.6076C48.877 72.3499 48.9607 72.1124 49.1272 71.8924C49.6329 71.8924 50.3217 71.874 51.1915 71.8354C51.6302 71.8206 51.9171 71.8133 52.0541 71.8133C53.2173 71.8133 54.0495 72.025 54.5488 72.4493ZM52.9893 73.1645C52.7658 72.8617 52.3934 72.7098 51.8711 72.7098C51.7047 72.7098 51.5649 72.7255 51.4518 72.7549V76.0815C51.5198 76.0972 51.6173 76.1045 51.7469 76.1045C52.375 76.1045 52.7943 75.9379 53.0058 75.6047C53.2173 75.2715 53.3231 74.8518 53.3231 74.3446C53.3231 73.8613 53.2118 73.4674 52.9893 73.1645Z" fill="#2A81C4"/>
<path d="M63.0729 78.9663C63.175 79.0501 63.3469 79.0915 63.5888 79.0915C63.5888 79.2277 63.5658 79.3603 63.5207 79.4891C63.4757 79.618 63.414 79.7275 63.3386 79.8187H60.5819C60.5065 79.7275 60.4458 79.618 60.4007 79.4891C60.3556 79.3603 60.3327 79.2277 60.3327 79.0915C60.5819 79.0915 60.7584 79.0501 60.8596 78.9663C60.9616 78.8835 61.0131 78.7353 61.0131 78.5236V76.2638H58.5175V78.5236C58.5175 78.7353 58.5681 78.8835 58.6701 78.9663C58.7722 79.0501 58.9478 79.0915 59.1979 79.0915C59.1979 79.2277 59.175 79.3603 59.1299 79.4891C59.0848 79.618 59.0232 79.7275 58.9478 79.8187H56.1818C56.1055 79.7275 56.0458 79.618 55.9998 79.4891C55.9547 79.3603 55.9317 79.2277 55.9317 79.0915C56.1818 79.0915 56.3575 79.0501 56.4595 78.9663C56.5616 78.8835 56.6122 78.7353 56.6122 78.5236V73.1866C56.6122 72.9749 56.5616 72.8249 56.4595 72.7383C56.3575 72.6509 56.1818 72.6076 55.9317 72.6076C55.9317 72.4788 55.9547 72.3499 55.9998 72.222C56.0448 72.0931 56.1055 71.9836 56.1818 71.8924H58.9487C59.0242 71.9836 59.0848 72.0931 59.1308 72.222C59.1759 72.3508 59.1989 72.4797 59.1989 72.6076C58.9487 72.6076 58.7731 72.6518 58.671 72.7383C58.569 72.8249 58.5184 72.9749 58.5184 73.1866V75.3102H61.014V73.1866C61.014 72.9749 60.9616 72.8249 60.855 72.7383C60.7492 72.6509 60.5754 72.6076 60.3336 72.6076C60.3336 72.4788 60.3566 72.3499 60.4016 72.222C60.4467 72.0931 60.5074 71.9836 60.5828 71.8924H63.3396C63.415 71.9836 63.4757 72.0931 63.5216 72.222C63.5667 72.3508 63.5897 72.4797 63.5897 72.6076C63.3478 72.6076 63.1759 72.6518 63.0738 72.7383C62.9717 72.8258 62.9203 72.9749 62.9203 73.1866V78.5236C62.9193 78.7353 62.9708 78.8835 63.0729 78.9663Z" fill="#2A81C4"/>
<path d="M66.2482 79.4606C65.7231 79.1237 65.3204 78.6451 65.0399 78.0237C64.7595 77.4033 64.6206 76.6835 64.6206 75.8661C64.6206 75.011 64.7641 74.2746 65.0519 73.6579C65.3397 73.0412 65.7452 72.5699 66.2712 72.244C66.7963 71.9191 67.4114 71.7562 68.114 71.7562C68.8395 71.7562 69.4675 71.9265 69.9972 72.2671C70.5269 72.6076 70.9333 73.0863 71.2165 73.7039C71.4997 74.3206 71.6423 75.0423 71.6423 75.867C71.6423 76.7148 71.497 77.4475 71.2055 78.0642C70.914 78.6819 70.5039 79.1522 69.9742 79.4781C69.4445 79.8039 68.8285 79.9659 68.125 79.9659C67.4004 79.9659 66.7742 79.7975 66.2482 79.4606ZM68.0744 69.6787C68.479 70.0874 68.8855 70.4243 69.2937 70.6894C69.2708 70.8633 69.2045 70.994 69.0951 71.0815C68.9848 71.1689 68.8505 71.2122 68.6924 71.2122C68.4349 71.2122 68.0983 71.1082 67.6827 70.9002C67.2671 70.6921 66.9038 70.4381 66.594 70.1398C66.2841 69.8407 66.1287 69.5664 66.1287 69.3169C66.1287 69.1881 66.17 69.0518 66.2537 68.9082C66.3365 68.7646 66.4542 68.645 66.605 68.5502C66.7558 68.4554 66.9268 68.4084 67.1153 68.4084C67.3507 68.8456 67.6707 69.27 68.0744 69.6787ZM69.1411 78.4214C69.4022 77.9446 69.5328 77.0775 69.5328 75.821C69.5328 74.6253 69.4114 73.7886 69.1696 73.3118C68.9278 72.835 68.5875 72.5966 68.1489 72.5966C67.7333 72.5966 67.3949 72.835 67.1337 73.3118C66.8726 73.7886 66.742 74.652 66.742 75.9002C66.742 77.0968 66.8643 77.9344 67.1107 78.4149C67.3563 78.8963 67.6946 79.1366 68.1259 79.1366C68.5416 79.1366 68.8799 78.8982 69.1411 78.4214Z" fill="#2A81C4"/>
<path d="M74.7613 78.5236C74.7613 78.9092 75.0372 79.1025 75.5898 79.1025C75.5898 79.3676 75.5024 79.606 75.3287 79.8177H72.9691C72.8027 79.6134 72.7199 79.375 72.7199 79.1025C72.9847 79.1025 73.1815 79.0574 73.3102 78.9663C73.439 78.8752 73.5024 78.7279 73.5024 78.5236V73.1866C73.5024 72.8009 73.2266 72.6076 72.6739 72.6076C72.6739 72.4788 72.6969 72.3499 72.742 72.222C72.787 72.0931 72.8477 71.9836 72.924 71.8924H74.5001C74.719 71.8924 74.9388 71.978 75.1585 72.1483C75.3774 72.3186 75.5861 72.5552 75.782 72.858L78.3567 76.9348V73.1866C78.3567 72.9823 78.2887 72.835 78.1526 72.7439C78.0165 72.6527 77.816 72.6076 77.5512 72.6076C77.5512 72.4714 77.5742 72.3407 77.6192 72.2155C77.6643 72.0903 77.7287 71.9826 77.8124 71.8924H80.2289C80.3117 71.9836 80.376 72.0931 80.4211 72.222C80.4662 72.3508 80.4892 72.4797 80.4892 72.6076C80.2317 72.6076 80.0367 72.6527 79.9043 72.7439C79.7719 72.835 79.7057 72.9823 79.7057 73.1866V79.8859H79.2533C78.8827 79.8859 78.6105 79.838 78.4367 79.7441C78.2629 79.6493 78.0965 79.4855 77.9383 79.2507L74.7622 74.4247V78.5236H74.7613Z" fill="#2A81C4"/>
<path d="M83.166 79.4661C82.5766 79.1255 82.1223 78.6524 81.8051 78.0467C81.4878 77.4411 81.3288 76.7489 81.3288 75.9692C81.3288 75.0607 81.4851 74.2921 81.7996 73.6643C82.1131 73.0357 82.5499 72.5635 83.1099 72.245C83.669 71.9274 84.3155 71.7682 85.0493 71.7682C85.5256 71.7682 85.9826 71.851 86.4212 72.0176C86.5352 71.9651 86.6989 71.9118 86.915 71.8584C87.1302 71.8059 87.2985 71.7755 87.4198 71.7672C87.6387 72.3278 87.749 73.1829 87.749 74.3335H86.6483C86.5729 73.8494 86.3863 73.4747 86.0874 73.2096C85.7886 72.9445 85.4318 72.812 85.0152 72.812C84.5159 72.812 84.1242 73.0265 83.841 73.4536C83.5568 73.8816 83.4152 74.6216 83.4152 75.6737C83.4152 76.8391 83.555 77.6647 83.8345 78.1489C84.1141 78.6331 84.5407 78.8752 85.1164 78.8752C85.3279 78.8752 85.5063 78.8522 85.6497 78.8071C85.7932 78.7619 85.9145 78.6865 86.0129 78.5797V77.2855C86.0129 77.0885 85.9274 76.9468 85.7582 76.8593C85.5881 76.7728 85.3214 76.7286 84.9582 76.7286C84.9582 76.5924 84.984 76.4331 85.0373 76.2518C85.0897 76.0705 85.1541 75.9379 85.2295 75.8551H87.6801C87.9752 75.8551 88.1785 75.9425 88.2925 76.1165C88.4065 76.2905 88.4626 76.4571 88.4626 76.6163C88.4626 76.6918 88.4433 76.7599 88.4056 76.8207C88.1334 76.8207 87.9219 76.851 87.7702 76.9118V78.2179C87.7702 78.46 87.8116 78.6303 87.8943 78.7288C87.9467 78.7813 87.9734 78.8503 87.9734 78.9332C87.9734 79.0694 87.8484 79.2213 87.5992 79.387C87.35 79.5536 87.0143 79.6935 86.5959 79.8067C86.1766 79.9199 85.7242 79.977 85.2405 79.977C84.4479 79.977 83.7564 79.8067 83.166 79.4661Z" fill="#2A81C4"/>
<path d="M98.6834 73.1986C98.7514 73.8954 98.7854 74.467 98.7854 74.9134C98.687 74.9512 98.5344 74.9815 98.3266 75.0046C98.1178 75.0276 97.9312 75.0386 97.7647 75.0386C97.7197 74.4329 97.6452 73.9672 97.5441 73.6422C97.442 73.3164 97.304 73.0936 97.1303 72.9721C96.9555 72.8506 96.7293 72.7899 96.4498 72.7899H96.2567V78.4784C96.2567 78.6901 96.3551 78.8457 96.5519 78.9442C96.7486 79.0427 97.0512 79.0915 97.4595 79.0915C97.4595 79.2277 97.4365 79.3603 97.3914 79.4891C97.3463 79.618 97.282 79.7275 97.1992 79.8187H93.3426C93.2663 79.7275 93.2065 79.618 93.1606 79.4891C93.1155 79.3603 93.0925 79.2277 93.0925 79.0915C93.9477 79.0915 94.3744 78.8871 94.3744 78.4784V72.7899H94.1252C93.3307 72.7899 92.8737 73.5392 92.7523 75.0386C92.2226 75.0156 91.8824 74.9742 91.7316 74.9134C91.7316 74.467 91.7656 73.8954 91.8337 73.1986C91.9017 72.5027 91.9964 72.0213 92.1178 71.7571C92.4654 71.7571 92.7753 71.8022 93.0475 71.8933H97.4714C97.7592 71.8022 98.0682 71.7571 98.4011 71.7571C98.5206 72.0213 98.6153 72.5018 98.6834 73.1986Z" fill="#2A81C4"/>
<path d="M106.289 78.7113C106.421 78.8512 106.593 78.9368 106.805 78.9663V79.5342C106.63 79.7763 106.302 79.8978 105.817 79.8978C105.363 79.8978 105.006 79.8223 104.745 79.6705C104.484 79.5186 104.291 79.3207 104.167 79.074C104.042 78.8282 103.927 78.5042 103.821 78.1029C103.708 77.6565 103.587 77.2855 103.458 76.99C103.329 76.6946 103.162 76.5132 102.959 76.4451H102.211V78.5235C102.211 78.7205 102.282 78.866 102.426 78.9608C102.569 79.0556 102.759 79.1025 102.992 79.1025C102.992 79.375 102.91 79.6134 102.743 79.8177H99.8972C99.7224 79.606 99.636 79.3676 99.636 79.1025C99.8935 79.1025 100.08 79.0574 100.198 78.9663C100.315 78.8752 100.373 78.7279 100.373 78.5235V73.1866C100.373 72.9823 100.314 72.835 100.192 72.7439C100.071 72.6527 99.8824 72.6076 99.625 72.6076C99.625 72.3048 99.7004 72.0664 99.8521 71.8924C100.35 71.8924 100.91 71.8777 101.53 71.8473C102.075 71.8169 102.502 71.8022 102.812 71.8022C104.975 71.8022 106.056 72.5331 106.056 73.9939C106.056 75.1067 105.466 75.7842 104.286 76.0263C104.626 76.1248 104.952 76.3613 105.262 76.736C105.572 77.1106 105.806 77.5552 105.965 78.0698C106.049 78.3569 106.157 78.5714 106.289 78.7113ZM103.777 75.2365C104.034 74.9521 104.162 74.5765 104.162 74.1071C104.162 73.6229 104.051 73.2612 103.827 73.0228C103.604 72.7844 103.251 72.6647 102.767 72.6647C102.51 72.6647 102.325 72.6803 102.212 72.7098V75.6397C102.348 75.6544 102.514 75.6627 102.71 75.6627C103.164 75.6627 103.519 75.52 103.777 75.2365Z" fill="#2A81C4"/>
<path d="M114.178 78.8871C114.36 79.0234 114.552 79.0915 114.756 79.0915C114.756 79.2277 114.733 79.3603 114.688 79.4891C114.643 79.618 114.579 79.7275 114.495 79.8187H111.421C111.338 79.7275 111.274 79.618 111.229 79.4891C111.184 79.3603 111.161 79.2277 111.161 79.0915C111.592 79.0915 111.807 78.9102 111.807 78.5466C111.807 78.3947 111.781 78.217 111.728 78.0127L111.66 77.7743H109.118L109.05 78.0127C108.982 78.2474 108.948 78.414 108.948 78.5125C108.948 78.8982 109.19 79.0915 109.674 79.0915C109.674 79.2277 109.651 79.3603 109.606 79.4891C109.561 79.618 109.496 79.7275 109.413 79.8187H106.884C106.801 79.7275 106.737 79.618 106.692 79.4891C106.647 79.3603 106.624 79.2277 106.624 79.0915C106.835 79.0915 107.028 79.0289 107.202 78.9037C107.376 78.7785 107.505 78.5953 107.587 78.3533L109.448 72.8571C109.146 72.7586 108.763 72.7098 108.303 72.7098C108.303 72.384 108.393 72.1124 108.575 71.8924H111.683L113.792 78.3192C113.868 78.5613 113.997 78.7509 114.178 78.8871ZM111.41 76.8888L110.605 74.073C110.537 73.8457 110.45 73.6533 110.344 73.4941L109.368 76.8888H111.41Z" fill="#2A81C4"/>
<path d="M121.722 71.8924C121.843 72.082 121.903 72.3204 121.903 72.6076C121.638 72.6076 121.43 72.6472 121.279 72.7273C121.128 72.8065 121.018 72.9455 120.95 73.1415L119.022 78.8071C118.886 79.201 118.729 79.4808 118.551 79.6475C118.374 79.8141 118.118 79.8969 117.785 79.8969H117.434L114.791 73.1406C114.715 72.9436 114.605 72.8055 114.462 72.7264C114.318 72.6472 114.113 72.6067 113.849 72.6067C113.849 72.3343 113.91 72.0959 114.032 71.8915H117.389C117.525 72.1336 117.593 72.372 117.593 72.6067C117.381 72.6067 117.217 72.6518 117.1 72.743C116.982 72.8341 116.924 72.9583 116.924 73.1176C116.924 73.1627 116.947 73.2538 116.992 73.39L117.945 76.4672L118.285 77.7163L118.626 76.4902L119.532 73.3569C119.563 73.2354 119.577 73.1562 119.577 73.1185C119.577 72.9593 119.52 72.8341 119.407 72.7439C119.293 72.6527 119.127 72.6076 118.908 72.6076C118.908 72.4567 118.921 72.326 118.947 72.2155C118.973 72.106 119.021 71.9983 119.089 71.8924H121.722Z" fill="#2A81C4"/>
<path d="M128.697 77.4217C128.697 77.6712 128.638 78.1167 128.516 78.7564C128.395 79.3962 128.285 79.8104 128.187 80C128.066 79.9696 127.906 79.9089 127.711 79.8187H122.459C122.284 79.5913 122.198 79.3529 122.198 79.1034C122.455 79.1034 122.644 79.0583 122.765 78.9672C122.887 78.8761 122.946 78.7251 122.946 78.5134V73.1866C122.946 72.9823 122.888 72.835 122.771 72.7439C122.653 72.6527 122.466 72.6076 122.209 72.6076C122.209 72.3582 122.295 72.1198 122.47 71.8924H126.871C127 71.8317 127.149 71.7847 127.319 71.7507C127.489 71.7166 127.646 71.6991 127.79 71.6991C127.903 71.9191 128.026 72.221 128.158 72.6076C128.291 72.9942 128.357 73.2741 128.357 73.448C128.266 73.5309 128.112 73.6183 127.892 73.7095C127.673 73.8006 127.483 73.8613 127.325 73.8908C127.227 73.611 127.072 73.368 126.86 73.1645C126.649 72.9602 126.402 72.858 126.123 72.858H124.841V75.254H125.657C126.149 75.254 126.395 74.9779 126.395 74.4247C126.735 74.4247 127.042 74.5038 127.313 74.6631V76.7746C127.192 76.8501 127.052 76.909 126.894 76.9505C126.735 76.9919 126.572 77.013 126.406 77.013C126.406 76.7249 126.338 76.5095 126.202 76.3659C126.066 76.2224 125.887 76.1506 125.668 76.1506H124.84V78.819H126.213C126.53 78.819 126.806 78.6846 127.041 78.4158C127.275 78.1471 127.423 77.8157 127.483 77.4227H128.697V77.4217Z" fill="#2A81C4"/>
<path d="M129.775 79.8177C129.691 79.7266 129.627 79.6171 129.582 79.4882C129.537 79.3593 129.514 79.2268 129.514 79.0906C129.771 79.0906 129.953 79.0491 130.058 78.9654C130.164 78.8825 130.216 78.7343 130.216 78.5226V73.1866C130.216 72.9749 130.164 72.8249 130.058 72.7383C129.952 72.6509 129.77 72.6076 129.514 72.6076C129.514 72.4714 129.537 72.3407 129.582 72.2155C129.627 72.0903 129.691 71.9826 129.775 71.8924H132.576C132.742 72.0664 132.826 72.3048 132.826 72.6076C132.569 72.6076 132.38 72.6527 132.259 72.7439C132.137 72.835 132.078 72.9823 132.078 73.1866V78.8531H132.497C133.049 78.8531 133.46 78.6717 133.728 78.3082C133.997 77.9446 134.131 77.4337 134.131 76.7756H134.925C135.054 76.8741 135.156 77.0858 135.232 77.4116C135.307 77.7375 135.346 78.055 135.346 78.3652C135.346 78.842 135.262 79.2038 135.096 79.4496C134.93 79.6953 134.658 79.8187 134.28 79.8187H129.775V79.8177Z" fill="#2A81C4"/>
<path d="M67.3424 63.6588C67.3424 64.1245 67.4703 64.4476 67.7259 64.6299C67.9824 64.8112 68.3705 64.9023 68.8919 64.9023C68.8919 65.0606 68.8615 65.2355 68.8008 65.4261C68.7401 65.6175 68.6638 65.7593 68.57 65.8522H64.0054C63.9033 65.7593 63.8215 65.6166 63.7608 65.4261C63.7001 65.2355 63.6698 65.0606 63.6698 64.9023C64.1626 64.9023 64.5424 64.8093 64.8072 64.6225C65.0721 64.4366 65.2054 64.1153 65.2054 63.6588V58.5998C65.2054 58.3016 64.9958 58.1525 64.5774 58.1525C64.4376 58.1525 64.2859 58.1681 64.1231 58.2012C63.9603 58.2335 63.8178 58.2776 63.6974 58.3338L63.3203 57.6351L65.4978 56.364C65.7856 56.1964 66.021 56.0823 66.2031 56.0215C66.3843 55.9608 66.5452 55.9304 66.685 55.9304C66.9176 55.9304 67.085 56.0068 67.187 56.1615C67.2891 56.3152 67.3406 56.4892 67.3406 56.6852V63.6588H67.3424Z" fill="#ED145B"/>
<path d="M77.2321 57.2798C77.8601 58.169 78.1746 59.3969 78.1746 60.9618C78.1746 61.9872 78.0045 62.881 77.6652 63.645C77.3259 64.4089 76.8459 64.9935 76.2279 65.3985C75.6091 65.8035 74.8992 66.006 74.0992 66.006C73.1594 66.006 72.41 65.8246 71.8518 65.4611C71.2936 65.0975 71.015 64.5903 71.015 63.9377C71.015 63.5557 71.1198 63.251 71.3295 63.0227C71.5382 62.7944 71.8297 62.6803 72.2022 62.6803C72.5093 62.6803 72.7723 62.7668 72.9902 62.9389C73.2091 63.1111 73.3185 63.3513 73.3185 63.6588C73.3185 64.0969 73.1088 64.3896 72.6904 64.5387C72.8302 64.7063 73.0012 64.8204 73.2063 64.8812C73.4104 64.9419 73.6578 64.9723 73.9465 64.9723C74.5792 64.9723 75.0307 64.7155 75.3001 64.2037C75.5695 63.691 75.7047 62.904 75.7047 61.8427V61.6328V61.5205C75.4537 61.7166 75.153 61.8675 74.8045 61.9752C74.456 62.0829 74.0808 62.1363 73.6808 62.1363C73.0849 62.1363 72.5497 62.0148 72.0753 61.7727C71.6008 61.5306 71.2265 61.1818 70.9516 60.7252C70.6766 60.2686 70.5396 59.7421 70.5396 59.1466C70.5396 58.5777 70.6932 58.0494 71.0003 57.5606C71.3074 57.0718 71.7451 56.6806 72.3125 56.387C72.8799 56.0934 73.5318 55.947 74.2665 55.947C75.6146 55.9452 76.604 56.3897 77.2321 57.2798ZM75.2293 60.8495C75.4426 60.7565 75.61 60.6258 75.7314 60.4583C75.7406 60.3368 75.7452 60.1646 75.7452 59.941C75.7452 58.8235 75.6008 58.0411 75.3121 57.5937C75.0233 57.1464 74.6702 56.9227 74.2509 56.9227C73.8509 56.9227 73.5088 57.0718 73.2247 57.3691C72.9405 57.6674 72.7989 58.1709 72.7989 58.8787C72.7989 59.5589 72.9617 60.0799 73.2881 60.4435C73.6137 60.8071 74.0183 60.9885 74.5029 60.9885C74.7732 60.9894 75.0141 60.9434 75.2293 60.8495Z" fill="#ED145B"/>
<path d="M79.989 61.0731C79.989 59.2754 80.3375 57.973 81.0354 57.1675C81.7333 56.3621 82.7191 55.959 83.9945 55.959C85.2791 55.959 86.2658 56.3621 86.9536 57.1675C87.6423 57.973 87.9872 59.28 87.9872 61.0869C87.9872 64.3565 86.6474 65.9913 83.9669 65.9913C81.3149 65.9922 79.989 64.3519 79.989 61.0731ZM84.7632 64.6989C84.9867 64.49 85.1632 64.096 85.2938 63.5188C85.4235 62.9408 85.4888 62.1216 85.4888 61.0593C85.4888 59.9235 85.4235 59.0545 85.2938 58.4534C85.1632 57.8524 84.9913 57.4501 84.777 57.2449C84.5628 57.0405 84.3025 56.9374 83.9954 56.9374C83.6883 56.9374 83.4253 57.0396 83.2074 57.2449C82.9885 57.4501 82.811 57.8579 82.6768 58.4682C82.5416 59.0785 82.4736 59.9557 82.4736 61.1017C82.4736 62.1446 82.5389 62.9555 82.6694 63.5327C82.7991 64.1107 82.9738 64.5019 83.1927 64.7072C83.4115 64.9115 83.6699 65.0146 83.9678 65.0146C84.274 65.0137 84.5398 64.9088 84.7632 64.6989Z" fill="#ED145B"/>
<path d="M89.8023 61.0731C89.8023 59.2754 90.1508 57.973 90.8487 57.1675C91.5467 56.3621 92.5324 55.959 93.8079 55.959C95.0925 55.959 96.0792 56.3621 96.767 57.1675C97.4557 57.973 97.8006 59.28 97.8006 61.0869C97.8006 64.3565 96.4608 65.9913 93.7803 65.9913C91.1283 65.9922 89.8023 64.3519 89.8023 61.0731ZM94.5757 64.6989C94.7991 64.49 94.9757 64.096 95.1063 63.5188C95.2359 62.9408 95.3012 62.1216 95.3012 61.0593C95.3012 59.9235 95.2359 59.0545 95.1063 58.4534C94.9757 57.8524 94.8037 57.4501 94.5895 57.2449C94.3752 57.0405 94.115 56.9374 93.8079 56.9374C93.5007 56.9374 93.2377 57.0396 93.0198 57.2449C92.801 57.4501 92.6235 57.8579 92.4892 58.4682C92.354 59.0785 92.286 59.9557 92.286 61.1017C92.286 62.1446 92.3513 62.9555 92.4819 63.5327C92.6115 64.1107 92.7862 64.5019 93.0051 64.7072C93.2239 64.9115 93.4823 65.0146 93.7803 65.0146C94.0874 65.0137 94.3532 64.9088 94.5757 64.6989Z" fill="#ED145B"/>
<path d="M101.542 65.6497C101.281 65.9056 100.942 66.0336 100.523 66.0336C100.095 66.0336 99.7509 65.9056 99.4898 65.6497C99.2286 65.3929 99.099 65.0606 99.099 64.6501C99.099 64.2313 99.2286 63.8953 99.4898 63.644C99.7509 63.3927 100.095 63.2666 100.523 63.2666C100.942 63.2666 101.282 63.3927 101.542 63.644C101.802 63.8953 101.933 64.2304 101.933 64.6501C101.933 65.0606 101.802 65.3929 101.542 65.6497Z" fill="#ED145B"/>
<path d="M107.083 63.6588C107.083 64.1245 107.211 64.4476 107.467 64.6299C107.723 64.8112 108.111 64.9023 108.633 64.9023C108.633 65.0606 108.603 65.2355 108.542 65.4261C108.481 65.6175 108.405 65.7593 108.311 65.8522H103.746C103.644 65.7593 103.562 65.6166 103.502 65.4261C103.441 65.2355 103.411 65.0606 103.411 64.9023C103.904 64.9023 104.283 64.8093 104.548 64.6225C104.813 64.4366 104.946 64.1153 104.946 63.6588V58.5998C104.946 58.3016 104.737 58.1525 104.318 58.1525C104.179 58.1525 104.027 58.1681 103.864 58.2012C103.701 58.2335 103.559 58.2776 103.438 58.3338L103.061 57.6351L105.239 56.364C105.527 56.1964 105.762 56.0823 105.944 56.0215C106.125 55.9608 106.286 55.9304 106.426 55.9304C106.659 55.9304 106.826 56.0068 106.928 56.1615C107.03 56.3152 107.082 56.4892 107.082 56.6852V63.6588H107.083Z" fill="#ED145B"/>
<path d="M117.288 56.6024C116.208 57.9711 115.484 59.2708 115.118 60.5006C114.75 61.7304 114.566 62.9601 114.566 64.1899V64.9732C114.566 65.2714 114.454 65.5154 114.231 65.7068C114.008 65.8983 113.575 65.9931 112.933 65.9931C112.467 65.9931 112.081 65.9231 111.775 65.7832C111.868 64.3767 112.201 63.031 112.773 61.7451C113.345 60.4592 114.24 59.072 115.46 57.5808C114.677 57.8137 113.872 57.9297 113.045 57.9297C112.505 57.9297 112.117 58.0089 111.88 58.1672C111.643 58.3255 111.472 58.6145 111.37 59.0334H110.589C110.421 58.875 110.282 58.6725 110.169 58.4258C110.058 58.1792 110.002 57.8883 110.002 57.5523C110.002 57.0589 110.145 56.6696 110.434 56.3861C110.723 56.1016 111.169 55.9599 111.775 55.9599C111.951 55.9599 112.21 55.9857 112.55 56.0363C112.889 56.0878 113.106 56.1182 113.198 56.1274C114.269 56.2857 115.037 56.3649 115.502 56.3649C115.809 56.3649 116.032 56.3391 116.172 56.2885C116.312 56.2379 116.516 56.1136 116.786 55.9175L117.288 56.6024Z" fill="#ED145B"/>
<path d="M124.664 60.137C125.125 60.3699 125.488 60.7031 125.753 61.1366C126.018 61.5693 126.151 62.0746 126.151 62.6527C126.151 63.2676 125.99 63.8263 125.669 64.3298C125.348 64.8333 124.897 65.2309 124.315 65.5246C123.733 65.8182 123.075 65.9655 122.34 65.9655C121.558 65.9655 120.878 65.786 120.302 65.427C119.724 65.0689 119.276 64.5314 118.955 63.8134C118.634 63.0954 118.473 62.2155 118.473 61.1725C118.473 60.0266 118.664 59.0628 119.046 58.2804C119.426 57.498 119.941 56.9181 120.588 56.5407C121.235 56.1633 121.963 55.9746 122.773 55.9746C123.629 55.9746 124.339 56.1449 124.901 56.4846C125.464 56.8242 125.746 57.3111 125.746 57.9444C125.746 58.308 125.641 58.6081 125.431 58.8456C125.221 59.0831 124.936 59.2018 124.573 59.2018C124.238 59.2018 123.959 59.1042 123.735 58.9082C123.512 58.713 123.401 58.4654 123.401 58.1672C123.401 58.0181 123.45 57.869 123.547 57.7208C123.644 57.5716 123.772 57.4557 123.931 57.371C123.82 57.232 123.659 57.1261 123.45 57.0562C123.241 56.9871 123.015 56.9512 122.773 56.9512C122.215 56.9512 121.763 57.2191 121.418 57.7548C121.074 58.2905 120.902 59.1595 120.902 60.3607C120.902 60.4352 120.907 60.4868 120.916 60.5144C121.158 60.2907 121.477 60.114 121.872 59.9833C122.268 59.8535 122.68 59.7881 123.107 59.7881C123.685 59.7881 124.204 59.9041 124.664 60.137ZM123.408 64.4623C123.682 64.1595 123.82 63.668 123.82 62.9877C123.82 62.2891 123.678 61.7718 123.394 61.4367C123.11 61.1017 122.745 60.9332 122.298 60.9332C121.972 60.9332 121.689 60.994 121.447 61.1155C121.204 61.237 121.023 61.4183 120.902 61.6604C120.893 61.7911 120.889 61.9816 120.889 62.2339C120.889 63.1838 121.027 63.8686 121.307 64.2874C121.586 64.7072 121.944 64.9161 122.382 64.9161C122.792 64.9161 123.133 64.7643 123.408 64.4623Z" fill="#ED145B"/>
<path d="M134.833 56.6024C133.754 57.9711 133.03 59.2708 132.663 60.5006C132.295 61.7304 132.112 62.9601 132.112 64.1899V64.9732C132.112 65.2714 131.999 65.5154 131.777 65.7068C131.554 65.8983 131.121 65.9931 130.478 65.9931C130.013 65.9931 129.627 65.9231 129.321 65.7832C129.414 64.3767 129.746 63.031 130.318 61.7451C130.89 60.4592 131.786 59.072 133.005 57.5808C132.223 57.8137 131.418 57.9297 130.591 57.9297C130.051 57.9297 129.663 58.0089 129.426 58.1672C129.188 58.3255 129.018 58.6145 128.916 59.0334H128.135C127.967 58.875 127.827 58.6725 127.715 58.4258C127.604 58.1792 127.548 57.8883 127.548 57.5523C127.548 57.0589 127.691 56.6696 127.98 56.3861C128.269 56.1016 128.715 55.9599 129.321 55.9599C129.497 55.9599 129.756 55.9857 130.096 56.0363C130.435 56.0878 130.651 56.1182 130.744 56.1274C131.815 56.2857 132.582 56.3649 133.048 56.3649C133.355 56.3649 133.578 56.3391 133.718 56.2885C133.858 56.2369 134.062 56.1136 134.332 55.9175L134.833 56.6024Z" fill="#ED145B"/>
</svg>
