<svg width="160" height="80" viewBox="0 0 160 80" fill="none" xmlns="http://www.w3.org/2000/svg">
<path d="M80 1.03467C58.48 1.03467 41.0347 18.48 41.0347 40C41.0347 61.52 58.48 78.9653 80 78.9653C101.52 78.9653 118.965 61.52 118.965 40C118.965 18.48 101.52 1.03467 80 1.03467ZM80 70.4173C63.2007 70.4173 49.5827 56.7993 49.5827 40C49.5827 23.2007 63.2007 9.58267 80 9.58267C96.7993 9.58267 110.417 23.2007 110.417 40C110.417 56.7993 96.7993 70.4173 80 70.4173Z" fill="#2D4586"/>
<path d="M80 0C57.9087 0 40 17.9087 40 40C40 62.0913 57.9087 80 80 80C102.091 80 120 62.0913 120 40C120 17.9087 102.091 0 80 0ZM80 78.9653C58.48 78.9653 41.0347 61.52 41.0347 40C41.0347 18.48 58.48 1.03467 80 1.03467C101.52 1.03467 118.965 18.48 118.965 40C118.965 61.52 101.52 78.9653 80 78.9653Z" fill="#237DC1"/>
<path d="M80 9.58267C63.2007 9.58267 49.5827 23.2007 49.5827 40C49.5827 56.7993 63.2007 70.4173 80 70.4173C96.7993 70.4173 110.417 56.7993 110.417 40C110.417 23.2007 96.7993 9.58267 80 9.58267ZM80 69.4967C63.7093 69.4967 50.5033 56.2907 50.5033 40C50.5033 23.7093 63.7093 10.5033 80 10.5033C96.2907 10.5033 109.497 23.7093 109.497 40C109.497 56.2907 96.2907 69.4967 80 69.4967Z" fill="#237DC1"/>
<path d="M75.9467 37.3334C78.9375 37.3334 81.362 35.2652 81.362 32.714C81.362 30.1628 78.9375 28.0947 75.9467 28.0947C72.9559 28.0947 70.5313 30.1628 70.5313 32.714C70.5313 35.2652 72.9559 37.3334 75.9467 37.3334Z" fill="#ED145B"/>
<path d="M75.9467 28.1947C78.882 28.1947 81.262 30.218 81.262 32.714C81.262 35.21 78.882 37.2334 75.9467 37.2334C73.0113 37.2334 70.6313 35.21 70.6313 32.714C70.6313 30.218 73.0113 28.1947 75.9467 28.1947ZM75.9467 27.9947C72.9053 27.9947 70.4313 30.1114 70.4313 32.714C70.4313 35.3167 72.9053 37.4334 75.9467 37.4334C78.988 37.4334 81.462 35.3167 81.462 32.714C81.462 30.1114 78.988 27.9947 75.9467 27.9947Z" fill="white"/>
<path d="M79.7807 38.572C81.6867 36.562 82.786 34.5893 83.048 32.708C82.9707 30.0567 81.6907 28.1567 79.244 27.0613C77.3047 26.1927 75.208 26.0993 74.3967 26.0993C74.21 26.0993 74.1034 26.1047 74.102 26.1047L73.4554 26.1367L74.062 25.9107C75.4154 25.4073 87.5394 22.6993 96.1434 22.6993C97.7934 22.6993 99.24 22.7987 100.443 22.9947L100.451 22.996L100.458 22.9987C102.629 23.7133 103.887 24.6593 104.197 25.81C104.452 26.754 104.056 27.8233 103.021 28.9893C100.692 31.6127 97.2494 34.014 93.3274 35.7507C89.0347 37.6513 84.376 38.6853 79.8554 38.7407L79.6187 38.7433L79.7807 38.572Z" fill="#2A81C4"/>
<path d="M96.1433 22.8C97.7087 22.8 99.164 22.8887 100.427 23.094C103.24 24.02 105.753 25.7613 102.946 28.9233C98.3973 34.0467 89.4333 38.524 79.8533 38.6413C81.642 36.756 82.866 34.762 83.1487 32.714C82.9687 26.3507 75.944 26 74.3973 26C74.2053 26 74.098 26.0053 74.098 26.0053C75.4253 25.5107 87.4727 22.8 96.1433 22.8ZM96.1433 22.6V22.8V22.6C91.4927 22.6 86.066 23.372 82.3327 24.02C77.998 24.772 74.672 25.578 74.0273 25.8173L72.8147 26.2687L74.1067 26.2047C74.108 26.2047 74.2127 26.1993 74.396 26.1993C75.2013 26.1993 77.2813 26.292 79.2027 27.1527C81.6087 28.23 82.868 30.0973 82.9473 32.7027C82.6867 34.5607 81.5967 36.512 79.7073 38.5033L79.3813 38.8467L79.8547 38.8407C84.3893 38.7853 89.0613 37.748 93.366 35.842C97.3007 34.0993 100.756 31.6893 103.095 29.0553C104.153 27.8627 104.557 26.762 104.293 25.784C103.973 24.598 102.693 23.6293 100.488 22.9033L100.473 22.8987L100.458 22.896C99.2507 22.7 97.7987 22.6 96.1433 22.6Z" fill="white"/>
<path d="M54.8953 52.43C54.936 52.416 59.0467 50.998 64.0587 48.678C68.6813 46.5387 75.038 43.1727 79.0713 39.2887L79.0993 39.2613L79.1387 39.2607C82.572 39.192 91.3413 38.478 98.6087 33.336C101.988 30.9447 104.129 28.574 104.973 26.29L105.137 25.846L105.167 26.318C105.239 27.482 104.614 28.9307 103.307 30.624C100.991 33.53 97.006 36.4947 91.462 39.436C87.032 41.786 81.6013 44.128 75.32 46.3967C64.6273 50.258 55.0467 52.5993 54.9513 52.6227L54.8953 52.43Z" fill="#ED145B"/>
<path d="M105.067 26.324C105.135 27.4153 104.583 28.8067 103.227 30.5627C93.116 43.2513 54.9273 52.5247 54.9273 52.5247C54.9273 52.5247 71.3127 46.8993 79.14 39.3607C82.3633 39.2967 91.3093 38.6227 98.666 33.4173C102.659 30.5913 104.387 28.1633 105.067 26.324ZM105.207 25.3673L104.879 26.2553C104.043 28.52 101.913 30.8753 98.5507 33.2547C95.4013 35.4827 91.6193 37.1207 87.308 38.1227C83.722 38.956 80.6487 39.1313 79.136 39.1613L79.058 39.1627L79.0013 39.2173C77.2273 40.926 74.856 42.6787 71.9533 44.426C69.6273 45.8267 66.9573 47.2267 64.018 48.5873C59.01 50.9053 54.9027 52.3227 54.862 52.3367L54.974 52.72C55.0693 52.6967 64.6553 50.3547 75.3533 46.4907C81.6393 44.2207 87.0747 41.8767 91.5087 39.5247C97.0647 36.5767 101.061 33.604 103.384 30.688C104.708 28.9727 105.341 27.5013 105.266 26.312L105.207 25.3673Z" fill="white"/>
<path d="M69.4693 52.05L70.1373 50.4553H69.1826L69.656 49.8247H70.46L70.7186 49.2427H72.114L71.8986 49.8027H72.2186L72.0946 50.4553H71.6273L71.3793 51.076C71.9053 50.942 73.3773 50.4913 73.3773 49.6447V49.6153C73.3773 49.418 73.3746 49.312 73.3093 49.2467C73.2233 49.16 72.9953 49.12 72.594 49.12C71.7 49.12 67.722 49.1413 67.682 49.1413L67.118 49.1447L69.6886 48.1873H73.736C73.7546 48.188 74.0726 48.206 74.396 48.3287C74.8466 48.5 75.0853 48.7907 75.0853 49.1707C75.0853 50.094 73.1013 52.05 70.892 52.05H69.4693Z" fill="#2A81C4"/>
<path d="M73.7346 48.2873C73.7346 48.2873 74.984 48.352 74.984 49.1707C74.984 49.9893 73.1093 51.95 70.8906 51.95H69.62L70.288 50.3553H69.3833L69.7066 49.9247H70.5253L70.784 49.3427H71.9693L71.754 49.9027H72.0986L72.0126 50.3553H71.56L71.2153 51.2173C71.2153 51.2173 73.4773 50.7647 73.4773 49.6447C73.4773 49.214 73.4986 49.02 72.594 49.02C71.6893 49.02 67.6813 49.0413 67.6813 49.0413L69.7066 48.2873H73.7346ZM73.74 48.0873H73.7346H69.706H69.67L69.636 48.1L67.6106 48.854L66.554 49.2473L67.6813 49.2413C67.706 49.2413 69.2386 49.2327 70.6153 49.2267L70.6 49.262L70.394 49.7247H69.7053H69.6053L69.5453 49.8047L69.222 50.2353L68.982 50.5553H69.382H69.986L69.434 51.8727L69.318 52.15H69.6186H70.89C72.2693 52.15 73.364 51.4447 73.8933 51.024C74.6653 50.4113 75.1833 49.666 75.1833 49.1707C75.1833 48.874 75.0526 48.4713 74.4293 48.2347C74.0913 48.1067 73.758 48.088 73.744 48.0873H73.74ZM72.23 49.2207C72.3786 49.22 72.502 49.22 72.5933 49.22C73.046 49.22 73.194 49.2727 73.238 49.3173C73.2766 49.356 73.2766 49.4707 73.2766 49.6153V49.6447C73.2766 50.294 72.2346 50.732 71.5446 50.93L71.694 50.556H72.0113H72.1766L72.2073 50.3933L72.2933 49.9407L72.3386 49.7033H72.0966H72.0433L72.154 49.4147L72.23 49.2207Z" fill="white"/>
<path d="M76.8579 52.05L77.3753 50.8433H76.0406C75.9593 50.97 75.9679 51.4347 76.0313 51.826L76.0499 51.942H74.7553V50.9693L74.7579 50.9587C75.3633 48.2647 78.4959 48.1873 78.8513 48.1873C78.8746 48.1873 78.8873 48.1873 78.8873 48.1873H80.3453L79.9659 49.1627H78.6266C77.4346 49.1627 76.8733 49.7427 76.6733 50.018H77.8246L78.1046 49.264H79.5513L78.4139 52.0493H76.8579V52.05Z" fill="#2A81C4"/>
<path d="M78.8506 48.2873C78.8726 48.2873 78.884 48.2873 78.884 48.2873H80.198L79.8966 49.0627H78.6253C76.988 49.0627 76.4926 50.118 76.4926 50.118H77.8933L78.1733 49.364H79.4013L78.3453 51.9493H77.0093L77.5266 50.7427H75.9966C75.7813 50.9153 75.932 51.8413 75.932 51.8413H74.8546V50.9793C75.444 48.3633 78.4966 48.2873 78.8506 48.2873ZM78.8506 48.0873C78.4873 48.0873 75.2826 48.1673 74.66 50.9367L74.6553 50.958V50.98V51.842V52.042H74.8553H75.9326H76.168L76.1306 51.81C76.0746 51.4653 76.0666 51.09 76.1073 50.9433H77.224L76.8266 51.8713L76.7073 52.15H77.0106H78.3466H78.4813L78.532 52.0253L79.588 49.44L79.6606 49.2627H79.8986H80.0353L80.0846 49.1353L80.386 48.36L80.492 48.0873H80.1993H78.8866C78.8813 48.0873 78.8693 48.0873 78.8506 48.0873ZM76.8813 49.9187C77.074 49.7127 77.4153 49.45 77.9726 49.3293L77.754 49.9187H76.8813Z" fill="white"/>
<path d="M92.1233 52.05L92.6406 50.8433H91.306C91.2246 50.97 91.2333 51.4347 91.2966 51.826L91.3153 51.942H90.0206V50.9693L90.0233 50.9587C90.6286 48.2647 93.7613 48.1873 94.1166 48.1873C94.14 48.1873 94.1526 48.1873 94.1526 48.1873H97.5313L97.206 49.1627H93.8913C92.6873 49.1627 92.1326 49.7413 91.936 50.018H93.0893L93.3693 49.264H94.816L93.6786 52.0493H92.1233V52.05Z" fill="#2A81C4"/>
<path d="M94.116 48.2873C94.138 48.2873 94.1493 48.2873 94.1493 48.2873H97.392L97.1333 49.0633H93.8906C92.2533 49.0633 91.758 50.1187 91.758 50.1187H93.1586L93.4386 49.3647H94.6666L93.6106 51.95H92.2746L92.792 50.7433H91.262C91.0466 50.916 91.1973 51.842 91.1973 51.842H90.12V50.98C90.7086 48.3633 93.7613 48.2873 94.116 48.2873ZM94.116 48.0873C93.7526 48.0873 90.548 48.1673 89.9253 50.9367L89.9206 50.958V50.98V51.842V52.042H90.1206H91.198H91.4333L91.396 51.81C91.34 51.4653 91.332 51.09 91.3726 50.9433H92.4893L92.092 51.8713L91.9726 52.15H92.276H93.612H93.7466L93.7973 52.0253L94.8533 49.44L94.926 49.2627H97.1333H97.2773L97.3226 49.126L97.5813 48.3507L97.6693 48.0873H97.392H94.152C94.146 48.0873 94.134 48.0873 94.116 48.0873ZM92.1466 49.9187C92.3393 49.7127 92.6806 49.45 93.238 49.3293L93.0193 49.9187H92.1466Z" fill="white"/>
<path d="M80.2193 52.05L81.4473 49.1847H80.2113L80.696 48.1873H86.1446L85.6 49.142H82.978L81.6633 52.05H80.2193Z" fill="#2A81C4"/>
<path d="M85.9726 48.2873L85.542 49.042H82.9133L81.5993 51.9507H80.3713L81.5993 49.0853H80.3713L80.7593 48.288L85.9726 48.2873ZM86.3173 48.0873H85.9726H80.7586H80.6333L80.5786 48.2L80.1906 48.9973L80.0506 49.2847H80.3706H81.2953L80.1866 51.8713L80.0673 52.15H80.3706H81.5986H81.728L81.7813 52.0327L83.0426 49.242H85.542H85.658L85.7153 49.1413L86.146 48.3867L86.3173 48.0873Z" fill="white"/>
<path d="M78.9113 48.0427L78.8253 47.6447H78.788L78.5293 48.0427H77.262L78.394 47.046H79.5686L80.108 48.0427H78.9113Z" fill="#2A81C4"/>
<path d="M79.5093 47.146L79.94 47.9433H78.992L78.906 47.5447H78.7333L78.4746 47.9433H77.5266L78.4313 47.146H79.5093ZM79.6286 46.946H79.5093H78.432H78.3566L78.3 46.996L77.3953 47.7933L76.998 48.1433H77.5273H78.4753H78.584L78.6433 48.052L78.7693 47.8573L78.7966 47.9853L78.8306 48.1433H78.992H79.94H80.2753L80.116 47.848L79.6853 47.0507L79.6286 46.946Z" fill="white"/>
<path d="M79.982 47.7627L80.8846 46.7014H82.14L81.0913 47.7627H79.982Z" fill="#2A81C4"/>
<path d="M81.9006 46.8013L81.0493 47.6633H80.198L80.9306 46.8013H81.9006ZM82.3793 46.6013H81.9006H80.9313H80.8386L80.7786 46.672L80.046 47.5333L79.766 47.8627H80.1986H81.05H81.1333L81.192 47.8033L82.0433 46.9413L82.3793 46.6013Z" fill="white"/>
<path d="M87.9753 52.054C87.0326 52.054 85.9873 52.008 85.518 51.4587C85.302 51.206 85.226 50.866 85.292 50.448C85.63 48.3447 87.4473 48.1807 87.9966 48.1807C88.0933 48.1807 88.1566 48.1853 88.1746 48.1873H92.566L92.0626 48.3807C91.1253 48.7407 91.036 49.0253 91.0286 49.0607L91.0533 49.1773L90.9286 49.1633H88.4506C87.3566 49.1633 86.784 49.774 86.784 50.3773C86.784 50.896 87.3286 50.902 87.352 50.902H89.1966L88.7793 52.05H88.7093C88.594 52.05 88.476 52.0507 88.3553 52.052C88.2306 52.0533 88.1033 52.054 87.9753 52.054Z" fill="#2A81C4"/>
<path d="M87.9966 48.2807C88.1059 48.2807 88.1699 48.2873 88.1699 48.2873H92.0266C90.9059 48.718 90.9279 49.0633 90.9279 49.0633H88.4499C87.2653 49.0633 86.6833 49.7527 86.6833 50.3773C86.6833 51.002 87.3513 51.002 87.3513 51.002H89.0533L88.7086 51.95C88.4739 51.95 88.2259 51.9533 87.9753 51.9533C86.6133 51.9533 85.1726 51.846 85.3906 50.4633C85.7153 48.4467 87.4399 48.2807 87.9966 48.2807ZM87.9966 48.0807C87.4279 48.0807 85.5439 48.25 85.1933 50.432C85.1226 50.8807 85.2059 51.248 85.4419 51.5233C85.9393 52.1053 87.0106 52.154 87.9753 52.154C88.1033 52.154 88.2306 52.1533 88.3559 52.152C88.4759 52.1513 88.5939 52.15 88.7093 52.15H88.8493L88.8973 52.0187L89.2419 51.0707L89.3393 50.802H89.0539H87.3519C87.2746 50.8013 86.8839 50.776 86.8839 50.3773C86.8839 49.8233 87.4219 49.2633 88.4506 49.2633H90.9286H91.1413L91.1293 49.074C91.1486 49.0293 91.2866 48.786 92.0986 48.474L93.1046 48.0873H92.0266H88.1786C88.1539 48.0853 88.0906 48.0807 87.9966 48.0807Z" fill="white"/>
<path d="M97.2113 52.05L97.5846 51.4533L96.5713 50.588L95.9946 52.05H94.3679L95.7339 49.1773H97.1699L98.0913 49.96L98.9666 48.1807H100.429L98.8159 52.05H97.2113Z" fill="#2A81C4"/>
<path d="M100.279 48.2807L98.7486 51.95H97.3913L97.7146 51.4327L96.5293 50.42L95.926 51.95H94.5253L95.7966 49.2773H97.1333L98.1246 50.1187L99.0293 48.2807H100.279ZM100.579 48.0807H100.279H99.0293H98.9046L98.85 48.192L98.0586 49.8L97.2633 49.1247L97.2073 49.0773H97.1333H95.7973H95.6706L95.6166 49.1913L94.3453 51.864L94.2093 52.15H94.526H95.9266H96.0626L96.1126 52.0233L96.6133 50.7547L97.454 51.4733L97.222 51.844L97.0306 52.15H97.3913H98.7486H98.882L98.9333 52.0267L100.463 48.3573L100.579 48.0807Z" fill="white"/>
<path d="M101.981 51.9213C100.628 51.9213 99.9413 51.3146 99.9413 50.1193C99.9413 48.3873 102.486 48.1833 102.512 48.182H102.519H105.108L104.717 49.0566H102.928C102.029 49.0566 101.326 49.628 101.326 50.3573C101.326 50.8746 101.788 50.952 102.063 50.952C102.123 50.952 102.162 50.948 102.163 50.948L102.168 50.9473H102.548L102.692 50.372H102.19L102.648 49.3746H104.58L103.621 51.9233H101.981V51.9213Z" fill="#2A81C4"/>
<path d="M104.954 48.2807L104.653 48.9553C104.653 48.9553 103.877 48.9553 102.929 48.9553C101.981 48.9553 101.227 49.5587 101.227 50.356C101.227 50.9833 101.815 51.05 102.065 51.05C102.132 51.05 102.175 51.0453 102.175 51.0453H102.628L102.822 50.27H102.348L102.714 49.4727H104.437L103.554 51.8213C103.554 51.8213 102.52 51.8213 101.981 51.8213C101.443 51.8213 100.042 51.778 100.042 50.1193C100.042 48.4607 102.52 48.2813 102.52 48.2813H104.954V48.2807ZM105.263 48.0807H104.954H102.519H102.512L102.505 48.0813C102.478 48.0833 101.846 48.1313 101.205 48.392C100.313 48.7547 99.8413 49.352 99.8413 50.1187C99.8413 50.9107 100.136 51.466 100.716 51.7693C101.143 51.9927 101.616 52.0213 101.98 52.0213H103.553H103.691L103.74 51.892L104.623 49.5433L104.725 49.2727H104.437H102.713H102.585L102.532 49.3893L102.166 50.1867L102.036 50.47H102.348H102.566L102.472 50.8453H102.176H102.165L102.153 50.8467C102.153 50.8467 102.119 50.85 102.065 50.85C101.642 50.85 101.428 50.684 101.428 50.356C101.428 49.6827 102.088 49.1553 102.93 49.1553H104.653H104.783L104.835 49.0367L105.137 48.362L105.263 48.0807Z" fill="white"/>
<path d="M93.3207 48.0427L94.1433 47.3667L94.1473 47.364C94.156 47.358 94.1647 47.3513 94.1733 47.3433C94.142 47.3373 94.0907 47.3313 94.0087 47.3313H93.2073L93.4913 46.7007H94.3007C94.3013 46.7007 94.3193 46.6993 94.346 46.6993C94.71 46.6993 95.0987 46.8393 95.0987 47.2313C95.0987 47.59 94.4553 47.9847 94.382 48.028L94.358 48.042H93.3207V48.0427Z" fill="#2A81C4"/>
<path d="M94.3473 46.8C94.5007 46.8 95 46.8307 95 47.232C95 47.5447 94.332 47.9427 94.332 47.9427H93.6L94.2033 47.4473C94.2033 47.4473 94.5267 47.232 94.0093 47.232C93.492 47.232 93.3627 47.232 93.3627 47.232L93.5567 46.8013H94.3027C94.3027 46.8013 94.3193 46.8 94.3473 46.8ZM94.3473 46.6C94.324 46.6 94.3067 46.6007 94.298 46.6013H93.5573H93.428L93.3747 46.7193L93.1807 47.15L93.054 47.432H93.3633H93.9073L93.4733 47.7887L93.042 48.1433H93.6H94.3327H94.388L94.4353 48.1153C94.6147 48.008 95.2007 47.628 95.2007 47.2327C95.2 46.842 94.8733 46.6 94.3473 46.6Z" fill="white"/>
<path d="M44.532 35.448C44.3807 35.5047 44.2927 35.632 44.2687 35.8287C44.2554 35.9373 44.274 36.03 44.3234 36.1073C44.3734 36.1847 44.4607 36.2513 44.586 36.3073C44.7114 36.3633 44.8787 36.412 45.0874 36.454C45.296 36.496 45.5534 36.5353 45.858 36.572C46.1834 36.6113 46.4474 36.6327 46.6507 36.6347C46.854 36.6373 47.014 36.622 47.13 36.5893C47.246 36.5567 47.3274 36.5073 47.374 36.442C47.4207 36.3767 47.4494 36.2973 47.4607 36.2053C47.47 36.1293 47.466 36.056 47.4474 35.9867C47.4294 35.9173 47.384 35.8533 47.3114 35.796C47.2387 35.738 47.1334 35.6867 46.994 35.6413C46.8554 35.596 46.6687 35.5593 46.436 35.5307L46.5414 34.6633C46.774 34.692 46.9927 34.7367 47.1974 34.798C47.402 34.8593 47.576 34.9493 47.7207 35.0667C47.8654 35.184 47.9707 35.3373 48.0374 35.5267C48.104 35.716 48.12 35.9533 48.0854 36.2387C48.046 36.564 47.962 36.8167 47.834 36.9967C47.706 37.1767 47.5374 37.306 47.3287 37.384C47.1194 37.4627 46.8767 37.5 46.6 37.4967C46.3234 37.4933 46.02 37.472 45.6914 37.432C45.366 37.3927 45.068 37.3407 44.7967 37.2773C44.5254 37.214 44.2974 37.1187 44.1134 36.9927C43.9294 36.866 43.7934 36.7 43.7067 36.494C43.62 36.288 43.596 36.022 43.6354 35.6967C43.6727 35.3873 43.7527 35.15 43.8747 34.9833C43.9967 34.8167 44.1407 34.6987 44.306 34.6293C44.4714 34.56 44.6447 34.5247 44.826 34.5247C45.0074 34.5247 45.1767 34.534 45.3334 34.5527L45.228 35.42C44.916 35.382 44.6834 35.3913 44.532 35.448Z" fill="white"/>
<path d="M43.312 31.4707L44.2667 31.196L44.1294 31.824L43.566 31.986L44.0074 32.3807L43.8774 32.9733L43.1254 32.324L43.312 31.4707ZM45.2447 33.804C44.9807 33.7153 44.7627 33.5993 44.5914 33.456C44.42 33.3127 44.3007 33.1347 44.2334 32.9213C44.166 32.708 44.168 32.4413 44.238 32.1213C44.308 31.8013 44.4187 31.5587 44.5687 31.3927C44.7187 31.2267 44.902 31.1147 45.1174 31.0567C45.3334 30.9987 45.5794 30.984 45.8567 31.0133C46.134 31.0433 46.432 31.0927 46.7527 31.1633C47.0767 31.234 47.3694 31.314 47.632 31.4027C47.894 31.4913 48.1114 31.6073 48.2827 31.75C48.454 31.8933 48.5707 32.0707 48.632 32.2827C48.6934 32.4947 48.6887 32.7607 48.6187 33.0807C48.5487 33.4007 48.4414 33.644 48.2974 33.8113C48.1534 33.9787 47.9734 34.0913 47.7574 34.1493C47.5414 34.208 47.296 34.222 47.0214 34.1927C46.746 34.1633 46.4467 34.1133 46.1227 34.0427C45.8007 33.9727 45.5087 33.8933 45.2447 33.804ZM47.038 33.328C47.2407 33.358 47.4087 33.366 47.542 33.3513C47.6754 33.3373 47.7794 33.298 47.8534 33.2333C47.9274 33.1687 47.9787 33.0733 48.006 32.9467C48.034 32.82 48.0274 32.712 47.9867 32.6227C47.946 32.5333 47.868 32.454 47.7534 32.3853C47.638 32.3167 47.482 32.2533 47.2854 32.196C47.0887 32.1387 46.848 32.0787 46.564 32.016C46.2794 31.954 46.0374 31.908 45.8367 31.8787C45.636 31.8493 45.468 31.8413 45.3327 31.8553C45.1974 31.8693 45.092 31.908 45.018 31.9727C44.944 32.0373 44.8927 32.1327 44.8654 32.2593C44.8374 32.386 44.844 32.494 44.8847 32.5833C44.9254 32.6727 45.004 32.752 45.1214 32.8213C45.2387 32.8907 45.3947 32.954 45.5894 33.0107C45.784 33.068 46.0234 33.1273 46.308 33.19C46.592 33.252 46.8354 33.298 47.038 33.328Z" fill="white"/>
<path d="M48.3447 28.798L48.3487 28.7866L45.5334 27.852L45.786 27.092L49.8967 28.4566L49.5834 29.4006L46.368 29.4586L46.364 29.47L49.2427 30.426L48.99 31.186L44.8787 29.8213L45.196 28.8653L48.3447 28.798Z" fill="white"/>
<path d="M47.8814 24.8606C47.7967 24.842 47.7134 24.8366 47.6327 24.844C47.5514 24.852 47.4767 24.8746 47.4087 24.912C47.3407 24.95 47.288 25.0093 47.2514 25.0906C47.1647 25.282 47.2087 25.4686 47.384 25.6506C47.5594 25.8326 47.8934 26.0353 48.3874 26.2586C48.6234 26.3653 48.84 26.4553 49.038 26.5273C49.236 26.5993 49.4114 26.6466 49.5634 26.6693C49.7154 26.6913 49.8434 26.6833 49.948 26.644C50.0527 26.6046 50.1307 26.528 50.182 26.414C50.204 26.366 50.2147 26.308 50.2147 26.2393C50.2147 26.1706 50.2007 26.0993 50.1714 26.0266C50.142 25.954 50.096 25.8826 50.0314 25.8133C49.9674 25.744 49.882 25.6853 49.7747 25.6373L49.3714 25.4546L49.1334 25.9793L48.548 25.714L49.132 24.4266L51.2594 25.3913L50.9934 25.9766L50.6287 25.8113L50.6234 25.8226C50.7347 25.9886 50.792 26.1533 50.7954 26.3173C50.7987 26.4813 50.758 26.6566 50.6727 26.8446C50.5627 27.088 50.43 27.2666 50.276 27.3806C50.122 27.4953 49.9367 27.5553 49.7207 27.562C49.5047 27.5686 49.26 27.5273 48.9874 27.4393C48.714 27.3513 48.4067 27.2293 48.064 27.074C47.7327 26.9233 47.4514 26.7706 47.22 26.6146C46.9887 26.4586 46.8127 26.2913 46.692 26.112C46.5714 25.9326 46.5067 25.7393 46.4994 25.5313C46.4914 25.3233 46.5454 25.0926 46.6607 24.8386C46.858 24.404 47.1074 24.14 47.41 24.046C47.7127 23.952 48.0647 23.9966 48.466 24.1786L48.12 24.9413C48.0454 24.9053 47.966 24.8793 47.8814 24.8606Z" fill="white"/>
<path d="M50.3954 19.7813L49.892 20.5827L52.9534 22.5067L52.4887 23.246L49.4274 21.322L48.9234 22.1233L48.3174 21.7427L49.7894 19.4L50.3954 19.7813Z" fill="white"/>
<path d="M52.3107 18.816L52.318 18.8067L51.358 17.3067L51.934 16.5553L53.336 19.044L54.6887 20.0813L54.1574 20.7747L52.8047 19.7373L50.0374 19.03L50.6354 18.25L52.3107 18.816Z" fill="white"/>
<path d="M55.2894 14.1466C55.1354 14.0966 54.9874 14.1406 54.846 14.2786C54.768 14.3553 54.724 14.4386 54.7147 14.53C54.7054 14.6213 54.7314 14.7286 54.7947 14.8506C54.8574 14.9726 54.9574 15.116 55.0947 15.2786C55.2314 15.442 55.4074 15.6333 55.622 15.8533C55.8507 16.0873 56.044 16.2693 56.2014 16.3986C56.3587 16.528 56.4927 16.616 56.604 16.6626C56.7154 16.71 56.8094 16.722 56.8867 16.7C56.964 16.678 57.036 16.6346 57.1027 16.5693C57.1574 16.516 57.2 16.456 57.2294 16.3906C57.2587 16.3253 57.2634 16.2473 57.2427 16.1566C57.222 16.0666 57.172 15.96 57.092 15.8373C57.012 15.7146 56.89 15.57 56.726 15.402L57.3507 14.7913C57.5147 14.9593 57.6574 15.1306 57.778 15.3066C57.8987 15.4826 57.9794 15.6613 58.0187 15.8433C58.058 16.0253 58.0447 16.2113 57.978 16.4006C57.9114 16.59 57.7754 16.7853 57.57 16.986C57.336 17.2146 57.1127 17.36 56.9 17.42C56.6874 17.4806 56.4754 17.476 56.2634 17.406C56.0514 17.3366 55.838 17.214 55.624 17.038C55.41 16.8626 55.1874 16.656 54.9554 16.4193C54.726 16.1853 54.526 15.958 54.354 15.7386C54.182 15.5193 54.064 15.3026 53.9987 15.0886C53.934 14.8746 53.932 14.6606 53.9934 14.4453C54.0547 14.23 54.202 14.008 54.4367 13.7793C54.6594 13.5613 54.8707 13.426 55.07 13.3726C55.2694 13.3193 55.4554 13.3173 55.628 13.366C55.8007 13.4153 55.9574 13.4966 56.0994 13.6093C56.2414 13.7226 56.3667 13.8353 56.4774 13.948L55.8527 14.5586C55.63 14.3353 55.4434 14.1973 55.2894 14.1466Z" fill="white"/>
<path d="M56.7707 10.182L57.6854 10.57L57.1827 10.9713L56.6427 10.742L56.7367 11.3267L56.2767 11.6933L56.0874 10.7267L56.7707 10.182ZM56.8894 13.312C56.74 13.0767 56.644 12.8493 56.6014 12.63C56.5587 12.4107 56.578 12.1973 56.6607 11.9893C56.7434 11.7813 56.912 11.5753 57.1687 11.3707C57.4247 11.1667 57.6634 11.0473 57.8847 11.0133C58.106 10.9793 58.3187 11.0073 58.5227 11.098C58.7267 11.1887 58.9274 11.3327 59.124 11.5307C59.3207 11.7287 59.5207 11.9553 59.7254 12.2113C59.932 12.4707 60.1094 12.7173 60.2574 12.9513C60.4054 13.1853 60.5007 13.412 60.5434 13.6313C60.5867 13.8507 60.5647 14.062 60.4787 14.2653C60.3927 14.4687 60.2214 14.672 59.9654 14.8767C59.7094 15.0813 59.4727 15.2027 59.2554 15.2413C59.038 15.28 58.8274 15.2547 58.6234 15.164C58.4194 15.0733 58.2194 14.93 58.024 14.734C57.8287 14.538 57.628 14.31 57.4214 14.0507C57.2147 13.7933 57.038 13.5473 56.8894 13.312ZM58.146 10.086C58.1794 10.07 58.21 10.0547 58.2374 10.04C58.2647 10.026 58.2927 10.0073 58.3214 9.98465C58.3687 9.94665 58.41 9.90132 58.4447 9.84732C58.4794 9.79399 58.504 9.73665 58.518 9.67665C58.532 9.61665 58.5327 9.55599 58.5214 9.49599C58.5094 9.43599 58.4807 9.37732 58.4354 9.31999C58.322 9.17799 58.1834 9.10799 58.0207 9.11132C57.858 9.11465 57.68 9.19332 57.4867 9.34665C57.3827 9.42999 57.294 9.51599 57.2227 9.60399C57.1507 9.69265 57.1047 9.76265 57.0847 9.81532L57.3487 9.96132C57.368 9.91465 57.4034 9.85932 57.4534 9.79599C57.5034 9.73265 57.5587 9.67665 57.6187 9.62932C57.6854 9.57665 57.754 9.54732 57.8247 9.54265C57.896 9.53799 57.9487 9.55732 57.984 9.60132C58.022 9.64865 58.034 9.70265 58.02 9.76265C58.006 9.82332 57.9674 9.87865 57.904 9.92865C57.8694 9.95665 57.838 9.97732 57.8107 9.99132C57.7834 10.0053 57.7527 10.018 57.72 10.0287L57.6914 10.2067L58.014 10.5627L58.27 10.3587L58.146 10.086ZM58.582 14.072C58.7207 14.2227 58.846 14.3347 58.9587 14.408C59.0714 14.4813 59.1767 14.516 59.2754 14.5127C59.3734 14.5093 59.4734 14.4673 59.5747 14.3867C59.676 14.306 59.7387 14.218 59.764 14.1233C59.7894 14.0287 59.7787 13.918 59.732 13.792C59.686 13.666 59.6047 13.5187 59.488 13.35C59.372 13.1813 59.2227 12.9833 59.0414 12.756C58.86 12.5287 58.7007 12.34 58.5634 12.1907C58.426 12.0413 58.3007 11.9293 58.1867 11.8547C58.0727 11.78 57.9667 11.7447 57.8687 11.7473C57.7707 11.7507 57.6707 11.7927 57.5694 11.8733C57.468 11.954 57.4054 12.042 57.38 12.1367C57.3547 12.232 57.366 12.3433 57.4134 12.4707C57.4607 12.5987 57.542 12.7453 57.6574 12.9127C57.7727 13.08 57.9207 13.2767 58.102 13.5047C58.284 13.732 58.444 13.9213 58.582 14.072Z" fill="white"/>
<path d="M61.8 8.31798C61.992 8.20598 62.172 8.14332 62.3414 8.13132C62.51 8.11932 62.6654 8.14198 62.8067 8.19998C62.948 8.25798 63.076 8.34398 63.1894 8.45732C63.3027 8.57132 63.4007 8.69798 63.482 8.83798C63.594 9.02998 63.6634 9.21465 63.6894 9.39132C63.7154 9.56798 63.7034 9.73198 63.654 9.88332C63.604 10.0346 63.5194 10.1753 63.3994 10.3066C63.2794 10.438 63.13 10.5553 62.952 10.6593L62.5487 10.8953L63.4214 12.388L62.6674 12.8293L60.48 9.09065L61.8 8.31798ZM62.5587 10.144C62.7087 10.056 62.8034 9.93998 62.8427 9.79465C62.882 9.64998 62.8454 9.48132 62.7334 9.28932C62.6234 9.10065 62.4994 8.98132 62.3614 8.93065C62.224 8.87998 62.0607 8.90932 61.8727 9.01998L61.5587 9.20398L62.2234 10.34L62.5587 10.144Z" fill="white"/>
<path d="M64.3387 6.98331L65.0287 8.48864L65.9554 8.06397L65.2654 6.55864L66.0594 6.19464L67.8647 10.132L67.0707 10.496L66.2694 8.74797L65.3427 9.17264L66.144 10.9206L65.35 11.2846L63.5447 7.34731L64.3387 6.98331Z" fill="white"/>
<path d="M68.3274 4.12866L69.056 4.804L68.4467 5.01L68.0167 4.61133L67.906 5.19333L67.3487 5.382L67.4994 4.40866L68.3274 4.12866ZM67.7854 5.55533L68.0894 10.026L68.9514 9.734L68.8474 8.802L69.9394 8.432L70.4227 9.23533L71.2847 8.94333L68.8087 5.20866L67.7854 5.55533ZM68.1967 3.66733L68.972 3.40466L69.5627 4.12666L69.0227 4.30933L68.1967 3.66733ZM68.7607 8.07466L68.5327 6.096L68.544 6.092L69.5654 7.802L68.7607 8.07466Z" fill="white"/>
<path d="M73.2354 7.10465L73.2474 7.10198L72.596 4.20798L73.3774 4.03198L74.3287 8.25798L73.358 8.47665L71.65 5.75198L71.638 5.75465L72.304 8.71398L71.5227 8.88998L70.5714 4.66398L71.554 4.44265L73.2354 7.10465Z" fill="white"/>
<path d="M77.2687 6.77332L77.2867 6.77198L77.6693 3.52732L78.5707 3.45465L77.928 7.85265L76.8094 7.94332L75.468 3.70598L76.4 3.62998L77.2687 6.77332Z" fill="white"/>
<path d="M81.192 3.47799L82.2574 7.83065L81.3474 7.81332L81.1647 6.89399L80.012 6.87265L79.7947 7.78465L78.8847 7.76732L80.1127 3.45799L81.192 3.47799ZM80.2314 2.28265L79.76 3.14732L80.3487 3.15865L80.6494 2.64865L80.9187 3.16932L81.5614 3.18132L81.1047 2.29865L80.2314 2.28265ZM81.026 6.17465L80.644 4.21999H80.632L80.1767 6.15932L81.026 6.17465ZM80.9054 8.08399L80.226 8.07132L80.2127 8.78732L80.892 8.79999L80.9054 8.08399Z" fill="white"/>
<path d="M84.716 6.75664L84.728 6.75798L85.0887 3.81331L85.8834 3.91064L85.3567 8.20998L84.3694 8.08931L83.6787 4.94864L83.6667 4.94731L83.298 7.95798L82.5034 7.86064L83.03 3.56131L84.0294 3.68398L84.716 6.75664Z" fill="white"/>
<path d="M90.492 5.71598L89.5767 5.47531L88.6567 8.97198L87.812 8.74998L88.732 5.25332L87.8167 5.01265L87.9987 4.32065L90.674 5.02465L90.492 5.71598Z" fill="white"/>
<path d="M93.1874 5.91265L92.7627 10.3733L91.9094 10.058L92.0387 9.12931L90.9574 8.72998L90.452 9.51998L89.598 9.20465L92.174 5.53798L93.1874 5.91265ZM92.144 8.40531L92.426 6.43331L92.4147 6.42931L91.3474 8.11131L92.144 8.40531ZM92.6947 5.40731L92.3874 5.29398L92.5247 4.83398L92.692 4.76665C92.718 4.78931 92.7447 4.80865 92.7707 4.82465C92.7974 4.84065 92.8314 4.85665 92.8727 4.87198C92.9487 4.89998 93.016 4.90465 93.0747 4.88531C93.1334 4.86598 93.1734 4.82798 93.1947 4.77131C93.214 4.71798 93.2034 4.66265 93.1627 4.60398C93.1214 4.54598 93.0614 4.50198 92.982 4.47265C92.91 4.44598 92.834 4.42731 92.7534 4.41731C92.6727 4.40731 92.608 4.40531 92.558 4.41331L92.5467 4.11131C92.602 4.10131 92.686 4.10465 92.7987 4.12065C92.9114 4.13665 93.0307 4.16731 93.156 4.21331C93.3874 4.29865 93.5467 4.41065 93.634 4.54798C93.7214 4.68598 93.7334 4.83998 93.67 5.01065C93.6447 5.07865 93.6094 5.13398 93.564 5.17531C93.5187 5.21665 93.4667 5.24731 93.4074 5.26598C93.3487 5.28531 93.2874 5.29398 93.2234 5.29198C93.1594 5.28998 93.0994 5.27865 93.042 5.25731C93.008 5.24465 92.9774 5.23065 92.9514 5.21398C92.9254 5.19798 92.896 5.17931 92.8647 5.15931L92.6947 5.40731Z" fill="white"/>
<path d="M94.8427 6.60132L95.6367 6.96532L93.8314 10.9027L93.0374 10.5387L94.8427 6.60132Z" fill="white"/>
<path d="M99.53 9.93066L98.7174 9.44599L96.8647 12.5513L96.1147 12.104L97.9674 8.99866L97.1547 8.51399L97.5214 7.89932L99.8967 9.31666L99.53 9.93066Z" fill="white"/>
<path d="M101.221 10.2453L100.239 11.5793L101.06 12.1833L102.041 10.8493L102.745 11.3673L100.179 14.8567L99.4753 14.3387L100.615 12.7893L99.7933 12.1853L98.654 13.7347L97.95 13.2167L100.517 9.72733L101.221 10.2453Z" fill="white"/>
<path d="M102.107 14.776C102.033 14.8553 101.969 14.9333 101.917 15.0087C101.865 15.0847 101.829 15.16 101.811 15.2347C101.793 15.3093 101.795 15.384 101.818 15.4573C101.84 15.5313 101.888 15.6027 101.961 15.672C102.038 15.744 102.113 15.7887 102.186 15.8047C102.259 15.8213 102.333 15.818 102.407 15.796C102.481 15.774 102.553 15.7347 102.627 15.678C102.699 15.6213 102.773 15.5533 102.848 15.474L104.921 13.2767L105.557 13.876L105.29 14.1587L105.301 14.4113C105.304 14.5087 105.312 14.5867 105.325 14.6467C105.339 14.7067 105.382 14.7707 105.455 14.84L105.46 14.844C105.537 14.916 105.631 14.9147 105.743 14.84C105.855 14.7653 105.998 14.6367 106.17 14.454L106.603 14.862C106.439 15.0353 106.293 15.174 106.164 15.278C106.035 15.382 105.914 15.4513 105.801 15.486C105.687 15.5207 105.576 15.5193 105.468 15.4807C105.359 15.442 105.245 15.366 105.125 15.2527C105.037 15.1693 104.973 15.0727 104.936 14.962C104.899 14.8513 104.876 14.732 104.87 14.6033L103.484 16.0727C103.295 16.2727 103.111 16.412 102.932 16.49C102.753 16.568 102.58 16.6013 102.413 16.5887C102.247 16.576 102.091 16.5267 101.945 16.4393C101.8 16.352 101.662 16.2473 101.533 16.1253C101.403 16.0033 101.289 15.8733 101.191 15.736C101.092 15.5987 101.03 15.4493 101.004 15.2887C100.978 15.128 100.999 14.9547 101.068 14.7693C101.137 14.584 101.271 14.386 101.471 14.174L103.545 11.9767L104.18 12.576L102.107 14.776Z" fill="white"/>
<path d="M105.535 16.9053C105.79 16.7 106.035 16.522 106.27 16.372C106.505 16.222 106.732 16.1246 106.951 16.0813C107.17 16.0373 107.383 16.056 107.592 16.138C107.801 16.2193 108.007 16.388 108.213 16.6433C108.418 16.8986 108.537 17.1373 108.571 17.3593C108.603 17.5613 108.583 17.7593 108.511 17.9526L108.501 18.038C108.491 18.1346 108.488 18.2133 108.493 18.2746C108.497 18.336 108.532 18.4053 108.595 18.484L108.599 18.4886C108.665 18.5706 108.759 18.582 108.88 18.5233C109.001 18.4646 109.16 18.3566 109.355 18.1993L109.728 18.6626C109.542 18.812 109.378 18.9293 109.237 19.0153C109.095 19.1006 108.966 19.1526 108.849 19.172C108.731 19.1906 108.622 19.174 108.52 19.1213C108.418 19.0686 108.315 18.9773 108.211 18.8486C108.142 18.7633 108.097 18.6753 108.075 18.584C108.069 18.5893 108.063 18.594 108.057 18.5993C107.863 18.7966 107.638 18.9986 107.383 19.204C107.124 19.412 106.879 19.59 106.645 19.7386C106.412 19.8873 106.186 19.984 105.967 20.0273C105.747 20.0713 105.536 20.0506 105.333 19.9653C105.129 19.88 104.925 19.71 104.719 19.4546C104.514 19.1993 104.391 18.9633 104.352 18.746C104.312 18.5286 104.337 18.318 104.427 18.1133C104.517 17.9086 104.659 17.7086 104.855 17.5126C105.049 17.3153 105.276 17.1133 105.535 16.9053ZM106.082 17.586C105.855 17.7686 105.667 17.9293 105.516 18.0686C105.366 18.208 105.254 18.334 105.181 18.4466C105.109 18.5593 105.074 18.6653 105.078 18.7633C105.082 18.8613 105.124 18.9606 105.205 19.062C105.287 19.1626 105.375 19.2253 105.47 19.25C105.565 19.2746 105.675 19.2633 105.801 19.2166C105.927 19.17 106.074 19.088 106.242 18.9713C106.41 18.8546 106.607 18.7046 106.835 18.522C107.061 18.3393 107.249 18.1793 107.398 18.0413C107.547 17.9033 107.658 17.7773 107.732 17.6633C107.806 17.5493 107.841 17.4426 107.838 17.3446C107.834 17.2466 107.792 17.1466 107.711 17.046C107.629 16.9453 107.541 16.8826 107.447 16.858C107.351 16.8333 107.24 16.8446 107.113 16.8926C106.985 16.9406 106.838 17.0226 106.672 17.1386C106.506 17.254 106.309 17.4033 106.082 17.586Z" fill="white"/>
<path d="M108.823 22.772L108.829 22.782L111.346 21.2113L111.77 21.8907L108.095 24.1847L107.569 23.3407L109.577 20.8287L109.57 20.8187L106.997 22.4247L106.573 21.7453L110.247 19.452L110.781 20.306L108.823 22.772Z" fill="white"/>
<path d="M112.151 24.9273C112.22 24.874 112.277 24.8133 112.323 24.746C112.369 24.6786 112.399 24.6066 112.413 24.53C112.427 24.4533 112.415 24.3746 112.377 24.2946C112.285 24.1053 112.113 24.0206 111.861 24.04C111.609 24.0593 111.239 24.1873 110.753 24.4253C110.52 24.5386 110.313 24.6486 110.131 24.7553C109.949 24.862 109.801 24.9666 109.687 25.07C109.573 25.1726 109.497 25.2773 109.461 25.3826C109.425 25.488 109.434 25.5973 109.489 25.71C109.513 25.7573 109.551 25.8026 109.603 25.8466C109.656 25.8906 109.72 25.9246 109.795 25.9486C109.869 25.9726 109.954 25.9826 110.048 25.9773C110.142 25.972 110.242 25.9433 110.347 25.892L110.745 25.698L110.493 25.18L111.071 24.898L111.69 26.1686L109.591 27.192L109.309 26.614L109.669 26.4386L109.663 26.428C109.465 26.408 109.301 26.3473 109.173 26.2453C109.045 26.1433 108.935 26 108.845 25.8146C108.728 25.5746 108.674 25.3586 108.684 25.1673C108.694 24.976 108.765 24.7946 108.898 24.624C109.031 24.4533 109.218 24.2913 109.461 24.1373C109.703 23.9833 109.993 23.824 110.331 23.6586C110.658 23.4993 110.955 23.38 111.223 23.3013C111.49 23.2226 111.731 23.194 111.947 23.2146C112.161 23.236 112.352 23.3093 112.517 23.436C112.682 23.5626 112.825 23.7513 112.948 24.002C113.157 24.4306 113.201 24.792 113.081 25.0846C112.961 25.3773 112.703 25.6206 112.306 25.8133L111.939 25.0606C112.012 25.0253 112.083 24.9806 112.151 24.9273Z" fill="white"/>
<path d="M114.865 29.0247L112.109 30.4873L112.113 30.4987L115.222 30.2287L115.589 31.4673L111.437 32.6987L111.209 31.9307L114.525 30.948L114.521 30.936L110.987 31.18L110.794 30.5287L113.89 28.8073L113.887 28.796L110.571 29.7787L110.344 29.0107L114.497 27.7793L114.865 29.0247Z" fill="white"/>
<path d="M110.835 35.1073L110.722 34.4373L111.428 34.318L111.541 34.988L110.835 35.1073ZM115.94 33.3513L111.478 32.9433L111.63 33.8407L112.567 33.8853L112.759 35.022L111.889 35.372L112.041 36.2693L116.121 34.416L115.94 33.3513ZM113.298 33.9153L115.288 34.0033L115.29 34.0153L113.44 34.7527L113.298 33.9153Z" fill="white"/>
<path d="M116.348 36.1933L116.428 37.0633L112.115 37.4587L112.035 36.5887L116.348 36.1933Z" fill="white"/>
<path d="M63.2787 67.2133L61.9767 73.1707L60.8807 72.464L61.2073 71.1607L59.4127 70.0027L58.3467 70.8287L57.2847 70.1433L62.1967 66.5147L63.2787 67.2133ZM61.44 70.1967L61.9713 68.0453L61.958 68.0367L60.1967 69.3947L61.44 70.1967Z" fill="white"/>
<path d="M67.5173 69.4247L68.3687 73.8567L68.3833 73.8627L69.7573 70.2853L70.8553 70.7073L68.8067 76.0393L67.634 75.5887L66.7873 71.1667L66.7727 71.1607L65.4013 74.73L64.3033 74.308L66.352 68.976L67.5173 69.4247Z" fill="white"/>
<path d="M74.032 71.4134L73.6993 73.58L75.9847 73.9307L76.3173 71.764L77.5587 71.9547L76.692 77.6007L75.4507 77.41L75.8247 74.9747L73.5393 74.624L73.1653 77.0594L71.924 76.8687L72.7907 71.2227L74.032 71.4134Z" fill="white"/>
<path d="M84.1493 71.6967L84.5167 73.858L86.796 73.47L86.4287 71.3094L87.6667 71.0987L88.6247 76.73L87.3867 76.9407L86.9733 74.5114L84.694 74.8994L85.1073 77.3287L83.8693 77.5394L82.9113 71.908L84.1493 71.6967Z" fill="white"/>
<path d="M95.4587 73.898C95.1967 74.4074 94.712 74.8034 94.0033 75.0867C93.2853 75.3734 92.66 75.422 92.128 75.2327C91.596 75.0434 91.1853 74.5867 90.8967 73.864L89.5793 70.5654L90.746 70.0994L92.0633 73.398C92.1207 73.542 92.1893 73.678 92.2693 73.8067C92.3493 73.9354 92.4507 74.0374 92.572 74.112C92.694 74.1867 92.8387 74.2294 93.0067 74.24C93.1747 74.2507 93.3773 74.208 93.6153 74.1134C94.0313 73.9474 94.2813 73.7394 94.366 73.4907C94.45 73.2414 94.4133 72.9194 94.2553 72.5227L92.938 69.224L94.1047 68.758L95.422 72.0567C95.708 72.7754 95.72 73.3887 95.4587 73.898Z" fill="white"/>
<path d="M95.342 68.1434L96.5146 67.364L98.876 68.5034L98.7333 65.8894L99.8993 65.1147L100.083 69.2194L101.296 71.0447L100.25 71.74L99.0186 69.888L95.342 68.1434Z" fill="white"/>
<path d="M114.651 39.9247L115.378 41.398L117.004 41.634L115.827 42.7807L116.105 44.4L114.651 43.6354L113.197 44.4L113.475 42.7807L112.299 41.634L113.924 41.398L114.651 39.9247Z" fill="white"/>
<path d="M45.0513 39.9247L45.778 41.398L47.404 41.634L46.2273 42.7807L46.5053 44.4L45.0513 43.6354L43.5973 44.4L43.8747 42.7807L42.6987 41.634L44.324 41.398L45.0513 39.9247Z" fill="white"/>
</svg>
